{"glyphs":{":":{"x_min":0,"x_max":235,"ha":235,"o":"m 43 361 q 43 372 48 394 q 52 410 52 417 q 52 429 44 433 l 52 435 q 107 432 134 432 q 137 432 146 428 q 154 425 165 425 l 183 426 q 195 426 200 421 q 205 416 205 399 q 205 390 200 390 l 201 341 q 201 320 196 312 q 191 303 178 300 q 164 297 125 293 l 96 290 q 94 295 87 295 q 86 295 76 290 q 65 286 60 286 q 59 286 56 288 q 54 290 49 290 q 45 309 44 326 q 43 343 43 361 z m 63 390 q 63 383 66 372 q 70 375 99 389 q 133 402 139 411 l 139 416 l 65 416 q 65 409 64 403 q 63 397 63 390 z m 136 397 q 121 390 107 382 q 93 375 92 370 q 100 374 132 382 q 151 386 168 391 q 184 396 184 401 q 184 403 182 407 l 160 416 l 156 407 z m 70 325 q 75 328 90 337 q 105 346 122 355 q 126 358 138 361 q 149 364 158 368 q 167 371 170 377 l 160 378 q 150 378 112 366 q 73 354 66 346 q 66 341 68 334 q 70 326 70 325 z m 78 312 q 87 316 90 316 q 91 316 92 316 q 94 315 97 315 q 130 315 152 327 q 175 339 175 364 l 160 358 q 77 321 78 312 z m 43 82 q 43 93 48 115 q 52 131 52 138 q 52 150 44 154 l 52 156 q 107 153 134 153 q 137 153 146 150 q 154 146 165 146 l 183 147 q 195 147 200 142 q 205 137 205 120 q 205 111 200 111 l 201 62 q 201 41 196 32 q 191 24 178 21 q 164 18 125 14 l 96 11 q 94 16 87 16 q 86 16 76 12 q 65 7 60 7 q 59 7 56 9 q 54 11 49 11 q 45 30 44 47 q 43 64 43 82 z m 63 111 q 63 104 66 93 q 70 96 99 110 q 133 123 139 132 l 139 137 l 65 137 q 65 130 64 124 q 63 118 63 111 z m 136 118 q 121 111 107 104 q 93 96 92 91 q 100 95 132 103 q 151 107 168 112 q 184 117 184 122 q 184 124 182 128 l 160 137 l 156 128 z m 70 46 q 75 49 90 58 q 105 67 122 76 q 126 79 138 82 q 149 85 158 88 q 167 92 170 98 l 160 99 q 150 99 112 87 q 73 75 66 67 q 66 62 68 54 q 70 47 70 46 z m 78 33 q 87 37 90 37 q 91 37 92 36 q 94 36 97 36 q 130 36 152 48 q 175 60 175 85 l 160 79 q 77 42 78 33 z"},"$":{"x_min":0,"x_max":506,"ha":506,"o":"m 476 239 q 476 221 466 188 q 457 155 444 127 q 430 99 417 94 q 412 89 393 84 q 374 78 369 78 q 349 78 322 67 q 295 56 290 54 q 294 47 296 31 q 299 15 303 14 q 301 14 300 13 q 298 12 298 11 q 298 4 304 -12 q 311 -26 311 -37 l 243 -37 l 239 -33 q 227 -41 216 -41 q 208 -41 200 -6 q 192 30 192 46 q 192 49 194 52 q 196 56 199 58 l 192 54 l 192 67 l 189 66 q 189 67 178 70 q 166 72 160 74 l 124 74 q 123 79 106 79 l 96 79 q 78 79 68 83 q 57 87 57 102 q 57 121 60 137 q 62 159 62 171 q 62 178 60 189 q 57 200 57 206 q 57 217 60 222 q 63 228 72 228 q 76 228 78 226 q 79 225 80 225 q 80 225 85 228 q 91 228 113 216 q 135 204 148 196 q 144 193 144 192 q 144 191 154 188 q 163 184 164 184 l 278 172 l 282 164 q 283 168 294 180 q 304 191 311 201 q 318 211 318 224 q 318 228 316 232 q 313 236 310 236 q 283 265 250 280 q 216 294 160 309 q 118 320 101 326 q 66 329 54 344 q 43 360 40 380 q 36 401 34 409 l 49 460 q 50 465 60 473 q 70 481 70 488 l 129 548 q 134 555 140 558 q 146 561 147 562 q 161 569 175 579 l 183 578 q 196 578 196 584 q 196 600 186 630 q 176 658 176 674 l 176 679 q 176 687 179 690 q 200 680 208 680 q 212 680 224 681 q 236 682 254 682 q 288 682 300 674 q 311 665 311 640 l 311 636 q 311 627 306 626 l 306 604 q 306 571 298 563 q 304 558 310 558 q 313 558 316 560 q 318 561 320 561 q 324 559 342 554 q 360 549 378 548 q 378 550 380 551 q 383 552 386 552 l 386 538 q 377 538 352 515 q 327 492 322 488 l 322 480 q 322 483 350 496 q 350 492 354 492 q 355 492 366 496 q 377 499 378 500 l 378 508 l 397 535 q 397 537 394 542 q 392 548 392 552 q 407 552 412 548 q 412 525 415 502 q 417 472 417 457 q 417 436 412 430 q 407 425 398 425 q 389 425 367 436 q 347 446 329 452 q 311 458 290 459 l 290 472 l 235 472 q 234 467 220 467 l 220 472 l 214 472 q 196 472 196 460 l 179 465 l 174 464 q 174 424 203 410 q 232 395 278 388 q 302 386 303 382 q 303 386 310 386 q 326 386 351 375 q 376 364 396 351 q 417 338 417 335 l 425 330 q 432 330 444 314 q 457 298 466 276 q 476 255 476 239 z m 204 658 l 203 654 l 199 654 q 200 651 204 642 q 207 634 207 630 q 221 635 243 657 l 239 658 q 235 658 230 654 q 226 651 223 651 l 223 665 l 200 662 q 204 659 204 658 z m 247 642 l 259 641 q 265 641 276 644 q 286 648 293 648 q 293 654 290 656 q 287 657 280 658 q 272 658 270 662 q 270 658 260 652 q 249 646 247 642 z m 271 630 l 270 634 q 266 631 242 624 q 217 617 211 617 l 212 587 q 221 590 246 608 q 271 626 271 630 z m 266 610 q 262 607 254 601 q 245 595 243 595 l 275 595 q 283 595 283 609 l 282 623 q 275 619 266 610 z m 186 514 q 200 516 232 548 q 265 579 270 583 l 270 587 q 239 584 212 564 q 186 543 186 514 z m 295 544 q 291 544 287 542 q 283 541 279 541 l 278 544 q 278 545 282 548 l 282 575 q 269 569 254 558 q 238 546 235 535 l 250 534 q 263 534 270 540 l 267 532 l 192 496 l 187 492 q 191 488 203 488 q 233 488 254 502 q 274 515 298 543 z m 126 520 q 124 517 115 504 q 106 491 98 486 q 108 493 124 508 q 140 523 148 532 q 152 534 168 555 q 164 557 163 557 q 156 557 148 548 q 139 538 126 520 z m 129 496 l 145 492 q 150 497 159 498 q 168 498 172 501 q 176 504 176 520 l 172 524 q 172 526 176 532 q 180 537 180 540 q 180 542 179 543 q 143 517 129 496 z m 278 503 q 287 503 302 509 q 317 515 326 520 l 326 516 l 270 488 q 285 483 302 483 q 305 483 328 502 q 351 522 351 528 q 343 526 342 526 q 337 526 322 543 q 312 542 297 527 q 282 512 278 503 z m 330 476 q 337 472 350 470 q 364 467 372 463 q 379 459 381 450 l 369 450 q 372 450 377 448 q 382 445 382 443 q 382 440 383 440 q 386 440 392 450 q 398 461 398 471 q 398 489 393 500 q 382 493 359 486 q 336 478 330 476 z m 57 369 q 59 377 64 388 q 69 398 75 398 q 76 398 81 393 q 83 404 91 410 q 99 417 114 425 q 130 434 137 441 q 144 448 144 459 q 144 462 152 466 q 159 471 160 476 l 124 460 q 124 452 127 452 q 129 452 130 454 q 132 455 135 455 q 135 443 118 438 q 101 433 84 433 q 77 433 77 437 q 77 445 87 452 q 97 458 117 467 q 147 478 152 488 l 89 467 l 89 474 q 73 474 65 439 q 57 404 57 384 z m 91 483 z m 105 366 q 110 366 131 383 q 155 401 160 401 l 159 416 q 153 416 153 419 q 153 424 164 425 q 164 425 152 437 q 141 437 119 422 q 97 406 88 392 q 91 392 117 405 l 121 401 l 132 409 q 131 396 105 384 q 79 373 64 373 q 64 366 72 358 q 79 351 79 346 l 85 346 z m 160 330 q 198 368 217 368 q 224 368 224 383 q 218 383 205 378 q 192 374 184 374 q 185 376 196 380 q 208 385 208 387 q 208 393 196 397 q 185 401 179 401 q 164 401 148 386 q 132 372 129 369 q 128 370 126 370 q 121 370 118 364 q 114 359 113 354 l 179 377 q 178 368 170 364 q 161 361 142 355 q 127 351 120 348 q 112 344 112 338 q 122 338 137 334 q 152 331 160 330 z m 259 376 l 259 382 l 228 365 q 202 352 200 350 l 231 350 l 235 358 q 277 365 282 374 q 278 378 273 378 q 270 378 267 377 q 264 376 259 376 z m 220 314 q 229 321 257 342 q 285 362 295 366 l 287 366 l 176 326 q 186 322 199 318 q 212 314 220 314 z m 270 294 q 275 294 288 304 q 302 314 315 325 q 338 346 342 346 q 342 356 333 361 q 324 366 313 366 q 304 366 274 343 q 243 320 235 310 q 250 318 274 328 q 298 339 306 342 q 306 336 281 324 q 271 320 262 314 q 254 309 254 304 q 254 299 260 296 q 265 294 270 294 z m 318 271 l 358 302 l 351 302 q 351 309 358 312 q 365 314 372 314 q 379 315 381 315 l 381 307 l 326 267 q 331 267 380 280 q 429 294 429 297 q 429 305 424 310 q 418 314 401 322 q 395 325 381 333 q 367 341 353 350 q 343 338 316 318 q 292 302 282 291 q 290 291 303 296 q 316 302 323 302 q 323 301 324 299 q 326 297 326 295 q 326 291 311 286 q 296 281 287 279 q 290 270 311 270 z m 456 219 q 456 221 454 222 q 453 224 452 224 l 456 227 q 455 234 453 248 q 451 261 448 271 q 444 281 436 287 q 435 282 394 258 q 354 234 342 232 q 346 227 355 227 q 373 227 393 232 q 417 236 428 236 l 440 244 q 441 244 442 242 q 444 239 444 237 q 444 229 427 221 q 410 213 381 203 q 336 188 330 180 q 331 176 335 176 l 340 176 q 344 176 345 172 l 373 180 l 369 184 q 400 184 428 194 q 456 205 456 219 z m 353 247 l 358 244 q 358 248 369 256 q 380 263 390 268 q 401 274 409 279 l 401 279 q 394 279 358 268 q 321 258 321 253 q 321 247 327 243 q 333 239 337 239 q 347 239 353 247 z m 334 204 l 339 200 q 346 202 363 206 q 380 210 392 214 q 404 219 405 224 q 377 223 359 219 q 341 215 334 204 z m 77 204 l 81 172 q 87 174 96 181 q 105 188 105 192 q 105 199 100 204 q 95 208 88 208 q 77 208 77 204 z m 117 188 l 93 153 q 88 152 84 148 q 81 144 81 140 q 82 141 113 148 q 144 154 156 172 q 149 179 138 184 q 126 188 117 188 z m 444 180 q 440 172 422 164 q 405 156 371 144 q 341 133 341 131 q 341 139 377 155 q 412 171 412 177 l 412 181 q 395 181 380 176 q 365 170 350 163 q 336 156 330 153 l 330 161 q 319 161 306 158 q 293 156 286 156 q 279 156 275 157 l 228 133 q 226 134 223 134 q 216 134 206 126 q 196 118 192 117 l 192 110 q 196 115 212 118 q 228 121 235 121 l 231 117 l 235 116 q 248 116 273 133 q 299 149 310 149 q 305 147 289 135 q 285 133 270 122 q 255 112 246 112 l 243 113 l 168 89 q 190 85 195 85 q 202 85 210 89 q 218 93 221 94 q 237 105 251 105 q 238 98 238 89 l 239 86 q 248 86 257 91 q 266 96 280 105 q 305 124 320 124 q 322 125 324 128 q 326 131 326 133 l 334 129 q 322 113 310 113 l 267 89 l 298 74 q 298 85 314 94 q 330 102 342 102 q 341 100 339 96 q 337 93 337 89 q 342 91 347 94 q 352 96 358 97 q 374 100 382 110 q 389 120 391 120 q 409 120 423 139 q 437 158 444 180 z m 167 122 l 176 121 q 180 125 188 128 q 196 131 200 136 l 204 133 q 208 140 222 147 q 235 154 243 154 l 243 160 q 231 160 213 165 q 195 169 187 169 q 158 147 113 117 q 110 117 105 112 q 100 106 100 102 l 101 97 q 102 99 104 102 q 107 104 109 105 q 117 105 117 97 q 121 109 136 116 q 151 122 167 122 z m 108 131 q 102 129 92 129 q 90 129 88 131 q 86 133 85 133 q 80 133 78 130 q 77 128 77 121 q 77 116 79 112 q 81 107 82 105 q 88 105 96 116 q 104 127 108 131 z m 162 105 l 158 105 q 150 105 142 102 q 133 99 133 92 q 141 92 150 96 q 158 99 162 105 z m 231 81 q 226 80 219 76 q 212 71 212 66 q 221 68 231 81 z m 251 70 l 251 79 q 247 79 244 76 q 242 73 242 70 z m 235 38 q 240 39 256 42 q 271 44 271 50 q 271 61 267 62 q 258 62 248 54 q 238 46 235 38 z m 215 38 q 218 38 226 44 q 234 51 239 58 q 235 57 223 52 q 211 47 211 44 q 212 44 212 41 q 213 38 215 38 z m 262 34 l 220 22 q 215 22 215 16 q 215 9 221 6 q 227 3 235 3 l 231 6 q 252 20 262 34 z m 287 -13 q 287 -4 284 12 q 281 27 275 27 q 268 27 256 12 q 243 -3 243 -12 q 243 -13 244 -15 q 246 -17 247 -17 l 282 -17 z"},"?":{"x_min":0,"x_max":464,"ha":464,"o":"m 430 525 q 430 467 404 420 q 377 373 326 315 q 292 281 280 260 q 268 240 268 205 q 268 184 270 164 q 255 149 222 137 q 189 125 169 125 q 162 125 158 129 q 153 146 153 173 q 153 201 168 246 q 182 290 197 315 q 267 428 267 539 q 267 541 266 542 q 265 542 265 543 q 250 560 229 564 q 208 569 175 569 q 149 569 126 550 q 102 531 75 501 q 72 498 63 488 q 54 478 50 478 q 43 478 41 483 q 42 488 42 497 q 42 513 37 533 q 36 538 34 550 q 32 562 32 571 l 34 591 q 37 605 37 617 q 37 621 34 628 q 30 636 29 638 q 29 644 84 668 q 139 691 158 694 q 201 702 232 704 q 262 707 263 707 q 301 707 340 678 q 379 648 404 605 q 430 562 430 525 z m 197 678 q 193 678 170 675 q 148 672 128 664 l 140 659 q 154 666 178 670 q 201 674 224 677 q 262 681 279 685 q 273 690 262 690 q 255 690 244 686 q 233 681 227 681 q 217 679 210 678 q 202 678 197 678 z m 304 677 q 297 677 281 672 q 265 668 257 664 l 283 664 q 276 658 260 657 q 243 656 239 655 q 237 653 219 643 q 187 626 180 616 l 338 642 l 338 651 q 332 657 320 666 q 308 674 304 677 z m 58 595 l 81 603 q 166 631 166 642 l 116 643 q 90 643 72 629 q 64 622 61 615 q 58 608 58 595 z m 374 606 q 374 613 365 623 q 356 633 347 639 q 344 639 343 638 q 292 618 236 591 l 253 590 q 289 590 332 593 q 374 596 374 606 z m 81 586 q 109 586 132 594 q 154 602 154 621 z m 262 616 q 247 616 230 612 q 213 608 198 603 q 166 593 149 591 q 133 581 112 576 q 91 572 87 571 l 58 565 q 54 564 54 555 l 54 551 q 54 544 56 542 q 58 539 65 539 q 78 543 90 550 q 103 558 108 561 q 127 574 145 582 q 149 581 158 581 q 181 581 206 590 q 232 600 262 616 z m 336 577 q 326 577 316 570 q 306 562 300 560 q 300 556 308 556 l 314 556 q 372 556 395 565 l 382 591 q 377 577 336 577 z m 278 569 q 281 570 300 576 q 320 581 330 586 l 321 587 q 309 587 296 582 q 274 577 265 577 q 269 575 273 573 q 277 571 278 569 z m 340 530 q 366 544 382 548 l 293 548 q 293 537 290 526 q 287 516 287 511 q 295 511 310 517 q 325 523 340 530 z m 380 511 l 404 513 l 404 544 q 391 538 365 530 q 349 525 334 518 q 320 512 313 504 q 347 506 380 511 z m 298 501 q 288 501 284 492 q 281 483 280 468 q 280 453 279 449 q 292 458 324 472 q 357 487 387 496 l 390 500 q 347 497 328 494 q 310 492 309 492 q 304 492 301 494 q 298 497 298 501 z m 399 492 q 390 486 359 474 q 328 462 321 462 l 321 466 q 308 446 288 440 l 338 440 q 340 441 342 442 q 345 444 347 444 l 356 440 q 383 440 391 452 q 399 463 399 492 z m 265 393 q 281 402 323 415 q 349 421 361 426 q 348 426 336 428 q 324 429 319 429 q 303 432 283 432 l 274 431 q 270 420 268 410 q 265 399 265 393 z m 373 418 l 350 410 q 309 395 283 388 q 297 388 310 391 q 326 393 335 393 q 337 393 342 390 q 346 387 349 387 q 351 387 352 388 z m 244 345 l 248 345 l 313 375 l 294 376 q 269 376 256 371 q 244 366 244 345 z m 337 371 q 324 371 280 349 q 237 327 231 319 l 300 319 q 322 349 330 360 q 337 370 337 371 z m 267 287 q 272 298 283 306 l 222 306 q 219 306 217 298 q 215 289 213 285 q 215 285 222 271 q 245 271 253 274 q 261 278 267 287 z m 248 254 q 248 255 238 257 q 227 259 218 259 q 188 259 188 220 l 222 242 q 223 241 227 241 q 233 241 240 244 q 248 247 248 250 z m 204 207 l 215 207 q 244 207 244 211 l 244 237 q 240 235 230 232 q 221 228 214 223 q 206 218 201 211 q 201 207 204 207 z m 248 198 q 248 203 240 203 q 230 203 214 201 q 200 198 187 198 q 175 198 175 181 q 175 168 178 164 q 181 159 192 159 q 204 159 226 162 q 248 165 248 169 z m 296 -13 q 296 -28 293 -38 q 290 -47 279 -47 q 207 -47 169 -43 q 154 -43 148 -16 q 141 11 139 35 q 137 59 136 65 q 142 82 170 87 q 199 92 238 92 l 262 92 q 296 71 296 -13 z m 213 25 q 222 31 237 36 q 252 40 263 40 q 263 49 258 60 q 252 70 244 70 l 239 69 l 248 61 q 242 54 228 41 q 214 28 213 25 z m 188 32 q 205 39 216 46 q 226 52 231 65 q 211 65 196 64 q 181 64 162 61 l 162 54 q 162 40 166 21 z m 177 -18 q 184 -18 212 -2 q 240 14 244 21 q 211 17 171 4 q 175 -18 177 -18 z m 271 -22 q 271 7 263 18 q 257 14 201 -17 l 201 -21 q 203 -20 225 -14 q 247 -9 253 -9 l 262 -12 q 257 -17 248 -19 q 238 -21 231 -21 q 239 -23 253 -24 q 267 -26 271 -26 z"},"<":{"x_min":0,"x_max":427,"ha":427,"o":"m 264 353 l 215 292 q 219 285 267 232 q 318 176 348 140 q 378 103 378 92 q 378 80 364 76 q 350 73 327 73 q 324 73 313 72 q 302 71 302 68 l 219 68 l 55 227 q 53 236 43 247 q 29 265 29 278 q 29 286 34 292 q 39 298 46 302 q 52 307 55 310 l 194 451 q 199 456 210 466 q 222 476 224 482 q 224 489 232 494 q 241 499 249 499 l 278 498 q 287 498 295 499 q 303 500 316 500 q 378 500 378 482 q 378 478 344 446 l 323 426 q 304 401 264 353 z m 202 426 q 210 426 222 429 q 233 432 238 433 q 265 442 283 442 q 283 441 286 437 q 288 433 288 431 q 288 430 254 419 q 219 408 211 400 l 206 395 l 211 395 q 211 398 240 406 q 270 415 276 417 q 285 420 294 428 q 303 436 315 450 q 329 467 331 468 q 327 473 321 473 q 297 473 256 459 q 216 445 202 426 z m 116 331 q 135 342 166 351 q 198 363 215 372 q 232 380 245 395 q 229 393 192 382 q 155 372 142 365 q 135 362 128 352 q 120 341 116 331 z m 250 378 l 194 348 l 198 348 q 229 354 236 357 q 241 359 245 368 q 249 376 250 378 z m 68 262 q 72 262 78 268 q 84 275 90 279 q 92 277 95 277 q 98 277 100 280 q 102 283 103 284 q 117 298 141 309 q 165 320 198 331 l 198 335 q 191 334 182 331 q 174 328 171 327 q 147 319 137 319 l 137 326 q 110 317 84 301 q 59 285 59 272 q 63 262 68 262 z m 219 331 l 186 316 l 169 301 q 178 301 197 310 q 216 320 219 331 z m 137 268 q 155 274 168 280 q 180 287 189 300 q 175 292 158 286 q 141 280 137 279 q 114 272 99 266 q 84 260 72 249 l 86 236 q 95 248 106 254 q 118 261 137 268 z m 198 282 l 189 282 q 174 272 141 256 q 136 253 128 249 q 121 245 120 244 q 162 258 179 262 q 196 266 199 266 z m 122 204 q 126 205 148 220 q 171 236 189 249 q 184 249 156 242 q 127 235 98 223 q 123 204 122 204 z m 211 249 q 205 249 176 228 q 146 207 142 202 q 155 202 184 212 q 213 222 228 232 q 224 242 220 246 q 217 249 211 249 z m 243 215 q 227 215 205 191 q 183 167 182 166 q 193 171 267 188 q 267 197 260 206 q 252 215 243 215 z m 163 169 l 219 212 q 203 212 177 202 q 151 191 141 184 q 150 168 159 168 z m 271 184 q 271 176 260 165 q 248 154 234 144 q 221 133 215 128 l 293 154 q 284 175 271 184 z m 198 132 l 245 171 l 238 171 q 228 171 204 164 q 180 157 180 152 q 182 145 186 138 q 191 132 198 132 z m 279 141 q 267 138 243 128 q 219 118 219 111 l 232 94 q 239 94 254 110 q 269 126 279 141 z m 302 141 q 296 129 271 108 q 264 102 258 97 q 253 92 253 89 q 265 94 289 101 q 309 106 327 115 z m 340 98 l 335 106 l 319 98 z"},"'":{"x_min":0,"x_max":193,"ha":193,"o":"m 48 444 q 38 503 33 542 q 28 582 28 616 q 28 627 24 639 q 20 651 20 659 q 20 664 76 674 q 132 685 147 685 q 154 685 154 676 q 154 661 150 627 q 145 600 145 577 q 145 560 147 536 q 150 518 150 492 q 150 438 146 404 q 141 370 128 370 q 109 370 82 378 q 55 386 55 396 z m 94 638 q 116 638 128 641 l 129 656 q 114 656 94 638 z m 50 608 q 55 593 55 582 q 60 594 75 604 q 90 613 104 620 q 119 626 124 629 q 111 629 96 624 q 80 620 72 620 q 65 620 63 624 l 94 655 q 73 655 60 651 q 46 647 46 633 q 46 626 50 608 z m 104 599 q 125 599 125 607 l 124 612 l 98 599 z m 72 512 q 79 517 92 522 q 116 532 116 536 q 116 538 114 540 q 112 542 111 542 l 72 542 q 68 542 68 551 q 68 561 82 571 q 97 581 98 582 q 83 582 76 580 q 69 579 59 573 q 64 571 64 564 q 64 560 62 556 q 59 551 59 544 q 59 520 72 512 z m 119 559 l 119 573 l 102 564 q 108 559 119 559 z m 119 508 l 119 521 l 102 512 z m 78 473 q 84 473 102 484 q 119 494 119 495 l 104 496 q 101 496 92 496 q 83 495 77 493 q 71 491 71 486 q 71 483 72 478 q 74 473 78 473 z m 119 460 l 119 475 q 113 475 106 472 q 99 469 94 465 q 97 463 106 462 q 116 460 119 460 z m 74 427 q 77 429 89 434 q 101 440 115 443 l 111 448 l 77 448 q 76 437 75 432 q 74 428 74 427 z m 89 417 l 115 417 l 115 426 z"},"=":{"x_min":0,"x_max":526,"ha":526,"o":"m 62 315 q 62 353 70 374 q 79 396 113 396 q 142 396 172 394 q 198 392 212 392 q 236 392 276 394 q 310 396 320 396 q 323 396 338 395 q 354 394 383 394 l 436 395 q 454 395 454 376 q 454 375 456 366 q 457 356 457 314 q 457 304 449 300 q 441 296 430 296 l 263 297 l 228 296 q 195 293 153 293 q 62 293 62 315 z m 377 368 q 375 367 356 356 q 314 335 303 321 l 366 321 l 385 332 q 414 352 433 356 l 433 377 q 420 377 412 370 q 403 364 391 350 q 381 338 373 332 q 365 325 353 325 q 349 325 346 328 q 349 333 360 340 q 371 348 376 354 q 382 359 382 368 z m 297 351 q 296 350 284 340 q 272 329 271 321 l 342 360 l 342 369 l 333 369 q 320 369 315 366 q 310 364 304 358 q 299 353 297 351 z m 89 320 q 89 317 90 315 q 91 313 94 313 l 168 313 q 168 323 173 328 q 178 332 188 338 q 199 344 203 348 l 208 360 q 203 360 200 359 q 197 358 194 358 q 192 358 189 360 q 186 361 184 361 q 180 361 177 355 q 174 349 169 349 l 169 364 l 161 365 q 149 365 138 354 q 128 342 127 341 q 133 343 144 348 q 156 352 164 356 q 163 346 142 333 q 121 320 111 320 q 105 320 104 325 q 104 328 114 340 q 125 353 130 359 q 127 356 116 356 q 105 356 99 354 q 93 352 93 343 q 93 338 94 336 l 89 341 z m 239 348 q 227 340 213 333 q 188 320 188 317 l 244 317 q 246 319 254 320 q 262 321 263 325 l 259 328 q 285 362 285 364 q 266 355 256 354 q 247 354 239 348 z m 212 348 q 227 348 236 360 l 231 360 q 222 360 212 348 z m 429 348 q 425 343 409 333 q 393 323 385 321 l 405 317 q 409 317 418 318 q 428 320 429 321 z m 469 163 q 469 148 464 143 q 399 129 312 129 l 271 130 l 97 131 q 94 131 86 132 q 78 132 74 135 q 70 138 70 145 q 70 153 68 164 q 65 176 65 188 q 65 199 70 224 q 76 250 81 250 q 84 250 92 249 q 100 248 105 245 l 330 245 q 341 250 355 250 q 372 250 396 246 q 422 242 441 242 q 444 245 449 245 q 453 245 460 242 q 468 238 468 234 l 468 183 z m 97 178 l 105 178 l 141 206 q 145 207 161 213 q 177 219 200 226 l 187 227 q 181 227 174 224 q 166 221 162 221 q 160 221 156 224 q 153 226 151 226 q 144 226 126 228 q 111 231 92 231 q 92 216 94 197 q 96 178 97 178 z m 259 175 q 261 180 264 187 q 267 194 270 198 q 273 203 278 206 q 278 208 275 211 q 276 219 281 219 q 283 218 286 216 q 290 213 291 211 q 291 208 288 200 q 284 192 283 190 q 351 224 354 230 q 342 230 316 228 q 284 226 267 226 l 255 230 l 231 226 q 231 216 222 206 q 212 196 196 184 q 180 172 176 167 q 180 167 194 174 q 209 181 212 181 q 214 181 233 195 q 252 209 265 209 q 265 203 258 197 q 251 191 243 187 q 235 183 233 182 q 232 182 223 174 q 214 167 196 159 l 196 149 q 235 149 259 175 z m 429 222 q 424 225 418 226 q 413 227 407 227 l 397 226 q 383 213 364 190 q 345 167 339 159 q 369 196 429 222 z m 348 188 q 362 208 374 218 l 374 226 l 350 214 q 325 207 308 195 q 291 183 267 159 q 283 154 299 154 q 314 154 324 162 q 334 170 348 188 z m 160 160 q 160 162 156 163 l 208 214 q 200 214 193 211 q 186 208 179 204 q 165 196 148 190 q 140 190 122 176 q 103 163 103 155 l 156 155 q 160 159 160 160 z m 433 190 q 432 190 430 192 q 429 193 429 194 q 430 198 433 202 q 436 207 437 208 q 437 209 436 212 q 434 214 433 214 q 413 206 379 180 q 373 176 366 170 q 359 165 350 159 l 371 160 q 382 160 390 160 q 397 159 405 155 q 408 167 416 177 q 423 187 433 190 z m 441 183 q 432 169 420 169 q 420 163 430 161 q 440 159 441 159 z"},"a":{"x_min":0,"x_max":500,"ha":500,"o":"m 484 76 q 502 75 510 72 q 517 68 517 55 q 517 49 515 36 q 513 22 513 -10 l 509 -15 l 461 -15 q 457 -20 440 -20 q 425 -20 414 -20 q 403 -19 390 -15 q 379 -12 360 5 q 358 7 351 12 q 344 18 338 21 q 333 24 327 24 q 313 12 279 -4 q 245 -19 225 -19 q 181 -19 146 -11 q 140 -10 120 -6 q 101 -3 86 4 q 71 12 65 24 q 50 53 43 73 q 36 93 31 122 q 25 130 25 139 q 25 180 38 201 q 51 222 78 244 q 91 254 104 267 q 129 288 158 296 q 186 305 222 305 l 245 303 q 262 303 271 301 l 271 310 q 271 339 268 353 q 265 367 253 375 q 241 383 213 383 q 183 383 160 376 q 137 368 99 350 q 87 343 82 343 q 76 343 73 348 l 74 361 q 74 374 70 400 q 65 422 65 439 q 65 454 86 464 q 106 474 124 476 l 202 492 q 208 491 217 488 q 226 485 231 484 q 239 483 266 478 q 294 473 316 466 q 338 458 360 447 q 385 417 402 362 q 419 307 419 267 q 419 258 417 248 q 415 238 414 234 q 409 217 409 203 q 409 191 412 178 q 416 164 421 151 q 433 116 435 100 q 442 85 454 81 q 465 77 484 76 z m 138 429 q 170 438 211 463 q 203 467 193 467 q 187 464 174 458 q 160 451 150 444 q 141 437 138 429 z m 195 425 q 200 430 218 441 q 236 452 239 454 q 237 455 231 456 q 225 458 222 459 q 217 459 206 445 q 195 431 195 425 z m 93 421 q 96 421 120 436 q 143 450 143 456 q 138 456 116 450 q 94 445 86 442 q 86 441 88 440 q 89 438 91 438 q 90 437 88 436 q 86 434 86 430 q 86 425 88 423 q 91 421 93 421 z m 244 438 l 248 437 q 255 437 260 443 q 265 449 265 455 q 258 455 252 450 q 246 445 244 438 z m 300 433 q 297 431 292 424 q 287 418 285 415 q 276 399 270 396 l 273 394 l 334 421 q 334 420 336 418 q 337 416 338 416 q 340 417 342 418 q 345 420 346 421 q 346 425 322 438 q 297 450 292 450 l 282 450 l 244 425 l 240 416 q 248 422 266 428 q 283 434 293 434 z m 240 441 q 190 411 184 411 l 175 411 q 172 414 172 417 q 172 422 180 429 q 187 436 189 438 l 184 438 l 146 416 l 140 417 q 131 417 118 412 q 115 411 108 409 q 100 407 95 407 l 95 369 q 109 373 133 385 q 151 394 164 398 q 176 403 191 403 l 202 402 z m 261 411 q 259 411 248 410 q 237 408 235 402 q 238 399 244 399 q 250 399 256 402 q 261 406 261 411 z m 351 411 l 342 408 q 346 407 346 402 q 346 399 345 397 q 344 395 344 393 l 334 395 q 333 394 322 384 q 311 375 311 373 q 319 375 337 382 q 355 388 360 393 q 359 395 356 402 q 354 408 351 411 z m 334 402 l 329 403 q 323 403 300 394 q 278 386 278 382 q 278 373 286 373 q 294 377 310 387 q 327 397 334 402 z m 345 359 q 344 359 343 360 q 342 360 342 360 l 346 369 q 346 370 344 372 q 343 373 342 373 q 327 364 312 362 q 296 359 295 357 q 295 351 300 342 q 304 334 306 334 q 309 337 320 344 q 330 352 334 352 q 336 351 338 350 q 341 348 342 348 q 333 348 333 340 l 334 335 q 339 339 346 342 q 353 345 358 345 q 359 345 361 340 q 363 335 363 331 q 353 323 336 310 q 318 298 309 292 q 321 292 333 295 q 349 297 357 297 q 367 297 371 292 q 365 282 354 279 l 354 285 q 323 285 312 279 q 309 278 294 264 q 280 251 276 251 q 273 251 273 254 q 274 254 276 258 q 278 261 279 262 q 236 244 219 224 q 245 241 270 241 q 272 241 276 240 q 279 239 282 237 q 290 238 316 250 q 348 266 360 266 q 362 265 373 264 q 384 262 384 259 q 384 253 381 250 q 378 246 370 240 q 361 235 360 228 q 362 229 367 229 q 376 229 380 224 q 387 232 388 242 q 390 252 390 267 q 390 285 383 326 q 376 366 370 366 q 368 366 364 362 q 361 359 345 359 z m 331 326 q 327 325 308 318 q 290 310 290 306 q 290 304 292 302 q 293 300 294 300 q 305 300 326 312 q 347 323 354 335 q 353 334 331 326 z m 194 292 q 173 289 160 282 q 147 274 124 259 l 166 276 q 168 277 181 282 q 194 288 194 292 z m 184 256 q 190 256 204 264 q 223 274 240 280 q 257 285 282 285 q 263 291 241 291 q 199 291 184 256 z m 108 89 q 127 103 133 111 l 121 111 q 135 118 142 128 q 149 137 157 154 q 163 168 172 181 q 180 192 211 216 q 208 217 206 220 q 203 222 202 224 q 206 230 225 249 q 234 256 244 267 q 224 261 199 246 q 174 232 163 220 q 155 211 141 203 q 127 194 121 186 q 130 186 133 181 q 140 191 151 199 q 162 207 172 207 q 173 207 174 204 q 176 202 176 200 q 172 196 154 184 q 130 166 130 165 l 124 173 l 108 165 l 119 165 q 119 164 120 163 q 121 162 121 160 q 117 157 111 154 q 105 151 102 148 q 99 144 99 139 l 118 147 q 122 147 124 143 q 138 159 149 159 q 149 152 136 142 q 123 131 101 116 q 72 96 65 88 q 69 88 82 96 q 94 103 112 114 q 112 108 107 104 q 102 99 92 93 q 71 80 69 71 q 69 70 72 64 q 74 58 78 58 q 80 67 88 74 q 95 81 108 89 z m 73 186 l 86 180 q 90 180 100 188 q 109 195 112 198 q 124 206 131 212 q 138 217 144 225 q 148 231 163 246 l 167 237 l 172 259 q 160 259 136 248 q 112 237 86 220 q 87 216 91 216 l 98 217 q 98 212 92 202 q 87 192 80 192 q 76 192 73 195 z m 332 228 q 334 228 336 224 q 337 221 338 220 q 340 227 347 236 q 354 244 360 246 q 344 246 324 237 q 305 228 305 214 q 311 214 318 221 q 326 228 332 228 z m 286 169 l 287 193 q 287 221 270 221 q 251 221 228 205 q 206 189 190 166 q 175 142 175 122 q 175 98 186 91 q 197 84 216 84 q 236 84 256 92 q 277 99 286 114 l 287 141 z m 312 190 q 312 170 316 160 l 360 203 l 363 216 q 357 214 344 211 q 330 208 321 204 q 312 199 312 190 z m 380 184 q 380 201 376 203 q 373 203 366 200 q 360 198 360 194 q 360 192 363 190 l 342 165 q 351 165 366 170 q 380 176 380 184 z m 59 145 l 60 135 q 83 143 83 152 q 73 152 73 158 q 73 161 76 164 q 79 167 79 170 q 71 170 65 160 q 59 149 59 145 z m 384 165 l 384 169 l 376 165 z m 338 155 q 328 152 316 152 l 316 130 q 323 138 332 142 q 340 146 348 148 q 357 151 360 152 l 360 157 q 352 157 338 155 z m 363 143 l 373 143 q 381 143 386 146 q 390 148 390 156 q 374 153 363 143 z m 371 118 q 390 134 391 135 l 356 127 q 327 121 321 117 q 315 113 315 100 l 315 88 q 331 89 342 96 q 354 103 371 118 z m 92 130 q 87 123 72 116 q 58 110 57 109 l 60 100 q 66 101 78 113 q 91 125 92 130 z m 390 117 l 393 126 q 388 124 378 115 q 367 106 363 100 q 367 102 375 106 q 383 110 390 110 l 393 109 l 398 91 l 363 75 l 363 71 q 366 72 371 73 q 376 74 380 75 l 390 74 q 390 72 392 68 q 393 65 393 63 q 393 60 384 55 q 376 50 376 46 q 377 46 389 51 q 401 56 435 71 q 430 76 421 84 q 412 91 406 99 q 401 107 401 116 l 402 122 q 400 122 396 120 q 391 117 390 117 z m 160 70 q 160 76 153 77 q 146 78 146 82 q 146 83 148 86 q 149 88 150 88 l 141 105 l 125 91 q 107 77 107 71 l 108 66 q 114 69 121 71 q 128 73 133 79 q 133 71 128 66 q 122 62 112 57 q 100 51 95 46 q 90 41 90 32 l 91 28 q 95 25 101 22 q 107 20 112 19 q 124 19 142 38 q 160 58 160 70 z m 390 100 q 384 99 371 88 z m 346 79 q 338 74 324 71 q 310 68 300 68 l 300 85 q 296 88 290 88 q 278 88 266 77 q 253 66 242 54 q 232 41 231 41 q 238 41 258 54 q 277 67 286 75 q 292 73 292 65 q 253 32 211 7 l 231 6 q 252 6 276 16 q 300 25 312 41 q 316 46 319 52 q 322 57 329 62 q 333 65 336 66 q 340 67 342 70 q 343 72 346 79 z m 198 16 q 198 18 196 20 q 194 22 194 23 q 200 23 214 38 q 229 52 229 58 q 226 58 220 56 q 213 55 205 55 q 205 61 206 61 q 204 61 196 64 q 188 66 182 66 q 172 66 162 54 q 153 43 150 32 q 157 36 169 36 l 180 36 q 178 35 172 29 q 166 23 163 19 q 163 13 166 12 q 168 10 174 10 q 184 10 189 16 l 189 7 q 190 7 194 10 q 197 14 198 16 z m 449 38 q 451 38 460 46 q 468 53 471 55 q 469 57 460 61 q 452 65 451 66 q 454 60 454 55 q 454 52 452 47 q 450 42 449 38 z m 368 58 q 367 58 356 55 q 346 52 346 45 q 346 36 353 36 q 354 36 360 45 q 366 54 368 58 z m 492 55 q 484 55 453 26 q 438 11 432 7 l 483 7 q 486 7 488 26 q 491 45 492 55 z m 405 6 l 437 39 q 440 42 440 47 q 440 52 437 52 q 419 48 412 37 q 405 26 405 6 z m 393 32 l 371 24 q 372 23 375 20 q 378 16 384 16 z"},"L":{"x_min":0,"x_max":477,"ha":477,"o":"m 461 132 l 461 25 q 461 15 454 8 q 447 2 440 2 l 387 4 q 346 4 328 1 l 304 0 q 304 2 275 4 l 223 8 q 202 8 181 2 q 160 -4 160 -5 q 143 -5 121 0 q 95 4 83 4 q 83 23 79 63 q 75 105 75 127 q 75 127 76 131 q 76 135 76 151 q 76 175 75 196 l 70 201 l 70 365 q 65 395 65 418 q 65 440 70 446 l 70 539 q 67 541 67 556 l 67 571 q 67 602 62 623 l 59 627 q 59 637 90 644 q 121 650 175 650 q 183 650 188 646 q 193 641 193 635 q 193 624 190 609 q 183 572 183 539 q 183 538 181 504 q 179 471 175 446 l 181 441 l 181 321 q 187 310 192 272 q 196 233 197 224 q 202 176 206 150 q 210 125 216 119 q 220 117 226 115 q 232 113 236 112 l 272 113 q 314 116 388 116 q 392 117 398 118 q 405 119 409 119 q 428 120 437 124 q 446 128 447 142 q 452 142 456 140 q 461 137 461 132 z m 160 631 q 154 631 136 624 q 119 617 119 615 l 119 611 l 155 623 l 160 619 z m 86 598 q 96 609 108 616 q 119 622 127 627 l 95 627 q 92 627 89 618 q 86 608 86 598 z m 147 607 l 152 602 l 133 588 q 114 573 99 567 l 107 566 q 113 566 122 570 q 132 574 138 574 q 143 574 148 570 q 152 567 152 563 q 152 553 142 546 q 132 539 115 532 q 107 529 101 525 q 95 521 95 518 l 95 514 l 105 514 q 105 510 98 506 q 90 501 90 494 q 90 490 92 486 q 95 482 97 481 q 105 481 120 493 q 134 505 138 511 l 115 511 l 115 518 l 151 518 l 152 514 l 147 503 q 143 499 128 489 q 113 479 107 474 q 107 472 104 470 q 101 469 99 469 l 99 463 l 147 463 l 147 449 q 134 443 117 428 q 100 413 99 410 q 106 412 120 414 q 135 415 146 418 q 156 422 160 429 q 155 445 155 471 q 155 477 160 478 q 159 483 159 492 q 159 509 163 541 q 167 575 167 589 q 167 591 163 595 q 165 600 166 610 q 167 619 167 623 q 158 610 147 607 z m 86 574 q 112 574 135 607 q 125 607 112 596 q 111 595 103 590 q 95 585 86 585 z m 95 526 q 99 530 104 534 q 108 537 110 539 l 116 538 q 121 538 131 549 q 141 560 147 563 q 139 563 114 557 q 90 551 90 546 q 90 541 92 535 q 93 529 95 526 z m 116 439 q 130 448 135 455 q 113 455 102 451 q 90 447 90 434 q 90 419 95 413 q 95 421 100 426 q 104 431 109 434 q 114 438 116 439 z m 152 406 q 148 403 125 386 q 102 370 102 364 q 113 364 133 372 q 124 360 95 345 l 95 273 q 100 278 109 286 q 118 294 119 293 l 123 288 q 132 301 155 317 q 147 317 140 315 q 132 313 129 312 q 117 307 106 307 q 106 309 104 312 q 103 314 103 316 q 103 325 143 356 l 160 370 q 157 370 150 366 q 144 361 138 361 l 135 362 q 139 374 155 378 l 155 411 q 132 411 109 406 q 86 400 86 385 q 87 384 89 382 q 91 380 91 377 q 91 379 117 392 q 143 406 152 406 z m 159 344 q 159 351 160 354 q 154 351 152 341 l 147 345 l 127 325 l 127 320 q 135 320 148 324 q 161 328 163 329 q 159 334 159 344 z m 94 230 q 94 211 99 201 l 163 265 l 163 273 q 155 269 149 269 q 149 274 156 276 q 163 279 163 284 q 163 294 153 294 q 140 294 122 282 q 104 269 102 259 q 110 259 120 266 q 130 272 138 272 q 138 259 118 252 q 98 245 95 244 z m 163 249 l 123 212 l 119 212 l 119 204 l 171 228 l 172 235 q 172 249 163 249 z m 99 161 q 105 161 107 156 l 111 161 q 119 161 119 154 q 119 150 114 144 q 109 138 103 135 l 103 107 q 110 107 114 110 q 119 114 125 122 q 131 129 135 132 q 135 126 131 119 q 127 112 127 108 l 146 116 q 165 122 179 132 l 183 124 l 183 153 q 176 153 162 143 q 147 133 144 127 l 144 135 q 179 157 179 164 q 178 163 175 163 q 172 163 168 165 q 165 167 163 168 q 168 175 175 176 l 175 201 q 172 198 166 194 q 159 190 155 188 q 133 176 131 172 l 131 180 q 147 192 167 212 l 161 213 q 146 213 119 196 q 115 194 107 192 q 99 191 99 188 z m 147 164 l 147 160 l 131 152 l 131 160 z m 102 77 q 102 59 110 56 q 115 64 129 78 q 143 92 149 92 l 152 91 l 175 119 q 168 116 149 110 q 130 103 116 94 q 102 86 102 77 z m 152 34 l 144 39 q 145 42 173 64 q 203 86 203 90 l 201 93 q 198 92 192 88 q 186 85 183 84 q 183 87 189 94 q 195 100 196 102 q 195 108 190 112 q 185 116 183 116 q 177 110 162 92 q 147 74 147 71 l 167 84 l 160 71 l 115 43 l 115 48 q 108 42 105 38 q 102 34 102 28 q 102 15 121 15 q 130 15 137 24 q 144 34 152 34 z m 332 34 l 384 87 q 386 89 388 96 q 391 104 392 108 l 384 100 q 379 102 369 102 q 355 102 344 94 q 333 86 321 71 l 316 75 l 328 87 q 321 92 321 100 l 292 100 q 292 101 290 102 q 289 104 287 104 q 286 103 283 101 q 280 99 279 98 l 228 98 q 220 85 206 76 q 193 67 191 65 q 171 53 159 40 q 159 40 160 39 q 162 38 164 38 q 169 38 171 43 q 171 33 147 23 l 147 18 q 177 18 194 26 q 211 35 235 55 q 246 66 264 79 q 260 79 236 71 q 242 79 254 84 q 266 90 276 90 l 276 84 q 258 63 248 52 q 237 42 230 37 q 223 32 223 27 l 279 27 l 276 31 l 276 41 q 280 41 282 46 q 285 52 289 52 q 291 52 292 50 q 294 49 296 48 q 302 48 310 52 q 317 55 321 59 l 321 51 q 319 48 306 42 q 292 37 287 27 l 324 23 q 326 23 328 28 q 330 32 332 34 z m 441 105 l 429 105 q 415 105 408 102 q 401 100 401 91 l 353 39 l 425 79 q 431 83 436 90 q 441 98 441 105 z m 436 47 q 436 50 438 54 q 440 59 440 63 q 440 75 432 75 l 356 31 l 353 23 q 361 27 375 27 q 391 27 407 25 q 421 23 429 23 q 434 23 437 28 q 440 33 440 39 q 439 40 438 42 q 436 44 436 47 z m 313 69 q 313 64 310 61 q 307 58 303 55 q 300 55 296 59 q 301 69 313 69 z"},"3":{"x_min":0,"x_max":528,"ha":528,"o":"m 483 238 q 483 167 450 104 q 416 42 357 8 q 334 -5 281 -14 q 228 -22 196 -22 q 174 -22 146 -18 q 118 -13 92 -7 q 56 1 38 4 l 33 4 l 30 34 q 30 40 33 48 q 36 56 38 60 l 64 137 q 97 137 142 128 q 148 127 173 123 q 198 119 222 119 q 265 119 302 129 q 339 139 339 171 q 339 206 330 234 q 322 262 301 288 q 288 304 262 310 q 236 315 195 317 q 157 319 140 322 q 124 326 124 339 l 124 344 q 128 352 131 371 q 138 398 143 412 q 148 426 155 426 q 159 426 169 421 q 179 416 190 416 q 236 416 275 436 q 314 455 314 490 q 314 511 291 535 q 268 559 254 568 q 241 573 198 573 q 175 573 162 572 q 149 570 129 564 q 121 561 110 556 q 100 550 97 550 q 83 550 83 555 l 83 602 q 80 602 76 604 q 71 605 68 607 q 69 636 86 650 q 102 665 136 679 q 152 685 159 689 l 191 687 q 250 683 293 676 q 336 668 376 642 q 415 617 435 568 q 437 563 442 548 q 448 534 448 520 q 448 500 432 447 q 417 394 405 370 l 405 366 q 430 343 456 304 q 483 265 483 238 z m 104 634 q 114 634 134 649 q 155 664 157 673 q 151 673 125 658 q 99 642 99 636 q 100 634 104 634 z m 131 589 q 169 596 192 607 q 215 618 237 650 l 126 598 q 123 598 122 601 q 120 604 120 607 q 120 612 149 634 q 178 655 189 663 q 176 663 140 643 q 103 623 103 614 q 103 609 106 599 q 110 589 111 585 z m 208 663 q 201 663 184 646 l 167 632 l 172 632 q 172 633 232 658 q 219 663 208 663 z m 275 655 q 271 655 250 640 q 230 625 228 620 l 232 620 l 284 641 q 283 650 281 652 q 279 655 275 655 z m 337 638 q 322 633 306 622 q 290 610 280 599 l 284 599 l 353 627 q 354 629 354 632 q 354 638 337 638 z m 307 637 q 301 634 274 625 q 234 613 219 599 q 224 597 232 596 q 240 594 247 594 q 260 594 272 604 q 285 614 294 624 q 304 634 307 637 z m 377 612 q 366 612 346 598 q 327 584 318 573 q 332 576 356 586 q 379 595 388 599 q 387 600 384 606 q 381 612 377 612 z m 353 611 l 344 611 q 339 611 308 598 q 278 585 278 582 q 283 582 289 579 q 295 576 299 576 q 299 579 353 611 z m 318 546 q 329 546 344 557 q 358 568 369 581 l 313 555 q 314 553 316 550 q 317 546 318 546 z m 398 576 q 385 576 364 560 q 342 544 331 529 q 346 536 368 542 q 389 547 401 547 q 413 547 413 542 q 413 533 403 526 q 393 519 373 509 q 354 499 346 494 q 339 489 339 482 q 347 483 353 485 q 359 487 363 488 q 381 495 391 495 q 410 495 410 486 q 410 480 368 456 q 325 431 322 430 q 334 430 358 440 q 363 441 374 445 q 385 449 393 449 q 403 449 409 443 q 411 446 416 458 q 421 469 426 484 q 430 500 430 514 q 429 520 424 534 q 418 549 411 562 q 404 576 398 576 z m 344 503 q 353 512 368 517 q 372 520 377 522 q 382 525 388 529 l 383 530 q 373 530 356 524 q 339 518 339 510 q 339 508 344 503 z m 339 451 q 359 468 391 482 l 388 482 q 377 482 357 474 q 337 467 337 457 q 337 453 339 451 z m 206 344 q 229 361 250 372 q 272 383 309 399 q 358 419 391 439 q 317 417 270 398 q 223 378 172 344 z m 322 301 q 337 307 363 330 q 366 333 372 338 q 379 343 383 344 q 381 349 374 349 q 369 349 359 346 q 349 342 342 342 q 364 356 384 384 q 403 411 409 434 q 399 434 324 398 q 250 361 245 352 q 256 352 272 358 q 288 364 303 372 q 343 392 362 392 q 365 392 370 390 q 375 389 375 385 q 375 378 366 372 q 356 366 337 357 q 325 351 314 344 q 303 338 300 333 q 301 334 308 337 q 315 340 331 344 l 331 335 l 306 318 l 306 314 q 308 312 312 308 q 317 304 322 301 z m 149 351 q 170 352 199 368 q 228 385 238 401 q 203 401 179 392 q 155 382 149 351 z m 353 378 l 249 340 l 249 335 q 251 334 260 332 q 268 331 272 331 q 276 331 278 332 q 281 334 284 340 z m 465 236 q 457 270 436 299 q 415 328 396 340 q 390 341 362 316 q 334 292 334 286 q 349 286 369 295 q 394 304 405 304 l 409 295 l 344 275 l 370 269 q 368 267 364 260 q 360 254 360 251 q 360 249 362 249 l 426 271 q 439 271 439 262 q 439 258 430 250 q 422 242 411 234 q 378 210 370 197 q 378 200 384 202 q 389 205 393 207 q 412 215 424 218 q 436 222 454 222 q 454 212 449 206 q 444 201 433 194 q 427 190 421 186 q 415 181 413 174 l 438 174 l 439 169 q 439 151 362 122 q 357 120 348 116 q 339 113 339 112 l 344 112 l 413 133 q 422 133 422 124 q 422 109 401 96 q 380 82 345 65 q 338 61 331 58 q 324 55 318 51 q 308 45 296 36 q 284 26 284 25 l 280 12 q 334 12 374 46 q 414 81 437 132 q 460 184 465 236 z m 430 262 q 407 257 382 248 q 357 239 357 236 q 356 235 356 233 q 356 229 358 224 q 360 220 362 219 q 382 225 401 236 q 420 248 430 262 z m 401 187 q 418 194 428 200 q 437 206 443 215 q 428 215 415 208 q 402 201 399 200 q 380 188 365 185 l 365 163 q 370 170 380 176 q 390 182 401 187 z m 357 133 q 371 133 386 140 q 402 148 406 159 q 396 159 376 151 q 357 143 357 133 z m 64 86 l 68 81 l 133 103 l 137 107 q 115 117 85 120 q 80 115 72 102 q 64 89 64 86 z m 317 60 q 352 76 374 90 q 396 103 409 120 l 326 84 l 286 62 q 245 39 218 28 q 190 16 155 12 l 159 8 l 249 8 q 249 22 265 32 q 281 43 317 60 z m 107 12 q 126 12 153 22 q 180 32 189 46 q 167 43 142 35 q 138 34 120 30 q 103 25 82 25 q 72 25 72 31 q 72 34 84 40 q 97 46 97 51 q 97 56 109 60 q 121 65 130 68 q 140 70 145 71 q 161 74 167 77 q 172 78 182 84 q 193 90 199 90 q 202 90 206 86 q 206 75 196 71 q 186 67 165 64 q 145 62 134 58 q 124 53 124 42 q 133 49 144 52 q 156 54 174 56 q 178 57 190 58 q 202 60 211 64 q 216 66 224 72 q 233 78 241 82 q 249 86 258 86 l 245 72 q 264 72 288 82 q 311 91 324 102 q 321 100 299 99 q 277 98 266 98 l 163 98 q 51 61 51 38 q 51 35 52 30 q 54 24 56 21 z"},";":{"x_min":0,"x_max":278,"ha":278,"o":"m 55 373 q 55 384 60 406 q 64 422 64 429 q 64 441 56 445 l 64 447 q 119 444 146 444 q 149 444 158 440 q 166 437 177 437 l 195 438 q 207 438 212 433 q 217 428 217 411 q 217 402 212 402 l 213 353 q 213 332 208 324 q 203 315 190 312 q 176 309 137 305 l 108 302 q 106 307 99 307 q 98 307 88 302 q 77 298 72 298 q 71 298 68 300 q 66 302 61 302 q 57 321 56 338 q 55 355 55 373 z m 75 402 q 75 395 78 384 q 82 387 111 401 q 145 414 151 423 l 151 428 l 77 428 q 77 421 76 415 q 75 409 75 402 z m 148 409 q 133 402 119 394 q 105 387 104 382 q 112 386 144 394 q 163 398 180 403 q 196 408 196 413 q 196 415 194 419 l 172 428 l 168 419 z m 82 337 q 87 340 102 349 q 117 358 134 367 q 138 370 150 373 q 161 376 170 380 q 179 383 182 389 l 172 390 q 162 390 124 378 q 85 366 78 358 q 78 353 80 346 q 82 338 82 337 z m 90 324 q 99 328 102 328 q 103 328 104 328 q 106 327 109 327 q 142 327 164 339 q 187 351 187 376 l 172 370 q 89 333 90 324 z m 88 -40 q 97 -20 97 -5 q 97 8 89 13 q 81 18 81 19 l 81 94 q 75 94 75 101 l 76 116 q 76 127 68 129 q 78 141 88 141 q 92 141 98 138 q 104 136 107 136 q 112 136 128 138 q 170 141 195 141 q 211 127 211 94 q 211 85 210 76 q 209 68 209 59 q 209 49 212 38 q 212 24 209 9 q 206 -6 198 -9 l 193 -5 l 193 -17 q 151 -63 136 -79 q 120 -95 118 -96 q 115 -96 102 -90 q 89 -83 84 -80 l 80 -72 q 80 -62 88 -40 z m 143 105 q 146 110 148 112 q 151 113 156 113 q 162 113 163 109 q 164 110 168 114 q 173 117 173 121 l 120 121 q 113 117 107 117 q 103 117 102 118 q 100 120 100 125 l 100 105 z m 153 82 q 175 87 192 87 q 192 90 190 98 q 187 106 187 109 l 148 89 l 143 90 q 141 90 138 88 q 136 86 135 86 q 130 86 127 92 q 124 98 118 98 q 109 98 104 96 q 99 94 99 87 q 99 86 99 84 q 99 82 100 81 q 101 83 104 86 q 108 88 108 89 q 112 89 112 86 l 115 78 q 127 78 153 82 z m 96 30 l 102 29 q 108 29 118 34 q 128 40 132 46 q 127 46 122 44 q 118 42 115 42 q 130 49 150 61 q 171 73 171 74 l 163 74 q 158 73 112 66 l 108 70 q 105 66 102 48 q 99 31 96 30 z m 156 45 q 158 45 159 46 l 183 58 l 183 66 q 181 65 172 60 q 164 54 159 54 q 157 54 154 55 q 152 56 151 58 l 151 54 q 151 45 156 45 z m 167 19 q 173 23 178 30 q 184 36 184 39 q 150 39 150 24 q 164 24 167 19 z m 111 -6 q 113 -6 122 0 q 132 5 135 6 q 128 6 126 15 q 125 24 121 24 q 121 19 116 9 q 111 -1 111 -6 z m 115 -33 q 115 -28 122 -24 q 129 -21 142 -17 q 161 -12 170 -7 q 180 -2 180 9 q 180 10 180 12 q 180 13 179 14 l 167 6 l 163 11 q 158 3 150 -3 q 143 -9 140 -9 q 139 -9 137 -8 q 135 -6 135 -5 q 132 -12 122 -14 q 111 -16 108 -21 q 115 -26 115 -33 z m 112 -73 q 113 -73 114 -72 q 115 -72 115 -72 l 151 -29 l 148 -21 q 147 -27 142 -30 q 136 -34 129 -34 q 125 -34 124 -33 q 122 -36 112 -42 q 101 -49 100 -56 q 100 -63 103 -68 q 106 -73 112 -73 z"},"J":{"x_min":0,"x_max":281,"ha":281,"o":"m 44 -51 q 50 -51 52 -54 q 53 -58 54 -59 q 57 -55 64 -50 q 71 -44 74 -40 q 77 -36 77 -28 l 77 87 q 74 87 72 100 q 69 113 69 120 q 69 123 73 127 q 65 129 65 147 q 65 161 68 165 q 70 169 74 170 q 79 170 79 176 q 79 183 74 194 q 69 204 68 206 q 68 220 73 225 q 72 228 72 246 q 72 262 76 274 q 81 286 81 293 l 73 288 l 77 304 q 77 306 74 310 q 72 314 72 318 q 72 320 74 324 q 77 328 77 330 q 75 330 72 334 q 69 339 69 345 q 69 357 71 364 q 73 371 73 375 q 73 376 72 378 q 71 379 69 379 q 73 379 73 387 l 65 383 l 64 410 q 64 438 73 442 l 69 446 q 69 486 70 511 q 72 536 77 568 q 87 595 87 605 q 87 612 84 618 q 80 623 80 627 q 80 630 81 635 q 82 640 85 640 l 187 640 q 194 640 201 637 q 208 634 211 628 q 208 626 204 622 q 200 618 200 616 q 200 608 206 595 q 211 582 211 576 q 211 548 209 498 q 207 450 207 426 q 207 405 212 378 q 216 344 216 329 q 216 303 210 253 q 203 208 203 176 q 203 145 205 85 q 207 21 207 -14 q 207 -82 169 -118 q 131 -154 73 -154 l 65 -154 q 37 -154 27 -151 q 17 -148 13 -134 q 9 -121 9 -87 l 7 -67 q 7 -51 44 -51 z m 89 379 l 112 402 q 115 401 138 420 q 160 439 160 442 l 145 442 q 146 446 152 448 q 157 450 163 450 q 166 450 169 448 q 172 446 172 444 q 172 434 160 422 q 148 410 138 410 q 134 410 127 402 q 120 395 112 391 l 112 386 q 119 386 164 401 q 180 407 184 407 l 184 474 q 185 475 186 478 q 187 480 187 482 q 187 486 184 490 q 179 483 153 467 q 143 461 134 454 q 125 448 124 444 l 140 444 q 135 439 128 434 q 120 430 114 430 q 112 430 110 432 q 109 435 109 438 q 109 436 108 432 q 106 428 104 426 q 104 442 114 450 q 123 459 141 468 q 158 477 167 484 q 176 492 179 505 q 164 495 140 487 q 115 479 97 479 q 97 489 110 502 q 124 514 140 526 q 157 539 164 545 l 164 549 l 137 541 l 137 545 q 137 551 156 555 q 174 559 183 559 q 183 550 170 538 q 158 527 135 509 q 117 497 112 490 q 122 494 133 498 q 144 501 152 505 l 152 501 q 173 509 182 517 q 191 525 193 534 q 195 544 195 563 q 195 571 185 595 q 177 613 176 620 q 171 619 171 610 q 171 605 172 604 q 159 588 133 570 q 107 550 96 537 l 103 536 q 107 536 110 537 q 112 538 115 538 q 119 538 121 537 q 121 536 106 530 q 91 523 85 517 l 89 513 q 89 480 87 454 q 85 436 85 426 q 85 417 86 402 q 87 388 89 379 z m 121 574 q 147 594 160 608 q 151 608 142 601 q 132 594 127 594 l 126 599 q 126 600 132 604 q 137 608 137 612 q 137 617 134 618 q 132 620 124 620 q 124 614 121 612 q 118 609 109 607 q 100 605 100 596 l 96 553 z m 101 28 q 108 44 116 52 q 125 61 139 70 q 158 81 168 95 l 164 95 q 158 92 138 86 q 119 79 114 79 q 114 89 138 96 q 161 103 184 107 l 184 142 q 175 134 162 126 q 150 119 140 119 q 141 121 144 126 q 148 130 152 130 l 172 150 l 137 150 q 137 156 142 158 q 148 160 159 161 q 161 161 168 162 q 176 163 179 166 l 178 179 q 178 196 184 202 l 168 194 l 167 197 q 167 198 177 208 q 187 219 187 241 q 187 242 186 243 q 185 244 184 244 q 178 239 164 233 q 151 226 144 220 q 136 214 132 205 q 142 205 156 211 q 170 217 176 217 l 176 213 q 173 211 166 208 q 159 205 156 205 l 112 186 l 109 190 q 107 190 130 213 q 142 225 145 229 q 150 238 166 247 q 178 252 184 260 q 189 267 189 288 l 182 288 q 181 290 181 293 q 181 307 186 314 q 192 322 192 332 l 190 360 q 188 385 187 387 l 187 392 q 181 392 148 365 q 114 338 109 332 l 112 331 q 120 331 124 335 q 124 330 118 326 q 113 323 107 321 q 101 319 96 316 l 96 285 q 107 293 130 312 q 153 330 164 340 q 161 342 160 342 q 158 343 158 343 q 158 356 174 356 q 184 356 184 350 q 184 347 152 321 q 119 295 112 291 l 112 286 q 116 286 132 293 q 124 278 96 272 q 88 237 88 169 l 89 142 q 98 156 101 158 q 104 148 117 148 q 123 148 129 150 q 125 144 111 138 q 97 133 93 130 q 93 119 94 108 q 96 97 96 89 q 96 81 93 75 q 95 77 98 78 q 100 79 102 79 q 104 79 104 76 q 104 74 93 63 q 93 57 95 45 q 97 33 101 28 z m 93 363 l 93 332 q 98 333 126 357 q 153 381 156 387 q 148 387 120 378 q 93 368 93 363 z m 172 311 l 176 308 l 164 296 l 160 300 z m 164 280 q 154 270 148 269 q 148 274 152 278 q 155 281 160 281 z m 112 241 q 117 241 127 245 q 137 249 140 249 l 140 244 q 134 240 122 236 q 110 231 104 231 q 104 244 116 257 q 127 270 140 270 l 140 265 z m 167 257 q 167 259 172 264 q 177 269 182 269 q 182 267 176 262 q 171 258 167 257 z m 147 251 q 147 259 152 260 l 160 251 z m 152 186 q 152 194 162 194 q 162 190 159 188 q 156 186 152 186 z m 132 169 q 132 185 145 186 q 145 184 142 178 q 138 173 132 169 z m 104 99 q 108 99 117 106 q 126 114 132 114 l 137 111 q 132 109 124 104 q 115 99 104 99 z m 179 64 l 179 87 q 173 85 160 72 q 147 55 137 55 q 135 55 134 56 q 132 58 132 59 q 129 50 122 45 q 114 40 112 39 l 121 36 q 128 40 138 48 q 148 55 158 60 q 168 64 179 64 z m 160 44 q 152 41 135 36 q 118 32 108 24 q 98 17 98 3 q 110 6 143 26 q 176 45 176 52 q 173 52 168 48 q 162 44 160 44 z m 140 17 q 123 4 112 0 l 133 1 q 140 1 145 0 q 145 5 160 10 q 176 15 179 16 l 184 12 l 184 37 q 173 37 164 32 q 154 27 140 17 z m 69 -119 l 73 -122 q 78 -110 89 -106 q 88 -108 88 -111 q 88 -118 93 -119 q 90 -123 81 -126 q 72 -130 69 -134 q 76 -134 82 -136 q 87 -137 89 -138 q 101 -138 118 -130 q 136 -123 149 -110 q 162 -98 162 -85 q 162 -74 168 -74 l 172 -75 q 175 -70 178 -60 q 180 -49 184 -44 q 164 -58 141 -74 q 118 -89 109 -95 l 109 -91 q 115 -85 122 -79 q 129 -73 132 -71 q 136 -68 155 -56 q 174 -43 176 -39 l 168 -39 q 159 -39 152 -44 q 153 -38 160 -33 q 167 -28 176 -28 q 177 -28 178 -29 q 179 -30 179 -31 q 188 -28 188 -20 l 187 -16 q 182 -20 172 -23 q 161 -26 153 -26 q 153 -18 164 -12 q 176 -6 185 -6 q 185 4 172 4 l 164 4 l 168 -4 l 156 -3 q 143 -3 128 -6 q 114 -10 104 -16 q 99 -19 96 -35 q 92 -51 89 -55 q 109 -47 112 -47 q 105 -56 78 -76 q 50 -95 38 -99 l 38 -134 l 42 -134 l 42 -138 q 51 -136 58 -128 q 64 -119 69 -119 z m 117 -51 q 122 -43 126 -38 q 130 -34 137 -31 q 137 -41 117 -51 z m 34 -91 q 39 -89 46 -84 q 52 -79 57 -79 l 57 -83 q 66 -77 66 -66 q 60 -66 50 -68 q 39 -71 32 -71 q 32 -81 34 -91 z"},"V":{"x_min":0,"x_max":630,"ha":630,"o":"m 609 626 l 609 598 l 561 424 q 551 405 546 384 q 540 363 534 332 q 532 318 526 290 q 524 280 520 268 q 516 255 512 242 q 490 167 490 163 l 470 120 q 471 119 455 82 q 439 45 423 13 q 407 -19 399 -22 q 394 -22 392 -20 q 391 -17 391 -11 q 391 0 395 8 q 399 15 407 28 q 415 39 419 48 q 423 57 423 69 q 420 65 384 39 q 340 7 340 4 l 374 5 q 380 5 380 -2 q 380 -10 358 -14 q 335 -18 320 -18 q 319 -15 316 -15 q 315 -15 309 -18 l 292 -19 q 247 -19 220 8 q 194 35 190 80 l 154 179 q 150 189 140 207 q 126 232 123 243 q 119 249 115 269 q 114 272 112 282 q 110 293 107 293 l 83 361 q 82 367 67 406 l 55 436 q 54 441 42 472 q 30 502 29 511 q 18 544 16 573 q 12 602 8 614 l 9 620 q 9 624 5 625 l 29 629 q 40 625 59 625 l 88 626 q 135 626 135 615 q 135 604 140 594 q 145 585 154 574 q 164 561 169 550 q 174 540 174 526 l 194 464 q 194 458 200 451 q 205 444 206 440 q 225 366 254 292 q 282 219 309 171 q 319 165 322 162 q 325 158 325 151 q 325 140 319 133 q 313 126 301 117 q 290 109 284 103 q 278 97 277 88 q 280 90 289 96 q 298 101 304 107 q 310 113 312 120 l 317 112 q 317 123 354 139 q 373 148 382 154 q 392 161 392 168 q 386 155 352 155 q 342 155 337 159 q 332 163 332 176 q 332 192 342 238 q 352 283 365 322 q 378 360 387 365 l 411 430 l 419 451 l 443 534 q 446 539 452 544 q 459 550 459 554 q 459 562 463 580 q 467 599 470 606 q 470 626 510 626 q 527 626 542 623 q 560 621 571 621 q 578 621 590 624 q 603 626 609 626 z m 40 574 q 42 577 50 589 q 57 601 63 606 q 51 610 32 610 q 32 584 40 574 z m 118 485 q 132 506 134 506 q 134 503 138 500 q 141 496 143 495 q 142 484 136 478 q 131 471 119 460 q 112 454 106 447 q 99 440 96 432 q 107 438 132 448 q 156 459 162 459 l 171 451 q 170 456 162 486 q 154 515 143 550 q 140 558 130 579 q 121 600 119 602 q 115 606 103 606 l 96 606 q 89 606 74 602 q 59 597 59 590 l 60 586 l 68 594 q 68 586 60 576 q 51 566 48 562 q 61 562 74 570 q 86 577 90 577 q 90 566 72 556 q 55 547 44 547 l 44 538 q 44 529 48 523 q 80 538 99 570 q 98 573 98 577 q 98 582 100 583 q 103 584 109 584 q 109 577 110 572 q 111 568 111 565 q 111 558 104 550 q 107 552 113 554 q 119 557 123 558 q 131 558 133 556 q 135 554 135 547 l 72 487 l 76 487 q 82 489 97 494 q 112 499 119 503 l 120 499 q 120 491 96 480 q 73 470 68 467 q 71 455 80 440 q 85 439 96 454 q 108 470 118 485 z m 481 558 q 493 558 505 564 q 517 570 532 582 q 553 596 557 598 q 556 602 551 602 l 536 601 q 530 601 529 606 q 522 601 510 596 q 497 590 490 590 q 489 590 488 591 q 486 592 486 594 q 486 587 484 576 q 481 564 481 558 z m 592 602 q 577 602 564 595 q 551 588 532 574 q 510 557 494 550 l 494 546 q 499 546 510 552 q 521 557 526 558 l 527 555 q 527 546 502 540 q 477 534 467 534 q 447 483 443 451 q 449 451 455 453 q 461 455 462 459 l 518 487 l 522 492 q 513 492 493 486 q 476 479 462 479 q 463 488 468 492 q 472 497 481 502 q 494 509 498 515 l 501 511 q 503 514 527 528 q 570 554 570 559 q 554 559 534 550 l 534 559 q 540 559 546 562 q 553 565 555 566 q 569 574 577 574 q 578 574 580 572 q 581 571 581 570 q 587 572 587 585 l 587 591 q 587 595 588 598 q 589 601 592 602 z m 571 543 q 562 543 550 536 q 538 528 517 513 q 492 494 486 494 l 492 493 q 505 493 520 498 q 536 503 538 504 q 543 506 561 511 q 565 517 568 528 q 570 539 571 543 z m 62 491 q 66 491 88 514 q 110 536 111 542 q 99 542 77 528 q 55 513 55 506 q 55 491 62 491 z m 561 503 l 553 495 l 475 456 q 474 454 458 443 q 441 432 428 416 q 415 399 415 376 q 424 381 426 381 q 428 381 435 376 q 419 376 409 364 q 399 352 399 334 q 404 337 418 337 l 427 337 q 426 337 424 338 q 423 340 423 341 q 423 346 506 396 q 501 396 496 394 q 491 393 486 393 q 491 399 499 404 q 507 409 514 409 q 522 409 526 401 q 529 407 540 428 q 550 450 556 469 q 561 488 561 503 z m 529 450 q 529 436 504 424 q 480 413 478 412 q 478 417 485 422 q 492 427 500 431 q 518 441 518 446 q 513 451 513 458 q 529 458 529 450 z m 96 389 q 99 392 122 410 q 145 429 151 448 l 135 440 l 135 444 q 130 437 112 428 q 102 423 96 418 q 91 414 91 406 l 91 401 q 91 392 96 389 z m 501 444 q 495 443 486 441 q 478 439 474 438 q 474 443 484 446 q 495 448 501 448 z m 135 290 q 138 298 146 304 q 154 311 163 317 q 178 326 186 335 q 194 344 194 357 q 189 352 182 348 q 176 343 174 341 l 171 345 q 166 338 155 332 q 144 326 137 326 q 135 326 132 326 q 129 327 127 329 q 133 337 168 352 q 198 363 198 368 q 198 373 188 408 q 179 444 175 444 q 166 444 143 422 q 120 400 115 389 q 126 391 140 400 q 150 406 158 409 q 165 412 176 412 q 179 412 181 408 q 183 405 183 401 q 183 397 182 396 l 123 334 l 122 330 q 123 328 128 312 q 132 297 135 290 z m 475 417 q 474 408 464 402 q 454 396 445 396 q 445 404 449 407 q 453 410 462 412 q 471 414 475 417 z m 119 337 q 121 346 135 360 q 149 375 153 379 q 175 399 175 404 l 174 409 q 170 408 150 395 q 125 376 109 376 q 107 376 104 378 q 100 379 99 381 l 99 376 z m 526 384 q 526 393 522 393 q 479 366 456 353 q 433 340 431 337 q 443 341 451 341 q 446 333 430 328 q 415 324 411 321 l 407 326 q 406 318 396 310 q 385 303 384 293 q 399 297 414 308 q 428 318 430 318 q 443 323 464 336 q 484 350 486 353 l 490 349 l 494 361 l 486 361 q 489 366 494 366 l 498 365 q 502 367 510 370 q 517 372 522 375 q 526 378 526 384 z m 518 361 q 514 359 498 350 q 483 341 478 334 l 399 290 q 412 290 421 294 q 430 297 439 302 q 448 307 454 310 q 464 315 480 316 q 497 317 506 318 q 513 319 516 334 q 518 348 518 361 z m 206 345 q 200 339 188 326 q 177 313 166 305 q 155 297 146 297 l 143 286 l 162 298 l 213 321 l 219 321 q 219 326 216 336 q 213 345 210 345 z m 171 207 l 234 274 q 226 272 215 266 q 204 261 200 259 q 176 246 167 246 q 158 246 158 252 q 160 257 165 263 q 170 269 174 270 l 174 254 q 184 257 207 272 q 230 286 230 292 q 230 301 226 302 l 182 266 l 182 278 q 182 284 199 295 q 207 299 213 304 q 219 309 219 314 q 210 314 196 308 q 183 301 162 288 q 146 278 138 274 q 140 267 144 249 q 148 231 154 219 q 161 207 171 207 z m 506 302 q 504 302 493 293 q 482 284 478 282 l 494 314 q 447 290 379 274 l 376 270 q 373 263 369 248 q 365 232 363 223 l 368 223 q 379 234 396 242 q 413 251 419 254 q 426 258 444 272 q 461 285 469 285 q 469 281 470 280 q 470 278 470 278 q 470 275 464 271 q 459 267 454 264 q 448 262 445 260 q 415 247 411 238 l 407 243 q 404 233 392 224 q 379 215 368 211 l 379 211 q 374 207 360 203 l 360 177 q 361 178 380 189 q 400 200 415 211 q 416 211 418 210 q 419 208 419 207 q 422 214 427 218 q 432 221 441 225 q 451 229 456 233 q 461 237 462 246 q 451 243 439 231 l 439 235 q 436 234 430 230 q 425 227 423 227 q 418 227 415 231 q 416 235 423 235 l 462 254 l 467 255 q 470 255 472 253 q 475 251 475 248 q 475 232 450 214 q 424 196 403 191 q 389 187 378 177 q 368 167 366 167 q 378 167 389 172 q 400 177 417 188 q 433 198 443 203 l 443 199 q 472 211 484 230 q 497 250 497 282 l 501 282 q 501 292 506 302 z m 237 254 q 184 223 179 199 l 241 231 q 245 233 245 238 q 245 243 244 246 q 242 250 237 254 z m 411 231 l 412 227 q 412 221 402 218 q 393 215 387 215 q 393 223 411 231 z m 206 112 q 210 124 220 138 q 230 153 237 156 l 241 156 q 245 160 257 168 q 269 177 273 183 q 264 183 255 179 q 246 175 238 170 q 227 163 219 160 q 211 156 202 156 l 206 163 l 198 160 q 200 169 210 180 q 219 192 235 208 q 239 212 244 218 q 250 224 251 226 q 244 223 222 209 q 188 187 178 186 q 178 182 190 152 q 201 123 206 112 z m 262 215 q 254 209 242 200 q 229 191 218 179 q 219 178 222 177 q 224 176 226 176 q 229 176 249 186 q 253 188 258 190 q 263 193 269 195 z m 478 207 q 458 197 424 173 q 382 146 371 140 q 384 140 395 144 q 390 137 377 132 q 364 127 360 124 l 343 109 q 328 94 316 86 q 305 77 293 77 q 301 86 313 93 q 319 97 326 103 q 332 109 336 116 q 327 113 298 96 q 268 79 265 73 l 273 65 l 286 77 l 286 61 l 317 79 q 325 84 348 98 q 372 112 372 114 l 371 118 q 371 123 376 124 q 377 120 383 120 l 387 120 q 385 120 384 123 q 384 126 383 126 q 383 131 392 134 q 402 138 403 144 l 454 179 l 457 180 q 463 178 463 173 q 461 171 404 120 l 387 104 q 395 108 399 108 l 387 96 l 384 104 q 383 104 377 91 q 371 78 348 73 l 348 81 q 354 81 360 88 q 367 94 371 94 l 371 101 l 285 53 q 281 48 264 42 q 252 38 246 34 q 240 30 240 22 q 240 11 261 6 q 282 2 295 2 l 311 1 q 323 1 332 5 q 331 6 331 9 q 331 17 348 30 q 366 44 385 56 q 404 69 411 73 l 407 73 l 364 53 q 360 51 337 39 q 309 21 293 21 q 296 24 300 29 q 303 34 304 37 q 313 41 321 44 q 329 48 336 51 q 372 66 394 76 q 415 86 435 101 q 445 113 457 143 q 465 163 470 171 q 470 173 474 186 q 478 198 478 207 z m 281 176 q 254 159 226 128 q 233 134 255 144 q 285 159 285 163 q 285 168 281 176 z m 226 57 q 230 65 242 76 q 254 86 257 89 q 289 115 289 125 q 286 125 261 106 q 236 86 234 80 q 226 83 221 88 q 222 89 230 100 q 238 112 245 112 q 246 112 248 111 q 251 110 252 108 l 252 126 q 255 126 272 135 q 289 144 289 148 l 289 152 q 279 150 270 144 q 262 139 250 129 q 230 111 216 108 l 216 120 q 214 119 210 112 q 207 106 205 101 q 208 93 216 76 q 223 60 226 57 z m 227 36 q 228 36 242 46 q 257 57 262 61 q 262 62 257 77 q 248 71 248 65 l 253 65 q 245 55 237 53 l 241 61 q 227 54 227 36 z m 340 65 l 323 53 q 297 35 285 21 l 284 28 q 284 38 294 46 q 303 54 316 61 q 329 68 336 73 q 336 66 340 65 z"},"\"":{"x_min":0,"x_max":399,"ha":399,"o":"m 160 672 l 168 641 l 168 556 l 164 542 q 159 528 159 510 q 158 495 156 484 q 154 473 147 460 q 147 454 149 444 q 151 433 151 428 q 151 414 145 390 q 139 366 130 366 q 127 366 123 368 q 119 370 116 370 q 111 366 99 366 q 71 366 64 376 q 56 387 55 409 q 53 432 48 443 q 38 463 38 497 l 39 535 q 39 560 30 603 q 29 608 25 630 q 21 653 21 672 q 28 672 36 673 q 45 674 53 674 q 57 674 70 678 q 83 682 87 682 q 154 682 160 672 z m 358 538 q 354 478 354 448 q 354 438 356 425 q 358 412 358 410 q 358 399 355 387 q 352 375 345 375 l 264 375 q 258 375 256 386 q 254 397 254 406 l 255 432 q 255 457 253 494 q 251 532 250 551 l 247 571 q 238 621 238 633 q 237 634 237 643 q 237 647 238 651 q 240 655 240 659 q 245 663 271 663 l 299 663 q 336 663 345 672 q 355 671 359 656 q 363 642 363 630 q 363 590 358 538 z m 48 638 q 50 621 57 611 q 88 629 116 637 l 110 638 q 100 638 88 633 q 85 632 78 630 q 71 628 65 628 l 57 629 q 59 639 75 646 q 76 647 83 650 q 90 653 95 659 q 90 660 82 662 q 74 663 69 663 l 43 659 q 46 653 48 638 z m 108 655 l 108 650 l 121 655 z m 149 650 l 134 650 l 142 641 q 134 628 102 620 q 86 615 77 610 q 68 606 65 599 q 73 599 95 603 q 121 607 130 607 q 143 607 143 601 q 143 592 118 580 q 92 569 91 568 l 142 564 q 149 590 149 650 z m 262 630 q 278 636 285 646 l 259 650 q 254 650 254 641 q 254 634 262 630 z m 341 633 q 341 639 335 640 q 329 642 318 642 q 293 642 276 620 l 281 620 q 290 621 316 626 q 341 630 341 633 z m 272 568 q 277 571 296 584 q 315 598 319 611 l 308 612 q 294 612 284 610 q 275 607 263 599 q 263 596 266 586 q 268 576 272 568 z m 337 603 l 311 577 q 315 575 322 575 q 332 575 334 582 q 337 589 337 603 z m 65 568 q 78 573 95 582 q 112 592 112 594 l 104 594 q 60 594 60 583 q 60 580 62 576 q 64 571 65 568 z m 332 559 l 322 559 q 307 558 294 557 q 280 556 276 556 l 276 533 q 290 533 308 541 q 325 549 332 559 z m 69 542 l 69 521 q 97 534 121 551 q 118 553 113 554 q 108 556 104 556 q 99 556 86 550 q 73 545 69 542 z m 142 542 q 142 544 141 546 q 140 547 138 547 q 133 547 112 532 q 91 517 86 512 l 95 512 q 115 512 115 504 l 124 504 q 124 494 119 489 q 114 484 102 478 q 84 470 78 460 q 82 454 96 448 q 109 443 116 443 q 120 443 126 462 q 133 482 134 486 l 133 515 q 133 536 142 542 z m 332 525 l 332 542 q 324 540 313 534 q 302 527 302 525 z m 328 504 l 328 509 q 276 509 276 504 l 276 481 q 285 484 302 492 q 320 500 328 504 z m 72 472 q 77 475 88 482 q 98 490 104 495 q 84 500 77 500 q 66 500 65 491 q 65 473 72 472 z m 321 483 q 302 483 302 478 q 308 472 328 472 l 328 483 z m 332 401 q 322 399 319 399 q 298 399 298 420 q 298 432 306 440 q 314 448 328 456 l 328 460 l 276 460 q 276 434 281 396 l 311 395 q 327 395 332 401 z m 104 409 q 111 413 114 417 q 118 421 118 429 q 111 429 98 432 q 86 436 77 436 q 77 426 80 410 q 84 395 91 392 q 91 403 104 409 z m 333 417 q 333 427 328 434 q 322 433 317 428 q 312 424 312 417 z m 118 401 q 105 401 99 392 q 109 387 112 387 q 118 387 118 401 z"},"7":{"x_min":0,"x_max":482,"ha":482,"o":"m 482 676 q 482 659 476 639 q 471 619 460 590 q 448 557 443 534 l 348 310 q 331 285 317 242 q 304 205 296 190 l 283 164 l 262 120 l 245 76 l 231 39 l 219 13 q 217 9 216 0 q 215 -8 213 -13 q 211 -18 205 -21 l 137 -22 q 101 -22 68 -12 q 66 -11 63 -8 q 60 -6 59 -4 q 60 5 73 32 q 86 58 101 88 q 130 144 144 175 q 158 206 158 220 l 193 297 l 236 461 q 239 474 256 502 q 273 529 288 548 q 266 553 221 553 l 172 552 l 167 543 q 162 548 137 552 q 112 557 96 557 q 92 557 86 554 q 80 551 76 551 l 76 555 q 71 555 58 552 q 46 548 40 548 q 27 548 27 595 l 27 673 q 27 676 31 678 q 35 681 38 681 l 189 681 q 202 675 210 673 q 219 671 234 671 l 318 672 q 385 672 447 683 q 465 686 475 686 q 482 686 482 676 z m 55 646 q 60 646 66 647 q 72 648 77 648 q 82 648 85 647 q 94 651 106 652 q 118 654 122 655 q 126 655 134 656 q 143 657 150 659 l 116 658 q 58 658 55 668 z m 101 599 l 102 595 q 120 604 146 609 q 172 614 176 615 l 205 621 q 214 637 223 638 q 218 641 218 644 q 218 647 224 649 q 229 651 229 656 q 217 656 186 644 q 154 633 128 620 q 101 606 101 599 z m 236 633 l 254 642 l 257 641 l 257 633 q 265 636 276 639 q 286 642 292 642 l 292 647 l 248 656 l 245 655 z m 262 607 q 315 607 339 612 q 357 618 388 630 q 420 641 434 647 l 423 647 q 379 647 328 635 q 278 623 262 607 z m 452 647 q 446 637 434 632 q 423 626 402 620 q 378 612 370 607 q 372 607 376 606 q 379 604 382 603 q 385 603 390 604 q 395 606 401 606 l 404 605 q 410 605 419 602 q 428 600 430 599 q 440 599 446 618 q 452 637 452 647 z m 89 612 q 103 624 106 625 l 132 638 l 132 643 q 120 643 88 636 q 55 629 55 624 q 55 617 57 606 q 59 594 62 594 q 69 594 89 612 z m 275 583 q 286 589 296 591 l 222 591 q 222 592 220 594 q 219 596 219 598 q 219 600 224 605 q 228 610 231 612 q 231 613 228 614 q 226 616 224 616 q 218 616 207 599 q 196 582 193 577 q 208 573 236 573 q 249 573 261 578 q 273 582 275 583 z m 197 603 q 179 603 135 591 q 117 586 94 582 q 96 577 114 575 q 133 573 148 573 q 162 573 168 576 q 175 580 183 589 q 191 598 197 603 z m 391 574 l 408 582 q 402 585 378 588 q 355 590 344 591 l 318 577 z m 426 574 l 406 568 q 384 563 370 556 q 371 556 384 554 q 396 552 396 543 q 396 538 383 534 q 370 531 340 525 q 335 524 322 522 q 310 519 305 517 q 319 517 336 514 q 353 511 353 502 q 353 492 304 487 l 283 483 q 294 483 321 472 q 348 462 348 452 q 348 443 338 440 q 327 436 305 433 q 266 429 262 418 q 287 415 307 408 q 327 400 327 389 q 327 385 302 375 q 277 365 254 362 q 255 356 258 354 q 262 353 269 353 q 278 352 292 350 q 307 347 313 345 l 313 327 q 297 321 272 319 q 265 317 249 315 q 254 308 273 304 q 285 302 290 298 q 296 295 296 286 q 296 277 283 273 q 270 269 247 267 q 227 265 216 262 q 205 259 205 252 q 207 250 222 246 q 237 243 248 239 q 258 235 262 228 q 254 214 225 214 q 212 214 202 216 l 197 211 q 213 211 231 203 q 249 195 249 186 q 249 177 221 166 q 193 155 172 155 q 179 150 200 144 q 217 140 228 134 q 228 123 214 118 q 199 114 174 111 l 154 108 q 193 99 210 99 q 226 99 231 117 l 327 332 l 335 362 l 412 526 q 415 530 420 548 q 425 566 426 574 z m 322 550 l 322 558 q 315 558 312 547 q 310 536 309 534 q 329 534 341 536 q 353 537 374 543 q 368 546 344 552 z m 262 435 q 265 438 281 441 q 315 447 330 452 l 313 466 q 306 467 296 471 q 285 475 279 475 q 271 475 266 460 q 262 445 262 435 z m 241 370 q 250 375 272 379 q 298 383 313 393 q 304 405 259 405 q 248 405 244 395 q 241 385 241 370 z m 231 327 q 252 327 266 328 q 279 330 292 336 q 284 342 268 346 q 252 350 239 350 l 236 349 z m 214 270 q 224 270 246 276 q 269 283 280 289 l 275 293 q 274 293 256 298 q 238 302 229 302 q 224 302 219 290 q 214 277 214 270 z m 197 228 l 228 228 l 228 235 l 207 241 q 206 242 204 242 q 201 242 199 238 q 197 233 197 228 z m 180 172 q 191 172 210 176 q 228 179 228 187 q 228 199 202 199 l 189 198 q 182 190 180 172 z m 150 120 q 166 120 202 129 q 199 136 184 140 q 169 143 160 143 z m 132 73 l 202 91 q 174 95 153 95 q 141 95 136 91 q 132 87 132 73 z m 215 79 q 203 78 184 74 q 166 71 158 69 l 154 65 l 168 66 q 196 66 210 56 q 215 69 215 79 z m 115 39 l 176 52 q 171 54 160 54 q 149 55 143 56 q 122 56 115 39 z m 205 47 q 203 47 172 44 q 141 40 141 30 q 143 28 148 24 q 154 21 158 21 q 160 21 168 26 q 177 30 180 30 q 181 30 182 29 q 184 28 184 26 q 180 16 156 16 q 128 16 118 18 q 107 21 102 21 q 100 21 99 19 q 98 17 98 15 q 98 0 141 0 q 173 0 185 10 q 197 19 205 47 z"},"S":{"x_min":0,"x_max":560,"ha":560,"o":"m 534 137 q 534 134 537 130 q 540 127 540 126 q 540 119 532 110 q 524 102 523 100 q 516 90 509 77 q 501 61 494 52 q 478 32 446 17 q 413 2 386 2 q 379 2 362 0 q 345 -2 333 -8 l 322 -9 q 316 -9 310 -5 q 304 -1 293 -1 q 289 -1 282 -3 q 276 -5 273 -6 q 261 -13 248 -13 l 204 -2 q 199 -2 192 -4 q 185 -5 182 -5 q 166 -9 152 -9 q 125 -9 113 -5 q 101 -1 99 0 q 93 4 80 7 q 64 10 64 11 l 61 15 q 59 17 52 81 q 46 145 44 174 q 44 178 48 181 q 51 184 56 184 q 62 184 95 162 q 112 151 129 141 q 146 131 152 131 l 161 136 q 179 136 204 127 q 232 119 245 119 l 272 120 q 317 120 354 133 q 391 146 391 186 q 391 194 386 200 q 380 205 378 208 q 377 211 376 216 q 375 221 374 224 q 360 244 344 252 q 329 260 312 265 q 296 270 290 272 q 294 272 177 306 q 175 306 172 308 q 169 309 166 309 q 115 328 74 366 q 33 404 33 451 q 33 465 35 472 l 44 490 q 60 543 84 570 q 107 598 138 610 q 168 622 225 635 q 230 636 245 640 q 275 647 285 647 q 326 647 333 639 l 434 639 q 439 632 456 622 q 472 611 475 608 l 474 603 q 474 592 478 576 q 482 559 483 555 l 484 529 q 487 507 487 473 q 487 467 484 464 q 482 462 475 462 l 447 478 q 407 500 390 507 q 352 521 278 527 l 248 530 l 248 534 q 245 530 226 528 q 201 526 186 518 q 172 509 172 482 q 172 474 200 451 q 227 428 262 406 q 298 384 322 377 q 435 343 462 325 q 466 322 474 316 q 481 310 487 307 q 500 307 510 279 q 521 251 528 217 q 535 183 535 176 l 540 172 q 538 168 536 157 q 534 146 534 137 z m 322 575 q 324 573 326 572 q 329 571 330 570 q 333 570 342 576 q 351 582 357 586 q 355 592 350 604 q 346 616 340 621 q 334 626 322 628 q 323 628 326 614 q 330 600 330 586 q 330 584 327 580 q 324 576 322 575 z m 362 617 q 362 614 364 609 q 367 604 367 600 l 374 600 l 402 619 q 389 624 383 624 q 378 624 370 622 q 361 619 362 617 z m 214 611 q 219 607 224 600 q 229 594 233 591 q 237 588 245 588 l 245 583 q 253 584 255 586 q 257 588 257 593 q 257 598 254 606 q 252 615 252 619 l 253 623 q 230 620 214 611 z m 301 608 q 301 588 314 567 q 314 573 316 580 q 318 586 318 591 q 318 604 315 608 q 312 613 307 615 q 302 617 301 619 z m 180 603 q 181 595 185 592 q 189 588 197 584 q 198 583 204 580 q 210 577 214 571 l 222 575 q 222 581 214 587 q 207 593 200 593 l 200 602 q 196 602 192 605 q 187 608 185 608 q 183 608 182 606 q 180 604 180 603 z m 278 563 q 278 555 272 555 q 264 555 260 558 q 256 561 252 568 q 248 574 241 575 q 241 564 237 561 q 233 558 224 557 q 209 557 205 546 l 309 546 l 314 559 q 310 557 304 557 q 295 557 292 562 q 288 567 287 576 q 287 578 286 584 q 284 590 281 595 q 278 600 273 603 q 273 593 275 588 q 277 582 277 579 l 260 579 q 260 575 266 572 q 272 570 272 567 l 270 563 l 277 567 z m 366 567 q 368 560 372 548 q 376 536 378 530 q 382 534 401 550 q 415 562 428 576 q 442 589 442 594 q 442 603 436 603 q 432 603 400 586 q 368 569 366 567 z m 99 555 q 99 548 111 543 q 123 538 131 538 q 132 539 136 542 q 140 544 140 546 q 139 548 130 552 q 120 555 120 557 q 120 571 140 571 q 145 571 156 562 q 167 554 173 554 l 177 555 q 175 551 169 549 q 163 547 161 546 q 165 545 176 542 q 188 538 188 534 q 189 539 194 544 q 198 549 200 551 l 191 551 q 191 553 190 556 q 188 558 188 560 q 188 563 197 563 q 181 584 152 594 q 148 592 134 586 q 120 579 110 571 q 99 563 99 555 z m 434 567 q 442 568 448 572 q 455 577 455 584 l 454 591 q 452 588 444 580 q 435 573 434 567 z m 355 541 q 355 555 349 555 l 338 546 q 344 541 355 541 z m 458 542 q 458 546 456 550 q 454 555 452 555 q 446 555 432 544 q 418 532 415 526 l 431 525 q 458 525 458 542 z m 65 486 q 59 466 56 462 q 61 462 70 464 q 79 466 84 466 l 84 462 q 89 467 98 468 q 108 470 114 470 q 120 471 122 471 q 126 471 133 472 q 140 473 144 474 l 137 478 q 130 478 118 480 q 107 481 102 482 l 102 494 q 99 489 96 487 q 93 485 88 485 q 76 485 76 491 q 76 498 87 502 q 98 505 111 507 q 124 509 129 510 l 113 523 q 113 524 116 526 q 118 527 119 527 q 123 527 136 518 q 149 510 154 510 q 158 510 162 515 q 165 520 165 523 l 161 526 q 161 528 162 530 q 164 533 165 534 q 163 533 158 530 q 152 526 150 526 q 131 530 116 534 q 100 538 96 539 l 96 535 q 107 535 107 527 l 100 526 q 98 526 94 528 q 90 530 88 530 q 81 530 76 518 q 71 507 65 486 z m 458 497 q 458 518 454 518 l 426 518 l 422 508 q 429 508 441 500 q 453 493 458 486 z m 109 490 l 148 490 q 154 490 154 503 q 136 503 124 500 q 111 498 109 490 z m 211 350 q 215 350 217 349 l 253 369 l 253 365 q 257 368 257 374 q 221 374 193 369 l 193 379 q 218 379 256 389 q 253 390 238 402 q 224 414 219 414 q 203 414 180 439 q 158 464 156 466 q 147 462 140 462 q 134 462 129 466 l 124 458 l 105 459 q 84 459 84 450 l 109 449 q 110 444 114 440 q 118 437 122 437 q 129 437 129 447 l 140 438 l 140 446 q 145 446 158 440 q 172 434 172 430 q 172 425 151 418 q 130 411 121 410 q 123 408 123 406 q 123 401 116 398 q 116 407 109 407 l 104 406 q 108 405 108 402 l 107 393 l 91 393 q 91 388 96 384 q 100 379 106 374 q 113 369 116 365 q 121 368 121 370 q 121 376 148 384 q 174 391 180 393 l 180 398 l 137 398 q 136 398 132 402 q 132 406 175 406 q 225 406 225 402 l 225 398 q 225 395 217 392 q 209 389 200 387 q 183 383 180 381 l 180 385 q 177 384 168 380 q 158 376 156 373 q 158 372 160 370 q 161 368 161 367 q 162 367 166 370 q 170 373 176 373 q 176 366 162 362 q 147 357 137 357 q 134 357 130 358 q 126 360 124 362 l 123 358 q 123 353 126 352 q 130 350 137 350 q 146 350 150 348 q 154 345 158 338 q 161 332 171 332 q 179 332 192 341 q 205 350 211 350 z m 99 416 q 121 427 137 427 l 137 431 q 136 431 129 432 q 122 433 106 434 l 60 439 q 60 418 68 406 q 75 407 85 410 q 95 414 99 416 z m 256 357 l 256 353 q 262 354 273 358 q 284 362 290 365 l 290 372 q 282 372 269 367 q 256 362 256 357 z m 290 346 q 285 343 268 338 q 250 333 245 325 q 262 325 280 330 q 297 335 302 336 q 328 344 341 346 l 341 350 q 336 353 323 358 q 310 362 305 362 q 299 357 295 352 q 291 347 290 346 z m 350 346 q 350 337 346 332 q 343 326 335 318 q 323 306 323 297 q 355 316 359 316 q 364 316 368 320 q 371 325 374 325 l 370 317 q 385 324 386 333 q 364 346 350 346 z m 233 337 l 205 325 q 206 321 214 321 q 220 321 226 326 q 233 331 233 337 z m 334 329 q 334 332 333 333 q 330 332 326 331 q 321 330 318 329 q 307 329 296 326 q 284 323 274 319 q 255 311 241 309 q 242 305 249 305 q 256 305 260 304 q 264 303 264 297 l 277 297 l 277 291 q 287 291 300 298 q 314 306 324 316 q 334 325 334 329 z m 346 273 l 346 269 q 353 271 362 279 q 371 287 374 292 q 373 291 373 287 q 373 280 383 280 q 396 280 420 296 q 423 298 432 302 q 440 307 446 309 q 442 311 434 318 q 426 325 418 325 q 412 325 399 309 q 386 293 383 285 l 382 293 q 382 301 387 308 q 392 316 394 321 q 386 321 360 306 q 357 304 341 296 q 325 288 314 288 l 314 281 q 320 281 330 277 q 341 273 346 273 z m 436 280 q 431 270 427 265 q 423 260 417 260 q 417 247 402 229 l 406 221 q 407 223 428 238 q 449 253 462 261 q 466 263 474 264 q 481 265 487 272 q 484 274 474 288 q 464 301 457 301 q 451 301 447 296 q 443 292 440 287 q 437 282 436 280 z m 374 293 l 374 292 z m 394 240 q 401 246 406 257 q 417 279 431 288 q 421 288 408 284 q 395 279 383 273 q 379 271 374 268 q 369 266 362 264 q 369 263 380 254 q 390 245 394 240 z m 471 232 q 469 228 464 222 q 460 217 456 211 q 429 173 429 170 q 434 170 440 176 q 447 181 450 181 l 454 180 l 495 200 l 511 204 q 511 229 494 257 q 493 256 484 244 q 475 232 471 232 z m 434 199 q 475 245 475 250 l 475 253 l 456 243 q 408 219 408 209 q 408 197 415 176 q 423 187 434 199 z m 469 80 q 494 99 506 114 q 517 129 517 154 q 505 154 483 142 q 464 133 458 131 q 464 145 482 155 q 499 165 516 168 l 516 193 q 509 190 504 187 q 499 184 497 183 l 491 184 q 475 176 460 162 q 444 147 434 131 q 438 131 444 134 q 451 136 454 136 q 452 127 432 111 q 413 95 390 82 q 367 70 358 70 q 357 70 354 72 q 352 75 349 75 q 340 71 320 54 q 300 36 300 29 q 306 29 320 36 q 334 42 338 47 q 368 68 406 86 q 445 104 450 104 q 454 104 458 100 q 463 97 467 96 q 462 88 440 70 q 406 44 406 35 q 406 34 407 32 q 408 31 409 31 q 414 38 424 45 q 435 52 438 55 q 449 66 469 80 z m 82 118 q 94 118 100 145 l 92 145 q 87 146 80 152 q 72 157 67 157 q 66 153 66 146 q 66 134 71 126 q 76 118 82 118 z m 354 108 q 355 108 362 106 q 370 103 370 99 q 370 96 368 93 q 366 90 366 83 q 375 93 393 111 q 411 129 415 129 q 417 129 418 128 l 442 156 q 429 156 408 143 q 386 130 354 108 z m 144 44 q 150 50 162 60 q 174 70 180 80 q 186 89 186 103 q 186 107 180 112 q 175 116 172 116 l 152 108 l 148 109 l 148 117 q 139 117 130 112 q 122 107 120 106 q 105 95 95 95 l 84 96 q 76 93 76 92 l 76 31 q 76 20 82 15 q 87 10 107 7 l 114 7 q 120 7 130 24 q 141 40 144 44 z m 306 55 q 311 59 318 66 q 326 73 326 75 l 318 71 q 316 71 315 72 q 314 74 314 75 q 306 59 291 59 l 285 60 q 289 72 311 82 q 324 89 331 95 q 338 101 338 112 q 331 106 312 102 q 287 96 273 83 q 265 75 235 50 q 207 30 193 11 q 198 13 207 18 q 216 22 222 27 l 222 23 l 233 23 l 222 15 l 225 11 q 226 11 230 10 q 233 8 237 8 q 245 8 250 10 q 255 11 262 15 q 274 27 288 38 q 301 50 306 55 z m 111 64 q 114 64 118 66 q 121 67 125 68 q 125 58 119 55 q 113 52 101 52 q 95 52 92 55 q 95 57 101 64 q 107 72 109 75 q 128 104 136 104 q 145 104 145 97 q 142 97 125 83 q 108 69 108 65 q 109 64 111 64 z m 156 10 q 173 10 182 16 q 192 22 201 31 q 210 40 214 44 q 215 43 218 43 q 224 43 230 50 q 237 57 244 66 q 250 76 253 79 l 214 60 l 205 60 l 205 65 q 208 65 230 80 q 252 94 256 96 l 253 100 l 214 100 q 211 98 205 92 q 199 87 197 83 q 194 77 183 67 q 172 57 169 54 q 149 36 149 33 q 149 30 161 30 q 157 25 148 18 q 140 11 137 11 z m 144 83 q 146 86 150 90 q 153 94 156 96 q 158 96 160 94 q 161 93 161 92 q 161 85 154 80 q 147 76 146 75 z m 382 21 q 382 29 420 65 q 420 65 434 79 q 425 79 414 76 q 402 72 402 63 l 330 31 q 330 28 318 22 q 305 17 301 15 q 312 8 330 8 q 355 8 370 10 q 386 12 386 19 q 382 19 382 21 z m 285 52 q 275 44 262 38 q 249 31 237 31 q 243 40 256 50 q 268 60 275 60 q 277 60 285 52 z m 197 54 l 197 47 q 187 47 184 46 q 181 44 180 40 q 178 35 169 35 q 173 43 180 48 q 188 54 197 54 z"},"}":{"x_min":0,"x_max":320,"ha":320,"o":"m 316 301 q 315 299 296 280 q 271 255 256 234 q 241 214 241 191 q 241 164 236 154 q 230 143 230 137 q 230 133 233 131 l 233 37 q 233 11 218 -17 q 203 -45 181 -66 q 159 -86 139 -90 l 68 -105 l 17 -113 q 12 -113 4 -105 q 13 -65 13 -33 q 13 -21 12 -15 q 80 -7 107 33 q 119 89 119 176 q 119 210 126 226 q 132 243 145 259 q 156 272 162 285 q 162 289 150 298 q 139 308 132 318 q 124 329 124 346 q 124 360 125 370 q 126 380 127 386 q 131 414 131 429 l 131 442 q 131 452 137 474 q 143 496 143 508 q 143 528 131 546 q 119 565 101 577 q 83 589 68 589 q 44 577 30 577 q 25 577 22 578 q 20 580 20 585 q 20 594 28 653 q 28 684 34 694 q 41 704 65 704 q 78 704 106 698 q 132 692 146 692 q 208 692 228 627 q 247 562 247 472 q 247 444 246 429 l 245 386 q 245 360 266 338 q 287 316 316 301 z m 84 684 q 92 670 100 666 q 107 662 114 662 q 120 661 123 660 l 115 657 l 131 652 l 131 660 q 142 660 144 658 q 147 655 147 646 q 147 641 174 626 q 201 612 213 610 q 210 618 197 633 q 184 648 170 654 q 154 669 131 676 q 108 684 84 684 z m 107 632 l 100 649 l 107 649 q 100 652 75 668 l 59 680 l 59 672 l 52 676 l 48 657 q 47 656 75 644 q 103 632 107 632 z m 120 640 q 120 633 115 632 q 121 624 141 614 q 161 605 170 605 q 173 605 178 606 q 183 607 186 609 q 157 631 119 644 z m 155 566 l 159 569 l 190 561 l 198 566 l 162 582 q 103 608 103 611 q 103 612 105 614 q 107 615 107 616 q 107 619 94 626 q 80 632 72 632 q 65 632 59 629 q 79 618 92 613 l 92 609 q 82 609 70 617 q 56 625 50 625 q 43 625 43 611 l 45 603 q 63 603 88 595 q 113 587 134 577 q 156 567 155 566 z m 214 597 l 162 597 q 162 598 160 600 q 157 601 155 601 q 153 601 152 600 q 150 599 150 597 q 153 596 183 583 q 212 572 222 566 q 218 573 216 583 q 215 593 214 597 z m 224 522 q 222 545 207 551 q 192 557 176 558 q 160 558 155 558 q 158 551 180 546 q 210 538 217 526 l 214 522 z m 183 524 q 192 524 194 526 q 190 532 182 536 q 174 539 167 539 l 167 530 q 167 527 172 526 q 177 524 183 524 z m 225 486 q 225 492 224 501 q 223 510 222 514 l 182 514 q 187 507 202 491 q 217 475 220 475 q 225 475 225 486 z m 225 436 l 225 467 q 223 466 218 464 q 213 463 210 463 q 199 463 186 466 q 173 468 170 475 q 192 470 210 470 q 210 479 190 492 q 171 504 162 504 l 162 472 q 168 472 170 467 z m 190 428 l 190 419 l 185 419 q 188 410 198 400 q 209 391 225 388 l 222 416 q 212 414 208 414 q 199 414 199 424 l 214 427 l 175 447 q 174 448 168 448 q 162 448 158 444 q 154 440 154 434 q 154 430 162 428 q 170 427 173 427 q 175 427 179 428 q 183 428 190 428 z m 151 323 q 153 321 157 316 q 161 310 162 305 q 162 306 164 308 q 166 309 167 309 q 173 309 186 303 q 198 297 206 297 l 183 313 q 182 313 182 317 q 186 320 194 323 q 202 326 202 328 q 202 331 190 336 l 150 356 q 155 357 155 360 q 155 362 154 364 q 153 365 153 368 q 169 368 188 364 q 207 361 210 360 l 210 352 q 200 357 183 357 l 170 356 q 195 344 224 332 q 254 321 258 321 q 249 330 242 340 q 234 351 232 352 q 229 352 225 350 q 221 349 219 349 l 217 360 q 218 361 220 362 q 223 364 223 365 q 223 371 194 394 q 165 416 154 416 q 149 416 144 386 q 139 355 139 346 q 139 335 151 323 z m 282 295 q 271 305 245 307 q 236 308 226 310 q 217 312 210 317 l 209 313 q 209 309 235 295 q 261 281 267 281 q 270 281 275 286 q 280 292 282 295 z m 178 277 q 180 266 194 262 q 208 258 222 258 q 214 270 204 274 q 194 277 178 277 z m 253 261 q 253 274 229 274 q 229 271 232 266 q 234 262 234 257 q 238 257 244 259 q 249 261 253 261 z m 230 244 q 223 247 206 250 q 188 253 178 258 q 178 255 196 238 q 214 222 222 222 q 223 224 226 230 q 230 237 230 244 z m 142 196 q 143 195 148 193 q 152 191 155 191 q 161 191 168 186 q 176 182 178 181 q 199 166 214 166 l 214 174 q 206 174 182 190 q 159 207 159 214 q 159 216 160 218 q 161 219 161 220 q 174 220 188 217 q 212 214 214 214 q 184 235 173 242 q 162 249 161 250 q 156 250 149 226 q 142 203 142 196 z m 225 186 q 222 196 209 204 q 196 211 186 211 q 183 208 183 206 q 183 204 199 193 q 215 182 220 182 q 222 182 224 184 q 225 185 225 186 z m 142 123 q 142 121 170 116 q 197 110 210 108 q 208 110 185 131 q 149 159 142 175 z m 217 151 q 217 154 194 160 q 171 166 162 167 q 170 159 185 146 q 200 132 206 128 l 210 128 q 210 132 214 140 q 217 149 217 151 z m 210 95 q 206 96 190 101 q 187 102 176 105 q 166 108 155 108 q 161 95 170 88 l 175 92 q 182 82 197 74 q 212 65 214 64 q 214 65 212 77 q 210 89 210 95 z m 138 84 q 138 56 206 56 q 203 58 178 77 q 154 96 145 96 q 138 96 138 84 z m 207 34 q 207 43 184 50 q 162 57 150 57 q 150 52 159 46 q 168 40 178 34 q 198 22 202 17 q 207 21 207 34 z m 134 29 q 139 29 158 21 q 177 13 178 9 q 180 10 182 14 q 183 17 183 19 q 183 27 161 38 q 139 49 134 49 z m 194 -3 l 190 1 q 189 4 166 10 q 144 16 134 17 l 127 17 q 141 10 149 5 q 154 2 167 -5 q 180 -12 184 -12 z m 178 -29 l 162 -29 l 162 -19 l 170 -19 q 165 -14 148 -3 q 132 8 123 12 q 112 7 103 -3 q 114 -10 130 -14 q 146 -19 155 -19 l 155 -27 q 144 -21 128 -21 q 112 -19 103 -15 q 104 -19 125 -35 q 146 -51 149 -51 q 142 -62 134 -62 q 96 -51 84 -46 q 105 -74 126 -74 q 146 -74 160 -61 q 174 -48 178 -29 z m 48 -19 l 123 -46 q 121 -42 100 -28 q 79 -15 72 -15 z m 64 -62 q 71 -62 80 -66 q 90 -70 95 -70 q 92 -67 81 -52 q 70 -38 64 -35 q 68 -39 68 -46 l 59 -43 q 58 -44 50 -39 q 42 -34 36 -30 l 35 -37 q 35 -46 44 -54 q 43 -57 38 -58 q 33 -59 32 -62 l 33 -76 q 33 -80 30 -84 q 28 -88 28 -90 q 28 -91 30 -92 q 31 -94 32 -94 q 60 -90 75 -86 q 90 -83 95 -79 q 87 -79 78 -74 q 69 -69 64 -62 z"},"Z":{"x_min":0,"x_max":542,"ha":542,"o":"m 533 629 q 533 632 498 566 q 463 500 463 493 l 360 308 q 359 306 353 297 q 347 288 347 283 q 347 281 300 209 q 295 205 278 174 q 261 142 253 126 l 269 122 l 399 122 l 403 118 q 412 119 438 123 q 465 127 482 127 q 485 127 494 122 q 502 117 502 114 q 502 109 498 104 q 495 98 490 98 q 490 74 489 39 q 488 4 486 4 l 482 0 l 368 0 l 364 4 q 361 -5 292 -9 q 223 -13 150 -13 l 49 -13 q 38 -13 31 -8 q 24 -4 24 3 q 24 6 25 8 q 43 12 55 32 q 67 51 77 79 q 81 83 101 119 l 119 150 q 121 152 129 177 q 131 183 136 196 q 141 210 145 218 q 149 225 153 225 q 154 225 159 242 q 164 260 170 260 l 175 260 q 176 262 178 268 q 180 274 183 280 q 183 292 191 310 q 199 329 201 332 q 216 363 222 386 q 228 386 252 445 q 271 488 277 497 q 285 508 285 509 q 285 510 284 513 q 283 516 283 523 l 244 524 q 234 525 212 525 q 186 525 136 521 q 84 517 52 517 q 41 523 41 551 q 41 559 46 589 q 51 619 56 624 l 60 637 q 63 643 68 643 q 71 643 78 640 q 84 638 88 638 q 125 638 159 641 q 205 643 229 643 q 276 643 370 639 q 462 635 510 635 q 512 635 516 638 q 520 640 524 640 q 533 640 533 629 z m 222 619 q 217 616 201 606 q 185 596 170 584 q 155 572 155 564 q 174 571 210 591 q 242 610 265 619 q 259 621 243 621 q 238 621 232 620 q 225 620 222 619 z m 63 566 q 71 566 99 587 q 127 608 127 614 q 113 620 95 620 q 83 620 76 616 q 75 614 69 596 q 63 579 63 566 z m 296 620 l 250 580 l 276 594 q 304 611 324 619 z m 139 599 q 147 599 158 608 q 168 618 178 619 l 150 619 q 149 615 145 608 q 141 602 139 599 z m 343 567 q 360 580 368 580 q 367 573 362 570 q 357 566 345 559 q 333 553 327 548 q 321 543 320 536 q 328 542 408 584 q 465 615 466 616 q 447 616 434 610 q 422 604 409 593 q 398 584 390 580 q 383 576 372 576 q 373 583 378 588 q 384 592 396 600 q 412 610 416 616 q 406 616 388 604 l 383 607 q 377 601 374 601 q 374 608 377 610 q 380 611 383 616 q 373 616 356 610 q 339 604 326 594 q 312 583 312 571 q 312 569 308 566 q 305 563 304 562 q 304 572 312 586 q 320 601 328 607 l 324 608 q 311 608 285 591 q 278 584 259 576 q 240 566 231 560 q 222 555 222 549 l 258 549 q 262 553 272 561 q 283 569 289 572 q 290 572 291 570 q 292 569 292 568 q 293 572 296 576 q 300 579 305 580 q 305 571 298 560 q 291 550 281 549 l 281 543 q 299 543 312 549 q 325 555 343 567 z m 217 564 l 261 607 l 170 564 q 165 555 148 550 q 132 546 120 546 q 120 552 126 559 q 133 566 139 568 l 139 564 l 190 612 q 189 612 170 603 q 68 561 68 546 q 68 535 90 535 q 117 535 148 539 q 178 543 186 544 q 191 545 201 554 q 211 564 217 564 z m 468 603 q 465 603 450 595 q 436 587 415 580 q 415 577 392 564 q 369 552 364 549 q 320 525 316 521 l 320 517 q 307 515 300 504 q 292 493 292 477 q 319 495 341 510 q 363 526 382 538 q 427 571 471 599 q 471 603 468 603 z m 474 578 q 474 583 471 584 q 456 572 429 557 q 396 536 391 533 q 388 533 386 534 q 384 536 383 536 q 382 529 374 522 q 365 514 364 513 l 368 512 q 377 512 390 524 q 404 535 411 544 l 421 536 q 430 541 452 558 q 474 574 474 578 z m 455 552 l 395 510 l 395 520 q 393 519 390 515 q 388 511 388 508 q 336 491 313 461 q 327 461 340 466 q 353 471 372 481 q 389 491 402 496 q 416 501 429 501 q 430 501 432 500 q 433 498 435 497 q 444 514 449 526 q 454 539 455 552 z m 394 473 q 396 474 410 482 q 425 489 427 493 q 342 465 305 446 q 302 446 294 443 q 286 440 282 440 q 282 447 288 456 q 293 464 300 469 l 285 466 l 261 410 l 261 406 q 299 434 341 446 l 341 442 q 331 438 318 428 q 298 415 285 410 l 289 409 q 296 409 310 413 q 322 418 332 418 q 291 394 267 394 q 265 394 262 396 q 260 397 258 399 q 249 399 244 380 q 238 361 237 359 q 244 362 250 365 q 255 368 260 371 q 279 382 292 388 q 304 393 315 393 q 315 389 304 383 q 292 377 289 375 q 267 366 261 359 q 269 363 272 363 q 276 363 285 359 q 279 354 260 350 q 239 345 228 338 q 217 330 217 311 q 260 325 336 371 q 334 372 330 374 q 327 375 324 375 q 326 379 334 382 q 343 386 349 386 q 351 386 355 384 q 359 382 360 378 q 357 374 301 346 q 272 332 246 318 q 221 304 222 300 q 235 305 277 313 q 311 319 328 324 q 345 328 348 335 q 351 341 359 353 q 375 377 383 394 q 391 410 391 426 q 380 419 358 409 q 343 403 328 394 l 324 399 q 337 405 348 413 q 360 421 360 426 q 355 426 348 423 q 340 420 338 420 q 338 421 352 429 q 365 437 381 443 q 382 443 384 440 q 385 438 388 438 q 403 438 411 450 q 419 462 419 474 l 395 465 q 363 455 352 446 q 352 451 363 458 q 374 464 394 473 z m 305 371 q 304 370 300 366 q 297 361 291 361 q 291 369 305 371 z m 300 246 q 315 266 322 276 q 329 287 329 298 q 305 298 297 288 l 297 296 l 324 316 q 320 316 308 314 q 296 312 289 308 l 285 311 q 282 307 277 304 q 272 300 267 300 q 264 300 261 303 q 257 303 238 296 q 220 290 206 284 q 206 282 162 197 q 168 199 181 207 q 193 214 204 214 l 214 213 q 196 208 167 189 q 180 189 204 196 q 228 202 241 209 l 242 205 q 242 200 206 186 q 170 173 155 169 l 103 79 q 100 61 92 43 q 101 44 113 54 q 125 63 131 67 q 147 77 169 87 q 208 109 222 118 l 222 122 l 205 116 q 205 120 218 126 q 230 131 230 138 q 222 135 212 133 q 203 131 199 130 q 199 133 215 148 q 231 162 236 162 q 234 160 229 156 q 224 152 221 148 l 222 145 q 236 150 248 162 q 260 175 265 189 q 249 189 235 180 q 221 172 202 156 q 185 141 174 134 q 163 127 151 127 l 150 130 l 155 138 l 214 173 q 220 176 232 187 q 259 212 277 213 q 281 223 300 246 z m 265 252 l 217 233 q 213 231 211 231 q 206 231 206 240 q 206 256 245 269 l 245 264 q 245 260 234 254 q 222 249 222 248 q 229 248 243 252 q 255 257 265 257 z m 301 258 q 292 250 280 243 q 269 236 265 236 q 266 243 272 248 q 278 252 285 254 l 273 254 l 273 260 q 278 260 286 262 q 293 264 297 264 q 298 263 300 261 q 301 259 301 258 z m 222 220 q 241 239 258 239 q 258 220 222 220 z m 190 130 q 190 123 180 118 q 169 114 167 111 q 158 98 146 92 q 135 86 118 86 q 118 93 149 110 q 180 128 190 130 z m 250 103 q 242 103 238 100 q 233 98 233 90 q 236 91 246 94 q 255 98 258 103 z m 385 59 q 357 35 342 27 l 342 22 l 364 31 q 390 42 406 50 q 423 59 443 75 l 447 75 q 432 58 418 49 q 403 40 387 33 q 371 26 364 23 l 463 20 l 463 75 l 459 75 q 459 79 462 88 q 466 97 466 103 q 445 103 426 92 q 408 81 385 59 z m 289 67 q 283 70 281 70 q 278 70 276 64 q 274 57 269 55 l 269 62 q 256 58 247 50 q 238 42 236 41 q 216 25 202 20 l 202 15 q 202 11 245 11 l 245 20 q 256 28 279 43 q 302 58 308 58 q 308 56 296 46 q 283 36 277 31 q 287 34 296 38 q 304 42 313 42 l 313 35 q 303 30 282 21 q 260 12 253 12 q 284 12 298 14 q 311 15 318 19 q 325 23 335 33 q 339 36 345 42 q 351 47 360 55 q 365 55 368 58 q 371 61 375 62 l 403 90 l 399 98 q 397 99 394 100 q 392 100 390 100 q 379 100 372 96 q 364 91 352 81 q 333 62 316 62 q 316 62 336 82 l 352 98 q 327 94 300 79 q 300 85 309 90 q 318 95 318 100 q 303 100 298 93 q 294 86 293 76 q 292 67 289 67 z m 226 75 q 205 63 202 62 q 192 59 179 54 q 166 49 159 47 l 159 59 q 187 62 203 88 l 202 95 q 191 95 178 87 q 166 79 147 63 q 143 60 132 51 q 121 42 114 40 q 121 42 134 47 q 148 52 151 53 q 151 50 146 48 q 140 45 139 43 l 142 39 q 98 28 72 12 q 87 7 115 4 q 117 4 120 5 q 122 6 123 8 l 190 8 l 194 12 l 186 20 q 204 38 216 38 q 264 68 289 98 q 274 98 260 92 q 245 86 226 75 z m 348 59 q 353 62 358 71 q 363 80 372 83 q 372 73 365 66 q 358 59 348 59 z m 108 39 z"},"x":{"x_min":0,"x_max":513,"ha":513,"o":"m 253 95 l 231 73 l 231 64 l 180 -26 q 112 -21 88 -21 q 83 -21 76 -24 q 69 -26 65 -26 q 11 -26 11 -13 q 11 -3 18 6 q 24 16 38 31 q 64 59 76 78 q 103 124 120 164 q 136 203 145 250 q 133 303 103 358 q 73 412 33 461 q 33 469 30 472 q 28 474 22 475 q 15 476 15 483 q 36 494 62 497 q 87 500 123 500 q 146 500 166 492 q 189 427 236 358 q 236 356 238 354 q 240 352 242 352 q 242 352 283 409 q 283 414 296 442 q 309 469 317 483 l 345 505 q 355 506 381 506 q 455 506 490 489 q 491 489 492 484 q 494 480 498 478 q 483 469 470 444 q 458 418 443 377 q 424 323 412 306 q 350 218 352 218 q 352 206 360 192 q 369 178 388 154 q 409 126 412 120 q 417 112 434 78 q 436 72 441 54 q 445 38 449 28 q 453 19 460 12 q 464 12 468 10 q 473 7 473 5 q 473 -21 461 -21 q 455 -21 447 -19 q 439 -17 433 -17 q 415 -17 383 -23 q 353 -30 331 -30 q 321 -30 321 -26 q 321 -11 297 29 q 273 69 253 95 z m 445 443 q 467 478 472 483 l 469 487 q 469 479 462 476 q 455 474 443 474 q 413 474 391 478 q 389 478 388 476 q 386 473 386 472 q 387 471 389 465 q 391 459 391 448 l 425 413 q 428 413 445 443 z m 395 422 q 383 431 374 455 q 369 467 364 473 q 359 479 349 479 q 338 479 338 472 q 338 465 362 444 q 385 423 395 422 z m 163 414 l 171 414 q 160 446 134 461 q 107 476 67 478 q 62 478 50 474 q 60 453 72 443 q 74 453 81 457 q 96 457 110 455 q 123 453 132 453 l 132 448 l 89 448 q 104 436 132 426 q 160 415 163 414 z m 336 434 q 338 434 342 436 q 347 438 352 440 q 351 441 344 450 q 336 459 329 459 q 329 452 332 446 q 336 440 336 434 z m 85 431 l 106 411 l 163 401 q 156 404 140 412 q 125 420 111 426 q 97 431 85 431 z m 328 284 q 339 268 339 267 q 343 273 348 282 q 353 292 361 297 q 363 299 366 302 q 368 304 369 306 l 391 358 q 394 361 403 374 q 412 387 412 390 q 411 395 377 416 q 357 430 356 431 l 355 425 q 355 412 368 395 q 369 393 375 384 q 381 374 381 363 q 350 363 313 396 q 304 396 304 392 q 310 385 326 360 q 341 335 348 321 q 348 316 343 313 q 338 310 332 310 q 326 310 322 312 q 318 313 313 318 l 312 314 q 312 306 328 284 z m 349 391 q 349 401 340 412 q 332 423 321 431 q 317 419 317 414 q 318 408 330 400 q 343 391 349 391 z m 196 362 q 196 375 186 380 q 176 385 156 389 q 132 394 128 401 l 128 392 l 192 362 z m 160 354 l 180 349 l 180 353 l 119 384 q 119 369 130 364 q 140 358 160 354 z m 289 367 q 289 365 295 358 q 301 351 317 336 q 317 346 316 349 q 314 352 308 356 q 302 361 296 379 q 289 376 289 367 z m 236 288 q 235 292 235 301 q 235 313 240 318 l 201 332 q 192 333 174 341 q 149 350 139 350 q 139 336 156 328 q 174 319 189 319 q 189 310 196 305 q 204 300 216 296 q 228 292 236 288 z m 248 325 q 248 320 259 309 q 270 298 284 289 q 299 280 309 280 l 313 280 q 307 292 297 307 q 287 322 283 330 q 279 339 279 349 l 274 349 q 273 341 265 339 q 257 337 252 335 q 248 333 248 325 z m 221 232 q 221 236 212 257 q 204 278 201 280 q 202 280 204 282 q 205 284 205 285 q 205 289 186 298 q 168 308 162 308 q 162 297 173 279 q 184 261 198 246 q 213 232 221 232 z m 318 230 q 318 235 315 238 q 312 242 312 244 q 312 248 318 250 q 325 253 326 254 l 312 254 q 312 263 301 272 q 290 280 270 292 q 255 300 248 306 q 248 297 251 286 q 254 276 262 276 q 264 276 268 278 q 271 280 274 280 q 276 264 290 247 q 303 230 318 230 z m 321 206 l 321 211 q 317 213 307 218 q 297 224 287 228 q 276 228 268 232 q 261 237 249 247 q 242 253 234 258 q 225 263 218 263 q 222 260 232 247 q 242 234 254 224 q 267 215 287 211 q 291 211 302 209 q 312 207 321 206 z m 212 197 q 212 208 200 222 q 189 237 180 237 q 162 237 162 230 q 162 228 184 213 q 207 198 212 197 z m 152 195 q 152 188 160 182 q 169 175 180 170 q 191 164 196 160 l 201 160 q 188 170 174 188 q 160 205 158 207 q 152 201 152 195 z m 171 8 q 194 29 214 78 q 217 78 222 84 q 226 90 230 97 q 240 114 248 124 q 255 133 266 137 q 262 142 262 148 q 262 155 271 155 q 280 155 296 153 q 308 150 320 150 l 343 151 q 339 153 320 164 q 295 179 274 188 q 254 198 236 198 q 241 190 243 186 q 245 181 245 174 q 245 163 236 163 q 229 163 220 170 q 211 177 205 177 q 207 170 212 165 q 217 160 218 159 q 231 150 231 140 q 231 134 222 129 q 200 137 171 155 l 171 151 q 201 121 201 115 l 200 104 q 189 104 174 108 q 160 112 154 112 q 154 107 159 102 q 164 96 168 93 q 172 90 174 89 q 196 75 196 64 q 196 60 187 60 q 175 60 168 62 q 161 63 149 69 q 149 64 154 60 q 159 56 164 52 q 170 48 175 44 q 180 39 180 34 q 180 32 170 28 q 160 25 158 21 q 158 21 171 8 z m 347 163 l 352 163 q 344 183 328 190 q 313 198 287 198 q 287 196 312 182 q 337 168 347 163 z m 145 137 q 154 134 180 116 l 180 120 l 149 160 q 146 158 143 152 q 140 146 140 142 z m 388 108 q 388 125 364 132 q 340 138 317 138 l 309 137 l 373 108 z m 302 117 q 316 111 326 111 l 326 116 q 326 118 307 126 q 288 133 280 135 l 280 122 q 287 122 302 117 z m 158 86 q 155 90 146 102 q 137 113 128 120 q 121 113 121 107 l 123 103 q 130 93 138 90 q 146 86 158 86 z m 376 95 q 374 95 370 92 q 365 90 362 90 q 359 91 333 98 q 307 105 294 105 q 288 105 288 103 q 288 99 296 99 l 412 52 q 412 62 400 78 q 389 95 376 95 z m 125 24 q 112 29 104 34 q 97 39 97 46 q 97 56 106 56 q 113 56 127 52 q 139 47 149 47 q 138 58 124 70 q 109 82 106 82 q 98 66 80 47 q 71 36 62 24 q 54 12 50 0 q 52 -1 70 -2 q 88 -3 137 -4 l 154 0 q 154 9 148 13 q 141 17 125 24 z m 325 52 q 339 42 343 38 l 403 38 q 397 41 388 48 q 378 55 369 56 q 358 56 330 70 q 312 80 304 82 q 304 71 309 66 q 314 60 325 52 z m 429 8 q 424 19 414 23 q 405 27 389 27 l 352 26 q 377 8 429 8 z"},")":{"x_min":0,"x_max":289,"ha":289,"o":"m 201 -138 q 201 -143 202 -146 q 203 -150 203 -153 q 203 -165 168 -165 q 152 -165 132 -160 q 110 -156 99 -156 q 91 -156 84 -159 q 78 -162 72 -162 q 65 -162 58 -158 q 51 -154 51 -147 q 51 -141 63 -130 q 75 -118 77 -114 q 91 -89 102 -44 q 110 -17 116 0 q 123 18 133 33 q 134 54 144 84 q 155 115 155 143 q 155 169 161 217 q 167 263 167 286 q 167 406 129 571 q 124 592 100 650 q 75 708 65 718 q 67 728 73 731 q 94 731 117 736 q 145 740 159 740 q 175 740 192 726 q 210 713 215 696 l 263 546 q 271 521 274 432 q 277 342 277 278 q 277 193 254 66 q 231 -62 202 -132 q 201 -134 201 -138 z m 153 683 q 171 688 186 688 q 186 694 176 706 q 165 719 160 719 q 159 718 152 710 q 144 702 124 679 q 133 679 153 683 z m 112 692 l 138 713 l 132 714 q 125 714 118 710 q 111 707 101 707 q 101 703 104 699 q 108 695 112 692 z m 146 644 q 150 644 150 645 l 194 670 l 190 675 q 132 666 132 664 q 134 660 136 654 q 137 649 139 646 q 141 644 146 644 z m 168 515 l 196 520 q 240 528 241 528 q 241 545 236 564 q 232 584 223 593 l 220 597 q 218 605 214 622 q 210 638 206 648 q 202 657 198 657 q 194 656 174 642 q 153 628 146 623 q 154 623 172 625 q 190 627 198 627 l 198 605 l 159 567 l 168 566 q 179 566 188 569 q 192 569 199 570 q 206 572 214 572 q 229 572 229 565 q 229 558 220 552 q 211 545 194 536 q 190 534 178 527 q 167 520 164 515 z m 155 588 q 170 590 194 614 l 187 615 q 176 615 163 612 q 150 609 150 602 q 150 598 155 588 z m 165 537 q 177 537 190 545 q 204 553 211 563 q 203 563 181 558 q 159 552 159 549 q 159 546 162 541 q 164 536 165 537 z m 223 511 l 211 512 q 195 512 181 507 q 167 502 167 489 l 168 480 q 223 503 223 511 z m 246 511 q 242 511 210 489 q 178 467 176 463 q 187 463 207 465 q 227 467 238 467 l 237 464 q 237 463 240 462 q 242 460 242 459 q 242 457 232 447 q 222 437 198 425 q 194 421 194 421 l 259 421 q 258 435 254 473 q 249 511 246 511 z m 184 438 q 194 438 204 443 q 214 448 220 455 q 207 455 198 453 q 188 451 176 447 q 176 441 178 440 q 180 438 184 438 z m 246 407 l 181 407 l 181 381 q 193 381 214 390 q 235 399 246 407 z m 258 399 q 215 383 190 360 l 258 360 z m 258 351 l 254 343 q 250 340 244 335 q 237 330 227 324 q 194 301 194 299 q 213 299 225 300 q 237 302 258 308 l 254 313 l 258 317 z m 190 322 l 202 322 q 204 322 217 332 q 230 342 237 348 l 232 348 q 222 347 208 346 q 195 344 190 343 z m 202 265 q 211 268 226 276 q 241 283 241 287 l 241 291 q 233 291 219 290 q 205 288 198 287 l 198 265 z m 254 278 l 202 248 q 211 247 228 246 q 245 245 246 240 q 254 242 254 267 z m 194 208 q 194 205 198 205 q 206 205 220 214 q 233 224 233 232 l 228 232 q 209 232 202 228 q 194 224 194 208 z m 250 201 l 249 226 q 246 223 238 217 q 230 211 226 207 q 208 195 198 186 q 188 177 188 170 l 195 170 q 223 170 236 175 q 250 180 250 201 z m 194 136 q 197 138 214 148 q 232 159 232 162 l 220 162 q 205 162 196 157 q 188 152 188 136 z m 233 141 q 219 141 202 132 q 186 122 185 110 l 223 110 q 233 110 233 141 z m 220 97 q 198 97 188 92 q 177 86 176 67 q 190 69 204 78 q 219 86 220 97 z m 215 72 q 206 72 192 63 q 178 54 172 45 l 176 45 q 184 45 196 47 q 209 49 215 50 z m 150 11 q 165 15 181 23 l 207 33 l 202 37 q 194 36 181 35 q 168 34 160 29 q 153 24 150 11 z m 146 -11 l 152 -11 q 177 -11 192 -8 q 207 -5 207 7 l 211 2 q 215 6 215 18 l 215 28 q 213 23 180 11 q 146 -3 146 -7 z m 211 -10 q 201 -23 186 -32 q 170 -41 148 -50 q 143 -53 135 -56 q 127 -59 124 -62 l 124 -67 q 167 -67 198 -58 z m 127 -41 q 139 -41 149 -38 q 159 -34 172 -26 l 133 -24 q 131 -24 129 -30 q 127 -36 127 -41 z m 112 -106 q 140 -97 181 -75 l 159 -74 q 111 -74 111 -101 z m 194 -80 q 189 -82 172 -88 q 156 -95 144 -102 q 131 -109 124 -118 l 146 -118 l 146 -123 q 149 -123 155 -119 q 161 -115 164 -114 q 167 -113 177 -110 q 187 -106 190 -100 q 194 -93 194 -80 z m 176 -132 l 142 -140 q 145 -140 148 -142 q 150 -144 153 -144 q 161 -144 168 -142 q 176 -139 176 -132 z"},"&":{"x_min":0,"x_max":580,"ha":580,"o":"m 577 10 q 565 -2 492 -2 q 464 -2 430 3 q 426 5 420 13 q 415 21 414 22 q 395 3 370 -4 q 344 -10 304 -13 q 288 -14 261 -18 l 248 -18 q 246 -16 192 0 q 137 15 107 22 q 47 59 32 133 q 31 134 29 140 q 27 146 27 153 q 27 189 41 228 q 55 266 79 291 q 82 294 95 299 q 108 304 116 309 q 123 314 123 321 q 123 335 108 355 q 94 375 94 378 q 94 386 87 398 q 80 414 80 421 q 80 427 74 439 q 67 451 67 460 l 71 483 q 71 488 68 498 q 66 507 66 523 q 66 531 77 564 q 88 598 98 603 q 147 628 188 642 q 228 657 276 657 q 307 657 352 617 q 374 596 384 574 q 395 551 395 522 q 395 481 388 447 q 381 413 359 393 l 355 393 q 355 386 347 380 q 339 374 322 363 q 311 357 302 350 q 293 343 292 338 q 292 333 302 323 q 311 313 312 310 q 315 309 327 304 q 339 298 348 290 q 358 282 358 274 q 369 274 374 270 q 379 267 386 259 q 395 248 403 247 q 404 254 404 269 q 404 280 405 292 q 406 303 411 310 l 391 330 q 392 335 404 335 q 424 335 462 331 q 497 326 529 326 l 533 318 q 527 318 506 313 q 484 308 467 300 q 450 292 450 283 q 458 290 476 297 q 495 304 505 304 l 505 296 q 510 296 512 303 q 515 310 523 310 l 527 310 q 532 310 533 306 l 529 302 l 530 285 q 530 259 524 232 q 517 206 505 187 q 488 167 488 147 q 488 134 494 120 l 572 18 q 573 16 574 14 q 576 12 577 10 z m 156 605 q 133 592 122 582 q 110 571 110 558 q 119 564 136 572 q 153 579 159 582 q 199 599 220 612 q 242 624 249 640 q 202 640 182 622 q 177 617 168 612 q 159 607 156 605 z m 262 606 q 240 592 240 586 l 312 618 q 308 619 300 626 q 292 634 286 634 q 284 634 282 630 q 281 626 281 622 q 278 618 262 606 z m 103 413 q 118 423 130 434 q 143 445 158 456 l 158 460 q 143 456 140 456 q 138 456 123 460 l 170 472 l 170 468 q 175 473 176 479 q 178 485 178 496 q 173 489 164 484 q 156 479 147 476 q 134 471 126 466 q 118 461 115 452 q 112 454 108 454 q 107 454 99 452 l 99 460 q 125 472 154 492 l 142 492 q 147 499 162 503 q 178 507 182 508 q 185 508 193 526 q 201 544 209 547 l 245 563 q 252 566 265 577 q 279 589 289 594 q 280 591 263 583 q 250 577 236 572 q 223 566 213 566 l 209 566 l 225 574 l 209 574 q 218 583 237 601 q 254 614 264 626 q 245 621 225 601 q 209 585 198 581 q 190 581 180 574 q 169 566 151 552 q 141 544 132 538 q 123 531 118 531 q 110 531 110 535 q 110 541 119 546 q 128 552 131 555 q 111 549 103 542 q 95 536 93 526 q 91 516 91 492 l 103 496 q 105 496 106 494 q 107 493 107 492 l 103 483 q 109 488 122 493 q 134 498 142 500 l 90 463 q 87 460 87 453 q 87 443 92 430 q 97 417 103 413 z m 323 602 l 279 571 q 282 571 288 574 q 293 576 296 579 l 300 574 q 300 581 310 584 q 321 586 331 586 q 339 586 344 583 l 312 551 l 312 547 l 359 558 q 361 558 362 556 q 364 553 364 551 q 361 542 339 528 q 337 527 329 522 q 321 516 320 511 q 327 514 343 518 q 346 519 354 522 q 363 524 368 526 q 372 528 372 531 q 372 551 356 576 q 341 602 331 602 z m 302 563 q 281 563 276 555 l 288 550 q 290 552 296 557 q 302 562 302 563 z m 193 539 l 170 525 q 164 521 158 518 q 151 514 146 511 q 146 526 163 540 q 180 555 196 555 l 206 555 q 205 554 201 548 q 197 541 193 539 z m 300 511 q 298 509 331 539 l 328 543 q 326 541 318 538 q 309 534 302 530 q 296 526 296 521 q 296 514 300 511 z m 264 527 q 264 533 268 535 q 268 540 256 540 q 223 540 208 517 q 193 494 193 459 q 193 455 196 450 q 198 446 198 444 l 217 409 q 223 416 239 436 q 255 456 264 475 q 273 494 273 512 q 273 516 268 520 q 264 524 264 527 z m 113 510 q 118 510 140 532 q 140 522 132 516 q 125 510 113 504 z m 372 508 q 359 508 337 492 q 326 485 316 480 l 316 475 q 323 475 336 479 q 348 483 355 483 q 358 483 363 480 q 368 477 368 474 q 368 471 292 427 q 240 396 237 393 q 240 394 246 396 q 251 397 256 397 q 259 397 262 395 q 264 393 266 393 q 276 396 286 400 q 297 404 300 405 q 308 408 332 416 q 357 423 364 444 q 372 464 372 508 z m 284 475 l 289 475 l 331 500 l 328 503 q 325 500 312 496 q 299 491 292 486 q 284 482 284 475 z m 232 407 q 232 406 234 404 q 235 401 237 401 q 238 404 258 417 q 278 430 289 436 l 331 460 l 331 468 q 326 464 320 464 q 314 464 312 468 l 308 460 q 306 458 281 452 q 274 450 253 432 q 232 413 232 407 z m 170 452 q 165 447 151 437 q 135 425 131 421 q 133 420 136 418 q 140 417 142 417 q 155 417 166 420 q 178 424 178 433 q 177 435 174 443 q 171 451 170 452 z m 126 369 l 131 369 l 147 381 q 178 401 186 409 q 185 409 184 410 q 182 412 182 413 q 169 413 145 409 q 123 404 106 404 q 107 396 110 390 q 113 385 118 380 q 122 375 126 369 z m 154 373 q 160 373 178 382 q 195 392 206 394 q 190 394 180 390 q 169 385 154 373 z m 320 393 q 302 393 275 384 q 247 376 232 376 q 224 376 221 377 q 180 353 165 334 q 177 337 201 341 q 231 346 252 352 q 272 357 292 369 l 296 369 z m 142 322 q 142 318 140 312 q 138 305 138 302 q 141 302 146 304 q 152 307 155 307 q 159 307 161 305 q 163 303 165 298 q 172 301 191 313 q 196 316 207 323 q 218 330 229 334 q 218 334 200 332 q 185 329 170 329 q 154 329 154 335 q 154 343 181 360 q 195 369 198 373 l 193 374 q 190 374 158 361 l 158 366 q 156 364 147 358 q 138 352 138 346 q 138 342 140 334 q 142 327 142 322 z m 163 259 q 174 274 178 275 l 192 274 l 198 275 q 207 280 230 294 q 253 308 253 310 q 251 310 242 306 q 232 303 229 302 l 233 310 l 264 326 l 261 330 q 254 330 236 324 q 218 318 206 310 l 206 314 q 189 306 189 300 q 199 300 201 294 q 193 289 182 286 q 161 280 154 270 q 145 260 118 242 q 107 236 96 228 q 86 220 79 211 q 89 211 103 220 q 119 228 127 228 q 132 228 134 227 q 146 238 163 259 z m 426 297 q 426 287 430 275 q 430 280 444 292 q 457 305 462 306 l 438 314 q 438 308 432 306 q 426 304 426 297 z m 289 310 q 272 300 258 295 q 234 286 217 275 l 223 275 q 223 274 224 272 q 225 270 225 268 q 224 266 221 264 q 218 261 217 259 q 218 256 220 252 q 223 247 225 247 q 276 277 276 278 l 264 279 q 255 279 247 276 q 239 272 233 270 l 233 275 q 233 279 250 284 q 268 288 271 289 q 296 295 300 298 z m 125 286 q 105 277 94 272 q 84 266 83 259 l 87 259 q 93 261 112 266 q 130 271 138 275 q 137 276 137 279 q 137 283 143 289 q 149 295 150 298 q 146 295 125 286 z m 425 245 q 425 241 426 239 q 427 239 428 240 q 430 242 430 243 l 466 275 l 482 288 l 481 291 q 466 291 446 276 q 425 260 425 245 z m 486 278 q 460 253 460 251 q 465 251 478 259 q 491 267 497 267 q 498 267 500 266 q 502 264 502 263 q 506 272 506 287 q 502 287 496 282 q 491 278 486 278 z m 267 261 q 253 250 233 239 q 251 239 262 241 q 272 243 283 246 q 294 249 300 251 l 300 243 q 289 243 276 239 q 264 235 256 227 l 276 208 l 301 225 q 322 238 339 251 q 338 250 333 250 q 324 250 323 255 l 339 263 l 344 259 q 344 268 334 276 q 325 283 314 283 q 304 283 294 278 q 283 272 267 261 z m 513 239 q 518 244 518 257 l 517 278 q 516 272 514 261 q 513 250 513 243 z m 328 239 q 326 238 316 227 q 306 216 303 211 q 312 211 346 222 q 379 234 379 236 q 376 241 367 252 q 358 263 355 263 q 355 250 352 246 q 348 243 340 242 q 332 241 328 239 z m 67 219 q 75 225 90 232 q 101 238 110 244 q 120 250 123 255 q 109 255 94 250 q 80 246 75 239 q 67 236 67 219 z m 217 100 q 236 93 244 93 q 278 93 302 98 q 325 102 344 117 q 340 122 330 127 q 321 132 316 136 q 297 151 286 162 q 275 173 261 192 q 256 195 245 204 q 234 213 233 219 q 230 221 223 224 q 216 228 208 236 q 200 243 190 255 q 176 255 166 240 q 157 225 157 211 q 157 183 160 166 q 162 148 173 133 q 176 130 179 122 q 182 114 184 110 q 187 106 194 106 q 201 106 217 100 z m 498 244 q 492 244 482 238 q 473 231 473 226 l 474 223 q 478 225 485 227 q 492 229 495 232 q 498 235 498 244 z m 470 239 l 470 243 l 426 219 l 430 211 z m 59 173 q 59 171 60 168 q 60 166 60 161 q 71 168 98 190 q 124 211 131 219 q 125 218 94 204 q 64 190 63 187 q 59 176 59 173 z m 339 187 q 352 187 374 196 q 395 204 395 209 q 395 219 388 219 q 378 219 362 208 q 346 197 339 187 z m 491 219 q 485 219 481 218 q 477 216 477 211 l 478 208 q 480 210 485 213 q 490 216 491 219 z m 301 179 q 309 179 318 185 q 327 191 336 199 q 345 207 351 211 q 342 210 320 204 q 299 198 292 195 l 289 192 q 289 187 292 183 q 296 179 301 179 z m 397 175 q 385 168 379 161 l 383 161 q 389 162 399 166 q 409 169 414 172 q 422 172 422 168 q 423 175 428 179 q 434 183 445 189 q 466 198 470 208 q 459 208 447 203 q 433 199 426 199 l 419 200 q 418 191 412 186 q 407 181 397 175 z m 143 181 q 143 186 142 195 q 140 204 137 204 q 128 204 102 182 q 77 160 71 156 l 75 153 q 83 156 102 164 q 120 173 123 176 q 123 175 124 174 q 125 172 126 172 q 128 172 134 176 q 139 181 143 181 z m 486 200 q 477 195 455 175 q 430 150 411 145 q 402 145 379 117 q 430 122 458 138 q 486 155 486 200 z m 341 148 q 346 148 370 168 q 395 187 395 191 q 395 192 394 194 q 393 195 391 195 l 375 187 l 320 164 q 320 159 329 154 q 338 148 341 148 z m 74 81 q 83 68 87 57 q 98 61 110 71 q 121 81 132 93 q 144 105 150 112 l 142 113 q 130 113 112 103 q 94 93 83 93 q 75 93 75 99 q 75 102 83 110 q 91 117 95 117 l 126 153 l 131 145 q 131 150 132 156 q 134 163 134 168 l 118 161 l 115 164 q 110 156 103 152 q 96 149 84 146 q 71 143 65 138 q 59 133 59 120 q 59 110 64 100 q 68 90 74 81 z m 369 128 q 376 128 396 144 q 415 159 414 164 q 404 160 396 156 q 389 151 383 148 q 362 136 359 135 q 359 130 362 129 q 364 128 369 128 z m 142 148 l 95 109 l 95 105 q 101 108 114 112 q 128 117 138 122 q 147 127 147 132 q 147 138 142 148 z m 372 89 l 372 84 q 375 84 378 88 q 381 93 383 93 l 434 117 l 442 112 q 446 120 446 125 q 434 123 419 118 q 404 114 399 112 q 396 111 379 105 q 377 97 367 97 l 356 98 q 353 98 332 86 q 312 75 294 61 q 276 47 273 37 z m 434 89 q 436 90 448 91 q 460 92 467 94 q 474 96 474 101 q 473 105 470 110 q 468 114 466 117 q 457 117 446 106 q 434 95 434 89 z m 160 102 q 156 102 150 96 q 143 89 142 85 q 146 85 154 90 q 162 95 165 97 q 165 99 163 100 q 161 102 160 102 z m 481 85 l 487 85 q 487 92 481 93 z m 346 34 q 360 46 375 62 q 398 85 398 85 l 395 89 q 383 82 357 68 q 331 53 328 54 l 323 57 l 320 50 q 308 43 297 33 q 260 6 253 6 q 258 1 276 0 q 295 -1 301 -2 l 316 6 q 319 7 331 20 q 343 34 346 34 z m 121 41 q 122 41 143 57 q 164 73 178 81 l 178 85 l 170 85 l 103 50 l 103 46 q 106 46 112 44 q 117 41 121 41 z m 198 81 q 196 81 179 70 q 162 58 162 54 q 169 56 186 64 q 200 72 209 73 q 207 75 204 78 q 200 80 198 81 z m 443 60 q 443 64 442 65 q 441 59 433 54 q 425 49 419 49 q 405 49 405 57 q 405 62 410 65 q 415 68 426 72 q 438 77 440 81 q 432 81 417 76 q 402 71 395 65 q 381 53 366 38 q 352 24 347 18 l 347 14 l 398 42 q 404 33 411 33 q 416 33 430 44 q 443 55 443 60 z m 264 45 l 296 78 q 289 78 272 68 q 256 59 239 48 q 209 27 201 26 q 197 26 192 29 q 187 32 186 34 q 189 42 205 52 q 221 62 225 65 l 225 70 l 221 70 q 211 70 184 54 q 158 37 154 29 l 217 10 q 220 10 225 8 q 230 6 233 6 q 235 6 249 23 q 263 40 264 45 z m 451 33 q 466 39 484 53 l 502 65 q 499 71 496 72 q 493 74 487 74 q 482 74 479 68 q 476 63 473 63 q 469 63 466 65 l 442 42 l 444 26 z m 541 26 l 517 50 l 517 55 q 512 55 496 47 q 481 39 481 35 q 503 35 510 33 q 518 31 518 26 l 517 20 q 517 18 521 18 q 526 18 532 22 q 538 25 541 26 z m 462 18 q 462 20 466 26 q 471 31 471 34 l 453 22 z m 502 18 q 502 19 494 20 q 486 22 482 22 q 479 21 473 18 q 467 15 467 14 q 467 10 470 10 q 476 11 489 14 q 502 17 502 18 z"},"_":{"x_min":0,"x_max":689,"ha":689,"o":"m 47 0 q 82 7 125 7 q 145 7 185 5 q 227 3 250 3 q 293 3 365 10 q 396 14 449 17 q 490 10 555 8 q 608 6 634 3 q 637 3 640 1 q 642 -1 643 -2 q 643 -4 640 -8 q 638 -13 638 -18 q 638 -27 642 -51 q 647 -73 647 -89 q 647 -101 627 -101 q 624 -101 621 -96 l 621 -15 q 614 -17 609 -25 q 604 -33 600 -36 l 600 -27 l 548 -79 q 554 -79 562 -78 q 569 -77 578 -77 q 613 -77 613 -92 q 613 -102 604 -109 q 430 -109 398 -108 q 366 -107 365 -107 l 39 -109 q 42 -108 44 -104 q 47 -100 48 -96 l 56 -32 q 53 -28 50 -16 q 47 -5 47 0 z m 609 -10 l 609 -5 q 598 -5 582 -7 q 565 -9 565 -12 q 565 -18 569 -18 l 552 -53 q 554 -53 582 -32 q 609 -12 609 -10 z m 419 -62 l 423 -62 q 429 -57 450 -40 q 470 -24 484 -10 l 479 -6 l 449 -6 q 446 -6 435 -28 q 424 -49 419 -62 z m 344 -59 l 345 -62 q 352 -54 378 -36 q 403 -18 410 -18 l 427 -10 q 409 -10 372 -14 q 370 -17 357 -35 q 344 -53 344 -59 z m 487 -58 q 500 -49 505 -49 q 509 -49 516 -40 q 524 -32 532 -24 q 541 -17 552 -15 l 552 -10 l 513 -10 q 507 -25 500 -38 q 492 -50 487 -58 z m 78 -44 q 79 -35 86 -27 q 93 -19 96 -15 q 90 -16 83 -22 q 76 -27 74 -32 q 74 -35 76 -39 q 77 -43 78 -44 z m 91 -49 q 104 -49 120 -44 q 136 -38 136 -32 l 121 -32 q 123 -29 132 -26 q 141 -24 141 -20 l 135 -20 q 118 -20 113 -15 l 104 -32 l 108 -36 q 99 -39 91 -49 z m 160 -23 l 160 -15 l 152 -18 z m 204 -70 q 210 -66 234 -48 q 258 -31 285 -15 q 253 -15 240 -18 q 227 -20 219 -31 q 211 -42 204 -70 z m 263 -66 q 277 -61 300 -40 q 322 -20 336 -15 l 303 -15 q 298 -15 283 -36 q 268 -57 263 -66 z m 160 -49 q 163 -49 172 -42 q 181 -35 186 -32 q 186 -26 181 -18 q 177 -22 170 -33 q 164 -44 160 -49 z m 298 -62 q 293 -66 274 -76 q 255 -86 254 -91 q 255 -93 257 -94 q 259 -95 260 -96 l 320 -83 q 319 -81 319 -77 q 319 -69 330 -54 q 342 -38 342 -27 l 341 -23 q 331 -29 318 -40 q 305 -51 298 -62 z m 341 -79 l 388 -79 q 391 -79 400 -59 q 408 -39 411 -32 l 410 -27 q 368 -66 341 -79 z m 103 -98 l 110 -98 q 124 -98 130 -92 l 126 -83 l 147 -44 l 147 -36 q 136 -45 92 -71 l 73 -83 q 73 -98 103 -98 z m 454 -88 q 494 -88 513 -78 q 532 -68 543 -36 q 536 -40 531 -44 q 526 -49 522 -52 q 508 -64 498 -70 q 487 -76 472 -76 l 470 -67 q 471 -66 476 -54 q 481 -43 484 -41 l 479 -40 q 472 -40 465 -46 q 458 -52 451 -59 q 437 -77 427 -79 q 436 -79 444 -84 q 451 -88 454 -88 z m 229 -92 l 237 -88 q 239 -88 240 -90 q 242 -91 242 -92 q 246 -88 246 -88 q 248 -81 250 -72 q 252 -64 260 -47 l 259 -44 q 237 -65 204 -83 q 209 -83 220 -86 q 230 -90 229 -92 z m 146 -88 l 196 -88 q 196 -85 192 -74 q 188 -63 188 -52 q 185 -52 166 -68 q 146 -85 146 -88 z"},"v":{"x_min":0,"x_max":524,"ha":524,"o":"m 517 443 l 517 422 l 404 159 q 397 142 377 110 q 358 82 348 60 q 339 39 338 16 q 335 8 327 -4 q 320 -16 319 -22 l 297 -22 q 299 -18 304 -10 q 309 -3 309 4 q 296 4 224 -2 l 198 -4 l 199 -15 q 199 -27 187 -27 q 179 -27 175 -21 q 171 -15 168 -4 l 112 224 q 95 259 61 347 q 56 360 50 378 q 43 395 34 417 q 31 427 20 441 q 10 455 8 459 q 8 468 20 472 q 32 475 42 475 q 62 475 103 471 q 144 467 150 461 q 157 454 160 444 q 163 435 164 431 l 180 381 q 202 312 220 264 q 237 215 259 173 q 259 180 275 208 q 277 211 287 230 q 297 249 297 262 q 297 266 314 296 l 327 323 q 329 326 332 331 q 334 336 338 343 q 357 379 367 402 q 377 426 377 453 q 377 457 376 460 q 375 464 375 468 q 375 473 390 476 q 406 479 428 479 q 456 479 478 474 q 500 470 500 463 q 499 461 496 456 q 492 452 491 452 l 396 452 l 491 443 q 496 442 496 433 l 495 426 q 506 432 506 443 z m 51 431 l 90 448 l 75 449 q 67 449 59 448 q 51 447 43 443 q 43 439 51 431 z m 133 445 q 123 445 107 440 q 91 434 86 426 q 106 431 119 431 q 130 431 130 424 q 130 418 126 415 q 121 412 112 409 q 94 405 94 396 l 147 396 q 147 407 133 445 z m 383 417 q 400 424 410 424 q 417 424 424 422 q 430 421 436 421 q 438 421 440 424 q 443 426 444 426 l 486 426 l 491 431 l 435 443 l 427 439 q 425 439 424 440 q 422 442 422 443 l 392 443 q 391 441 389 432 q 387 423 383 417 z m 65 401 l 98 417 q 86 417 76 416 q 67 414 65 413 z m 486 392 l 495 417 q 488 415 404 409 q 412 406 438 400 q 463 394 475 394 q 480 394 482 396 z m 366 371 q 353 349 353 335 q 365 335 380 338 q 395 340 404 340 l 413 335 q 415 335 424 340 q 432 344 439 344 l 379 358 l 375 366 q 382 372 394 375 q 407 378 429 381 q 449 383 465 387 q 429 391 404 396 q 399 399 391 402 q 383 405 379 405 q 378 391 366 371 z m 456 334 q 469 382 482 384 q 478 388 476 388 q 474 388 461 375 q 452 374 428 371 q 404 368 404 366 l 404 361 l 456 353 l 447 336 l 413 328 q 425 328 430 323 l 418 318 l 345 318 l 340 306 l 392 306 l 387 310 q 398 310 408 312 q 419 314 422 314 q 428 314 430 310 q 427 309 406 304 q 385 299 371 297 l 371 302 q 365 298 356 296 q 347 293 340 293 q 340 287 370 286 q 401 285 401 284 l 413 271 q 408 263 375 250 q 342 237 331 236 q 344 232 373 232 q 406 232 413 233 l 444 306 q 447 308 450 318 q 454 329 456 334 z m 81 366 l 116 384 q 115 384 112 386 q 110 387 107 387 q 77 387 77 379 q 77 373 81 366 z m 147 384 l 98 358 q 104 355 108 354 q 113 353 118 353 q 124 353 135 354 q 146 356 155 358 q 154 367 152 374 q 149 382 147 384 z m 98 318 q 114 318 138 344 q 131 341 117 341 q 115 341 106 340 q 97 339 90 335 z m 162 332 q 147 332 138 318 q 143 313 144 313 q 146 313 152 318 q 158 323 161 323 q 163 323 166 320 q 170 318 173 318 q 173 332 162 332 z m 123 279 q 137 283 154 290 q 172 298 172 302 l 138 303 q 111 303 111 291 q 111 288 116 284 q 120 280 123 279 z m 181 289 q 172 289 161 284 q 150 278 142 271 q 150 272 161 272 l 185 271 q 187 271 188 272 q 189 274 189 276 q 189 284 188 286 q 186 289 181 289 z m 314 241 l 354 254 q 383 263 401 271 q 400 275 390 275 l 366 274 q 361 274 351 278 q 341 281 337 281 q 329 281 322 271 q 314 261 314 241 z m 144 240 q 159 240 180 259 q 171 259 155 257 q 143 254 129 254 q 132 240 144 240 z m 144 218 l 185 236 q 190 235 190 228 l 199 228 q 199 244 194 250 l 147 228 l 142 228 z m 301 207 q 306 207 316 209 q 326 211 328 211 q 333 211 334 210 q 336 208 336 202 l 388 218 l 347 226 q 317 233 310 233 q 306 229 304 220 q 301 210 301 207 z m 155 187 l 206 213 q 196 215 191 215 q 162 215 147 207 q 147 199 150 194 q 152 188 155 187 z m 396 211 q 383 203 371 200 l 381 196 l 305 194 q 297 193 292 188 q 287 183 287 176 l 288 172 q 304 180 335 182 q 339 182 346 182 q 353 183 362 185 l 362 181 q 367 185 377 188 q 387 190 392 194 q 396 198 396 211 z m 213 204 q 188 195 188 184 q 191 184 198 187 q 206 190 210 190 l 215 189 z m 393 181 q 378 181 356 176 q 334 171 327 169 l 323 168 q 326 165 346 162 q 365 159 376 159 q 382 159 388 167 q 393 175 393 181 z m 206 169 l 206 176 q 156 176 156 155 z m 226 164 q 214 164 200 156 q 186 149 181 140 q 193 140 206 148 q 218 155 224 155 l 220 146 q 223 146 228 148 q 233 151 233 153 q 231 156 230 160 q 228 164 226 164 z m 347 141 q 364 145 375 146 q 372 148 338 156 q 304 163 289 163 q 271 163 271 145 q 271 138 273 136 q 275 133 282 133 q 303 133 347 141 z m 375 137 q 353 137 323 130 q 293 122 284 120 l 297 116 l 362 116 q 364 116 368 126 q 371 135 375 137 z m 172 116 l 198 129 q 183 129 172 125 z m 241 129 q 238 129 234 126 q 229 123 228 120 l 247 120 q 247 123 246 126 q 244 129 241 129 z m 224 26 q 229 27 234 32 q 240 37 246 37 l 221 36 q 192 36 192 54 q 192 55 192 57 q 193 59 194 60 l 246 73 q 239 73 228 71 q 216 69 206 69 q 201 69 197 73 q 193 77 193 82 l 194 86 l 246 107 l 176 90 l 182 66 q 192 22 194 17 q 200 19 209 22 q 218 25 224 26 z m 284 107 q 271 107 254 100 q 236 94 224 86 q 234 86 256 88 q 276 90 287 90 q 295 90 304 96 q 312 103 319 103 q 311 105 298 106 q 285 107 284 107 z m 345 90 q 345 91 338 91 q 333 91 328 87 q 323 83 319 81 l 269 66 q 252 62 220 52 q 222 50 226 48 q 230 47 232 47 q 245 47 273 54 q 294 61 312 61 q 322 61 327 60 q 328 72 332 78 q 336 83 345 90 z m 328 47 l 323 47 l 220 17 l 215 12 l 276 11 q 300 11 314 18 q 328 25 328 47 z m 250 -12 q 273 -9 297 -9 q 294 -18 287 -21 q 280 -24 268 -26 q 251 -30 246 -35 q 242 -34 230 -32 q 219 -31 212 -27 q 205 -23 205 -14 q 222 -14 250 -12 z"},"O":{"x_min":0,"x_max":712,"ha":712,"o":"m 681 300 q 678 211 660 157 q 643 103 610 70 q 603 70 593 60 q 583 51 574 41 q 566 31 563 27 q 560 27 554 23 q 549 19 547 15 q 453 -24 377 -24 q 375 -24 367 -26 q 359 -29 348 -29 q 342 -29 339 -25 q 336 -21 334 -21 q 330 -21 327 -22 q 324 -24 322 -24 q 296 -24 276 -19 q 255 -14 227 0 q 206 7 185 18 q 164 30 164 39 l 164 44 q 158 44 137 67 q 124 80 121 82 q 117 85 114 90 q 112 95 109 98 q 103 98 86 120 q 70 141 70 153 l 66 153 q 63 153 53 184 q 43 214 34 251 q 26 288 26 310 q 26 322 36 371 q 46 420 53 434 q 55 437 64 458 q 83 499 98 524 q 113 548 136 560 q 142 571 152 577 q 163 583 181 589 q 196 594 200 596 l 196 599 q 197 599 218 608 l 239 616 l 262 620 q 288 623 303 626 q 318 630 318 635 q 334 631 341 631 q 347 631 362 636 q 377 640 389 640 q 466 640 499 607 q 502 607 504 608 q 507 610 507 611 q 515 607 534 600 q 553 593 564 586 q 574 578 574 570 l 583 570 q 584 569 621 542 q 658 516 658 430 q 658 422 657 418 z m 318 583 q 331 592 366 602 q 401 613 401 619 l 362 619 l 318 588 z m 421 614 q 412 607 401 602 q 390 598 379 595 q 364 590 354 586 q 345 581 338 572 l 338 580 l 334 580 q 333 580 330 564 l 331 560 q 340 573 350 573 l 354 572 l 416 599 q 418 600 422 600 q 430 600 430 587 q 430 581 429 580 l 449 588 q 451 588 454 586 q 456 585 456 583 q 457 592 467 596 q 477 599 488 599 q 460 614 421 614 z m 172 558 q 180 558 228 578 q 277 597 283 604 q 255 604 222 592 q 190 580 172 562 z m 76 212 q 79 215 94 230 q 110 244 120 256 q 129 269 129 276 l 128 280 q 129 280 130 279 q 130 278 131 278 l 131 268 q 142 268 147 284 q 152 299 152 311 l 121 292 q 109 292 105 288 q 105 288 104 289 q 102 290 102 291 q 109 299 126 312 q 143 326 152 331 q 157 334 158 344 q 160 353 160 355 q 149 355 139 351 q 129 347 125 339 q 125 345 130 352 q 134 360 135 362 q 135 369 140 371 q 144 373 155 374 q 166 374 168 378 l 188 418 q 185 418 178 410 q 172 403 168 402 q 160 399 146 396 q 131 393 120 389 q 110 385 105 378 q 107 383 110 388 q 114 393 117 394 l 172 418 q 151 418 145 416 q 139 414 136 414 q 135 414 134 416 q 133 417 133 418 l 178 430 q 181 430 184 428 q 187 426 190 426 q 198 426 207 442 q 216 457 219 466 q 210 466 200 462 q 191 459 181 454 q 157 442 141 442 q 147 449 185 464 q 191 467 200 471 q 210 475 211 477 q 205 477 189 476 q 173 475 164 473 l 164 477 q 164 479 185 482 q 206 484 217 485 q 223 485 225 482 q 227 480 227 473 q 246 494 272 504 q 299 513 340 520 l 366 525 q 367 533 384 540 q 401 547 405 549 q 405 532 385 532 l 385 527 q 405 527 437 543 q 469 559 488 559 l 488 551 q 473 551 456 544 q 438 537 435 536 q 415 528 405 525 l 405 521 l 432 508 l 432 502 q 438 502 451 515 q 461 527 468 528 l 472 521 q 473 521 474 526 q 475 531 482 531 q 493 531 506 540 q 519 550 519 560 l 499 556 l 496 557 l 496 568 l 543 568 l 543 558 q 537 558 524 550 q 512 541 499 531 q 476 512 470 512 q 469 512 467 514 q 465 515 465 517 q 461 510 459 508 q 457 505 452 504 q 448 503 444 500 q 453 499 465 494 q 477 490 480 485 q 482 492 488 496 q 493 500 500 500 q 499 496 494 487 q 488 478 488 475 q 491 472 497 468 q 503 463 507 461 q 511 461 520 467 q 528 473 534 473 q 534 468 526 463 q 518 458 518 452 q 521 453 528 456 q 536 458 539 461 q 543 461 543 458 l 519 446 q 519 436 522 431 q 526 426 531 426 q 535 426 537 428 q 539 431 543 434 q 555 437 564 444 q 572 451 582 463 q 584 465 589 470 q 594 476 598 478 q 603 481 608 481 q 611 481 612 478 q 613 475 614 473 q 612 471 602 460 q 593 450 582 450 l 571 442 q 565 442 563 434 l 559 438 q 558 432 550 428 q 541 423 541 417 q 551 417 591 428 q 631 439 634 446 q 633 449 623 468 q 613 487 613 505 q 613 510 614 513 q 609 507 596 498 q 584 490 578 490 l 578 494 q 578 497 579 499 q 580 501 583 501 q 587 501 590 500 l 602 517 q 592 516 585 514 q 578 512 574 508 l 574 517 l 598 528 q 593 541 577 554 q 561 566 559 568 q 552 574 535 578 q 522 581 516 584 q 509 587 504 596 q 501 588 496 583 l 496 588 q 485 583 476 576 l 472 583 q 472 580 470 575 q 468 570 465 568 q 464 572 461 572 q 458 572 452 567 q 446 562 444 560 q 441 558 432 551 q 424 544 418 544 q 414 544 413 545 l 413 550 q 419 552 432 560 q 446 568 448 572 l 444 573 q 436 573 426 570 q 416 567 412 566 q 390 558 379 558 q 379 562 380 566 q 382 570 382 574 q 366 574 366 566 q 366 564 368 558 q 370 551 374 549 q 362 542 344 534 q 325 527 310 525 q 309 525 308 527 q 306 529 306 531 q 306 536 315 538 q 324 541 330 541 l 341 552 q 330 552 282 533 q 235 514 227 505 l 169 486 q 146 478 140 478 q 139 478 136 478 q 134 479 125 479 q 126 481 129 483 q 132 485 136 485 l 196 505 l 196 500 q 212 514 224 517 q 221 521 211 525 q 220 525 238 538 q 257 552 266 564 l 271 560 q 272 566 287 577 q 302 588 310 599 q 274 578 225 560 q 176 543 151 543 q 151 539 146 535 q 142 531 136 528 q 120 518 112 508 q 104 499 104 481 l 116 481 q 116 473 109 473 q 105 473 92 454 q 79 436 68 412 q 57 388 57 370 q 64 370 75 378 q 86 385 93 386 l 94 383 q 94 376 88 374 q 82 373 78 370 q 75 368 75 357 q 48 357 48 302 q 84 334 87 334 q 88 334 89 332 q 90 331 90 331 q 90 329 72 311 l 85 311 l 53 300 q 51 290 44 290 q 44 288 46 288 q 51 280 53 270 q 55 259 58 252 q 59 258 68 268 q 77 277 84 277 l 89 276 q 88 268 80 264 q 71 260 66 256 q 61 252 61 244 q 61 234 64 223 q 68 212 76 212 z m 314 568 q 306 568 306 559 q 310 559 312 562 q 315 565 318 565 l 322 564 q 320 568 314 568 z m 152 556 l 164 556 q 164 558 162 559 q 161 560 160 560 q 158 560 156 559 q 153 558 152 556 z m 278 552 q 261 549 252 541 q 242 533 242 528 q 242 526 245 526 q 248 526 279 549 z m 564 549 q 573 549 574 544 q 571 540 558 530 q 545 521 539 521 l 531 525 l 547 533 q 536 536 537 536 q 536 536 527 533 q 541 549 564 549 z m 512 504 l 507 505 q 513 515 525 515 q 525 509 521 506 q 517 504 512 504 z m 547 500 q 547 503 555 508 q 563 512 564 513 q 563 508 558 504 q 553 501 547 500 z m 188 347 q 188 341 182 327 q 176 311 176 303 q 176 221 209 138 q 218 115 262 100 q 306 86 336 86 q 475 86 507 185 q 506 183 512 211 q 514 242 523 252 q 523 269 526 290 q 528 311 528 319 q 528 338 524 352 q 521 373 521 382 q 521 415 498 441 q 474 467 438 482 q 402 497 368 497 q 301 497 258 473 q 249 466 226 432 q 202 399 184 351 q 185 351 186 350 q 188 348 188 347 z m 525 497 l 531 497 q 516 488 504 485 l 504 489 q 504 497 525 497 z m 567 489 l 555 477 l 554 481 q 554 486 557 488 q 560 489 567 489 z m 587 477 q 587 465 571 465 l 563 466 q 564 468 574 472 q 583 476 587 477 z m 620 168 q 634 171 640 176 q 647 181 650 197 q 634 185 614 178 q 615 186 626 191 l 613 191 q 612 191 610 192 q 609 194 609 196 q 609 199 619 201 q 629 203 630 205 q 630 204 632 202 q 633 201 634 201 q 651 201 656 216 q 660 230 660 248 q 661 265 662 272 l 657 280 q 633 260 614 260 q 625 273 634 273 l 634 285 q 628 285 622 284 q 617 283 611 283 q 605 283 602 284 q 611 287 622 289 q 632 291 638 292 q 639 291 640 288 q 642 286 642 284 q 644 292 650 295 l 657 288 l 657 316 q 653 317 653 322 l 654 327 l 634 430 l 602 410 l 602 418 q 607 418 609 420 q 611 421 611 427 q 597 427 568 416 q 539 405 539 399 q 539 381 547 378 q 547 382 550 386 q 554 390 559 391 l 560 386 q 560 381 554 378 q 547 374 541 374 l 541 359 q 550 369 574 369 l 585 369 q 585 364 580 363 q 576 362 565 362 q 554 362 551 359 q 543 351 543 308 l 543 303 q 545 308 550 315 q 556 322 558 324 q 558 323 558 322 q 559 320 559 317 q 559 312 555 308 l 567 308 l 567 303 l 543 295 l 543 268 q 544 276 553 282 q 562 287 570 287 q 570 279 564 274 q 559 268 552 263 q 546 258 543 256 l 543 225 q 544 226 546 227 q 549 228 551 228 q 552 228 554 227 q 555 226 555 225 q 555 225 547 217 l 551 216 q 554 216 559 218 q 564 220 567 220 q 562 211 548 206 q 540 203 537 200 q 534 197 534 189 q 534 184 535 181 l 510 144 l 523 144 q 523 138 504 124 q 485 110 472 103 q 451 91 434 86 q 416 81 390 77 q 366 73 349 68 q 332 63 314 51 q 301 46 289 39 q 275 31 264 27 q 253 23 237 23 q 234 23 232 25 q 231 27 231 28 q 231 30 249 48 q 267 65 275 70 q 276 72 279 73 q 282 74 283 75 q 278 76 264 80 q 251 83 238 83 q 230 83 220 71 q 209 58 200 58 q 192 58 192 48 q 192 45 200 42 q 208 39 214 34 q 220 30 221 20 l 227 20 l 266 0 q 268 7 273 7 q 278 7 283 -4 q 298 -9 328 -9 q 334 -9 366 -4 q 388 0 395 0 q 400 0 402 -2 q 404 -2 406 2 q 408 7 409 7 l 429 16 q 489 46 504 46 q 507 46 508 45 q 508 36 494 30 q 481 24 467 20 q 453 17 448 15 q 446 18 445 18 q 444 19 444 19 q 444 15 436 8 q 427 2 424 0 q 430 0 448 4 q 465 7 470 8 q 472 8 473 6 q 474 4 476 4 q 476 9 480 10 q 483 12 494 12 q 505 13 507 20 l 512 15 q 515 22 528 33 q 541 44 557 55 q 591 80 598 87 l 595 90 q 594 84 580 76 q 565 67 539 55 q 516 44 515 43 l 515 51 l 574 82 l 574 87 q 505 66 478 58 q 451 51 443 48 q 443 50 452 59 l 515 79 q 518 79 546 85 q 582 95 602 95 q 613 95 624 113 q 634 131 634 142 q 634 148 630 150 q 620 141 607 134 q 594 127 584 127 q 584 132 588 135 q 593 138 603 142 q 619 148 622 153 l 616 154 q 604 154 582 146 q 560 138 547 138 l 547 142 l 582 158 q 580 158 580 160 q 579 163 578 163 q 578 165 592 174 q 605 182 610 185 q 608 182 602 174 q 595 165 595 158 q 604 164 620 168 z m 94 414 q 88 414 85 418 q 86 420 92 423 q 97 426 101 426 q 103 426 106 426 q 110 425 112 424 q 112 421 105 418 q 98 415 94 414 z m 567 393 l 566 396 q 572 396 582 402 q 591 408 595 410 q 595 404 585 398 q 575 393 567 393 z m 595 375 l 625 375 q 625 369 630 367 q 627 362 612 350 q 596 338 592 338 l 587 339 q 598 352 618 367 l 595 367 z m 109 335 l 117 347 l 118 343 q 118 335 109 335 z m 565 321 q 565 326 568 329 q 570 332 574 335 q 574 330 572 326 q 570 321 565 321 z m 642 329 l 642 320 q 639 320 630 314 q 620 309 618 308 q 620 316 627 322 q 634 329 642 329 z m 93 311 l 125 319 q 125 315 112 313 q 100 311 93 311 z m 579 292 q 584 296 590 296 l 595 295 q 585 288 582 288 q 581 288 580 290 q 579 291 579 292 z m 595 277 q 589 277 576 270 q 564 264 559 264 q 565 267 574 274 q 584 281 595 281 z m 117 264 l 105 260 q 105 265 109 268 z m 73 251 l 73 256 q 78 256 86 258 q 95 261 101 264 q 92 251 73 251 z m 109 233 q 102 232 96 224 q 89 216 89 212 q 100 214 124 220 q 148 227 149 233 l 152 264 q 137 264 109 233 z m 606 253 q 600 253 585 244 q 570 236 559 228 l 563 236 q 572 239 582 249 q 589 255 594 258 q 599 260 606 260 z m 580 193 l 602 193 q 592 192 584 187 q 576 182 567 181 l 571 189 q 571 191 570 193 q 568 195 567 197 q 583 206 590 208 q 605 213 618 225 q 600 225 591 223 q 582 221 567 212 q 575 223 591 228 q 607 233 622 233 q 639 233 639 227 q 636 227 627 218 q 618 210 614 209 q 609 207 600 205 q 591 203 586 200 q 580 197 580 193 z m 84 180 q 96 180 105 189 l 109 181 q 112 183 126 187 q 139 191 152 201 q 152 203 150 206 q 149 208 148 209 q 140 209 113 189 l 112 193 q 112 200 123 207 q 134 214 136 217 q 120 217 96 207 q 73 197 73 189 q 73 187 77 184 q 81 181 84 180 z m 542 189 q 545 189 550 192 q 555 194 561 194 q 561 185 543 185 z m 127 164 q 141 178 141 185 q 130 183 110 174 q 89 166 89 161 q 89 154 95 144 q 101 133 108 133 q 108 147 127 164 z m 173 151 q 165 151 151 146 q 137 140 128 134 q 132 146 151 150 q 167 154 172 161 q 170 170 168 174 q 166 178 160 178 q 154 178 141 167 q 128 156 121 145 q 125 141 125 140 q 125 136 118 133 q 112 130 112 128 q 114 123 118 118 q 121 113 123 113 q 133 113 153 128 q 173 142 173 151 z m 552 154 q 550 150 545 144 q 540 138 536 134 q 527 134 527 137 q 527 148 539 151 q 551 154 552 154 z m 216 87 l 208 79 q 227 79 227 90 q 227 94 218 94 q 208 95 208 97 q 208 99 217 106 q 205 106 200 110 q 194 109 184 103 q 175 97 171 97 l 168 98 q 176 108 184 110 l 180 114 q 183 114 188 119 q 192 124 192 126 q 191 130 188 134 q 186 139 184 142 q 173 134 156 124 q 139 113 132 113 q 132 103 136 103 q 138 103 140 104 q 143 105 144 106 l 144 97 l 139 98 l 136 95 q 136 90 147 86 q 158 81 181 81 l 188 82 q 186 79 180 77 q 175 75 170 75 q 167 75 166 76 q 164 78 164 79 l 163 72 q 163 67 168 62 q 172 58 178 58 q 187 58 191 66 q 195 75 200 81 q 204 87 216 87 z m 579 126 q 580 121 563 112 q 546 103 539 103 q 539 111 544 114 q 550 117 562 120 q 575 123 579 126 z m 531 106 l 531 98 l 527 103 q 517 94 507 94 l 504 95 q 507 100 516 103 q 524 106 531 106 z m 456 82 q 464 85 472 88 q 480 90 484 91 l 484 87 q 484 86 475 82 q 466 79 463 78 q 461 78 459 79 q 457 80 456 82 z m 444 76 l 452 75 q 441 65 426 56 q 412 46 403 46 l 397 47 q 403 53 420 64 q 438 76 444 76 z m 276 57 q 269 51 251 43 q 254 43 258 39 q 261 35 263 35 q 269 35 274 40 q 280 46 283 47 q 293 47 318 67 q 300 67 292 65 q 285 63 276 57 z m 388 35 q 393 35 398 36 q 404 37 406 37 q 406 32 382 24 q 358 15 350 15 q 350 38 369 47 q 370 46 370 41 q 370 37 366 34 q 362 31 362 27 q 368 30 373 33 q 378 36 382 39 q 382 35 388 35 z m 299 12 q 312 13 322 18 q 331 24 338 27 q 338 18 324 12 q 309 7 299 7 z"},"(":{"x_min":0,"x_max":289,"ha":289,"o":"m 184 491 q 173 460 173 432 q 173 406 167 358 q 161 312 161 289 q 161 169 199 4 q 204 -17 228 -75 q 253 -133 263 -143 q 261 -153 255 -156 q 234 -156 211 -161 q 183 -165 169 -165 q 153 -165 136 -152 q 118 -138 113 -121 l 65 29 q 58 50 54 118 q 51 186 51 250 l 51 297 q 51 382 74 510 q 97 637 126 707 q 127 709 127 713 q 127 718 126 722 q 125 725 125 728 q 125 740 160 740 q 176 740 196 735 q 218 731 229 731 q 237 731 244 734 q 250 737 256 737 q 263 737 270 733 q 277 729 277 722 q 277 716 265 704 q 253 693 251 689 q 237 664 226 619 q 218 592 212 574 q 205 557 195 542 q 194 521 184 491 z m 152 707 l 186 715 q 183 715 180 717 q 178 719 175 719 q 167 719 160 716 q 152 714 152 707 z m 134 655 q 139 657 156 664 q 172 670 184 677 q 197 684 204 693 l 182 693 l 182 698 q 179 698 173 694 q 167 690 164 689 q 161 688 151 684 q 141 681 138 674 q 134 668 134 655 z m 216 681 q 188 672 147 650 l 169 649 q 217 649 217 676 z m 117 585 q 127 598 142 607 q 158 616 180 625 q 185 628 193 631 q 201 634 204 637 l 204 642 q 161 642 130 633 z m 201 616 q 189 616 179 612 q 169 609 156 601 l 195 599 q 197 599 199 605 q 201 611 201 616 z m 113 547 q 115 552 148 564 q 182 578 182 582 l 182 586 l 176 586 q 151 586 136 583 q 121 580 121 568 l 117 573 q 113 569 113 557 z m 178 564 q 163 560 147 552 l 121 542 l 126 538 q 134 539 147 540 q 160 541 168 546 q 175 551 178 564 z m 113 503 q 122 503 136 512 q 150 521 156 530 l 152 530 q 144 530 132 528 q 119 526 113 525 z m 108 478 q 130 478 140 484 q 151 489 152 508 q 138 506 124 498 q 109 489 108 478 z m 95 434 q 109 434 126 444 q 142 453 143 465 l 105 465 q 95 465 95 434 z m 134 439 q 131 437 114 426 q 96 416 96 413 l 108 413 q 123 413 132 418 q 140 423 140 439 z m 78 374 l 79 349 q 82 352 90 358 q 98 364 102 368 q 120 380 130 389 q 140 398 140 405 l 133 405 q 105 405 92 400 q 78 395 78 374 z m 134 367 q 134 370 130 370 q 122 370 108 360 q 95 351 95 343 l 100 343 q 119 343 126 347 q 134 351 134 367 z m 74 297 l 126 327 q 117 328 100 329 q 83 330 82 335 q 74 333 74 308 z m 126 310 q 117 307 102 300 q 87 292 87 288 l 87 284 q 95 284 109 286 q 123 287 130 288 l 130 310 z m 70 224 l 74 232 q 78 235 84 240 q 91 245 101 251 q 134 274 134 276 q 115 276 103 274 q 91 273 70 267 l 74 262 l 70 258 z m 138 253 l 126 253 q 124 253 111 243 q 98 233 91 227 l 96 227 q 106 228 120 230 q 133 231 138 232 z m 70 176 q 113 192 138 215 l 70 215 z m 82 168 l 147 168 l 147 194 q 135 194 114 185 q 93 176 82 168 z m 82 64 q 86 64 118 86 q 150 108 152 112 q 141 112 121 110 q 101 108 90 108 l 91 111 q 91 112 88 114 q 86 115 86 116 q 86 118 96 128 q 106 138 130 150 q 134 154 134 154 l 69 154 q 70 140 74 102 q 79 64 82 64 z m 144 137 q 134 137 124 132 q 114 127 108 120 q 121 120 130 122 q 140 124 152 128 q 152 134 150 136 q 148 137 144 137 z m 105 64 l 117 63 q 133 63 147 68 q 161 73 161 86 l 160 95 q 105 72 105 64 z m 160 60 l 132 55 q 88 47 87 47 q 87 30 92 10 q 96 -9 105 -18 l 108 -22 q 110 -30 114 -46 q 118 -63 122 -72 q 126 -82 130 -82 q 134 -81 154 -67 q 175 -53 182 -48 q 174 -48 156 -50 q 138 -52 130 -52 l 130 -30 l 169 8 l 160 9 q 149 9 140 6 q 136 6 129 4 q 122 3 114 3 q 99 3 99 10 q 99 17 108 24 q 117 30 134 39 q 138 41 150 48 q 161 55 164 60 z m 163 38 q 151 38 138 30 q 124 22 117 12 q 125 12 147 18 q 169 23 169 26 q 169 29 166 34 q 164 39 163 38 z m 173 -13 q 158 -15 134 -39 l 141 -40 q 152 -40 165 -37 q 178 -34 178 -27 q 178 -23 173 -13 z m 182 -69 q 178 -69 178 -70 l 134 -95 l 138 -100 q 196 -91 196 -89 q 194 -85 192 -80 q 191 -74 189 -72 q 187 -69 182 -69 z m 175 -108 q 157 -113 142 -113 q 142 -119 152 -132 q 163 -144 168 -144 q 169 -143 176 -135 q 184 -127 204 -104 q 195 -104 175 -108 z m 216 -117 l 190 -138 l 196 -139 q 203 -139 210 -136 q 217 -132 227 -132 q 227 -128 224 -124 q 220 -120 216 -117 z"},"C":{"x_min":0,"x_max":567,"ha":567,"o":"m 529 59 q 530 53 532 36 q 534 19 534 2 q 534 -11 531 -15 q 515 -11 497 -11 l 453 -12 q 425 -12 393 -7 q 361 -2 356 -1 l 321 5 q 255 15 220 26 q 186 37 166 52 q 147 67 111 103 q 106 108 85 150 l 74 170 l 31 281 q 28 289 26 309 q 23 329 23 345 q 23 362 29 378 q 65 486 144 562 q 222 639 337 639 q 356 639 392 637 l 440 636 q 474 636 498 629 q 522 622 528 597 q 528 597 528 591 q 527 585 527 559 q 527 545 528 537 l 532 498 q 532 485 520 485 q 516 485 504 498 q 493 510 488 514 q 470 525 449 528 q 428 530 396 530 q 362 530 318 518 q 275 505 240 484 q 206 463 197 439 q 182 400 169 350 q 156 299 156 270 q 156 261 164 239 q 173 217 173 205 q 173 200 184 187 q 196 174 196 170 q 196 158 214 147 q 232 136 255 130 q 278 123 288 123 q 303 123 316 124 q 328 125 339 126 q 377 131 418 131 q 443 131 492 151 q 498 153 506 156 q 514 159 517 159 q 522 159 524 154 q 523 144 523 122 q 523 95 529 59 z m 272 592 l 268 600 q 266 592 261 588 q 256 584 246 579 q 238 575 234 572 q 229 568 228 561 l 236 561 l 323 605 q 325 607 330 608 q 335 610 338 612 q 328 617 303 620 q 302 613 288 604 q 275 595 272 592 z m 338 592 l 335 597 q 333 590 328 585 q 323 580 313 573 q 303 566 299 561 q 309 561 332 572 q 356 584 363 592 l 371 584 l 371 599 q 372 599 375 598 q 378 597 381 597 q 383 597 386 604 q 390 612 395 612 q 397 612 401 610 q 405 609 405 605 q 402 603 396 600 q 390 598 388 595 q 387 592 387 586 q 386 586 384 588 q 381 589 378 589 q 375 586 372 581 q 368 576 366 573 l 413 597 q 414 596 417 596 q 424 596 436 606 q 449 615 453 616 q 449 620 436 620 q 428 620 414 618 q 402 616 394 616 q 369 616 354 620 q 354 611 350 605 q 346 599 338 592 z m 465 612 l 469 608 q 464 602 452 594 q 445 589 439 584 q 433 578 433 573 l 485 597 q 497 597 501 600 q 497 604 490 609 q 484 614 480 616 q 477 616 472 615 q 468 614 465 612 z m 149 545 l 272 608 l 272 612 q 266 612 242 602 q 221 593 208 589 q 206 585 197 580 q 188 574 178 569 q 153 557 149 550 z m 90 198 q 92 199 98 204 q 103 210 110 210 l 102 198 q 109 201 128 206 q 147 211 147 212 q 147 222 146 227 q 144 232 138 232 l 138 249 l 127 245 q 125 245 121 246 q 117 246 117 249 q 121 251 128 253 q 136 255 138 257 l 138 293 l 122 293 l 122 302 q 133 302 137 308 q 141 315 142 324 q 144 333 145 336 q 137 331 129 321 q 119 306 98 296 q 98 302 104 308 q 109 313 120 321 q 130 328 138 336 q 101 336 86 324 l 86 332 q 92 333 106 339 q 110 340 122 344 q 134 348 143 348 q 149 348 155 368 q 161 388 161 395 q 148 392 138 386 q 129 379 116 367 q 102 355 92 349 q 83 343 70 340 q 74 345 102 363 q 121 374 131 382 q 141 389 141 395 l 106 376 l 102 375 q 97 375 96 376 q 94 378 94 384 l 145 407 q 149 403 152 403 q 159 403 166 412 q 172 422 181 442 q 193 466 197 470 q 192 466 189 466 l 181 467 l 181 482 q 174 479 174 471 q 173 463 171 459 q 169 455 157 454 q 156 455 156 459 q 156 463 163 464 q 170 465 170 470 l 169 474 l 161 470 q 162 480 176 486 q 191 491 214 495 q 218 496 227 498 q 236 499 240 501 q 244 505 271 518 q 298 530 329 540 q 360 550 382 550 q 390 550 398 558 q 405 565 410 569 q 412 569 428 582 q 445 594 445 597 l 440 599 l 433 597 q 425 593 391 576 q 357 560 330 550 q 330 556 328 557 q 326 558 321 558 q 315 558 312 556 q 309 555 307 550 q 306 553 302 553 q 299 553 299 550 q 299 545 283 539 q 267 533 260 529 q 258 528 256 526 q 255 525 253 524 q 252 524 250 526 q 248 529 247 529 q 251 535 265 543 q 279 551 283 557 l 288 553 q 291 554 291 561 l 291 565 l 315 592 q 312 590 305 585 q 298 580 294 580 q 292 580 291 581 l 213 545 q 213 551 208 553 q 206 540 199 537 q 192 534 177 534 l 177 541 l 208 561 q 209 560 212 560 q 215 560 218 566 q 222 571 224 577 l 161 545 q 152 545 136 530 q 121 514 121 502 q 126 502 130 498 l 185 525 l 188 524 q 191 524 198 528 q 204 533 208 533 q 216 533 216 529 q 216 526 188 509 q 161 492 153 490 q 153 493 151 495 q 149 497 148 498 q 147 497 138 491 q 129 485 123 485 q 121 486 118 488 q 115 491 114 494 q 110 483 102 470 q 93 458 84 446 q 65 421 56 402 q 46 384 46 361 l 47 324 q 47 320 46 314 q 44 308 42 304 l 50 309 l 55 281 l 54 275 q 54 269 70 234 q 86 199 90 198 z m 465 567 q 475 574 485 584 l 480 585 q 473 585 469 577 q 453 571 436 566 q 422 562 412 558 q 401 553 401 550 l 445 550 q 451 557 465 567 z m 473 560 q 476 560 488 566 q 500 571 501 573 l 501 584 q 496 584 484 574 q 473 563 473 560 z m 332 560 q 344 560 363 581 q 359 578 350 576 q 341 574 336 572 q 332 569 332 560 z m 507 545 q 504 557 504 569 q 497 567 488 558 q 479 550 470 550 q 469 550 466 554 q 464 558 463 558 q 457 558 457 545 q 474 540 490 530 q 507 521 509 520 q 509 529 507 545 z m 145 468 q 139 468 125 462 q 113 455 104 455 q 104 460 122 466 q 139 472 145 472 z m 110 407 q 123 412 140 429 q 150 438 156 442 q 163 446 172 446 q 172 436 161 428 q 150 420 136 414 q 123 407 117 403 z m 111 433 q 108 431 102 427 q 95 423 91 422 q 92 428 95 433 q 98 438 101 438 q 103 438 106 436 q 109 435 111 433 z m 130 426 q 126 424 106 413 q 85 402 82 402 l 82 407 q 90 411 102 419 q 115 427 125 427 z m 86 371 q 81 367 70 362 q 60 356 57 356 q 74 376 80 376 z m 67 319 q 67 326 62 328 l 79 328 q 79 319 67 319 z m 70 269 l 70 276 q 76 276 87 282 q 98 289 103 289 q 103 276 70 269 z m 110 249 q 110 244 102 239 q 94 234 90 234 l 87 233 q 82 233 82 241 q 82 246 100 261 q 117 276 125 277 l 94 245 l 98 244 q 105 244 110 249 z m 141 182 q 141 173 130 166 q 119 160 117 159 l 123 158 q 130 158 146 166 q 161 174 161 178 q 161 183 158 188 q 156 192 151 192 q 147 192 145 190 l 153 198 q 152 199 150 200 q 147 202 145 202 q 141 202 133 198 l 133 202 q 130 196 114 190 q 98 184 94 182 q 96 179 98 170 q 101 162 106 162 q 111 164 122 170 q 132 176 141 182 z m 188 111 l 200 127 l 200 132 q 193 132 175 122 q 160 111 149 111 q 148 111 146 112 q 145 114 145 115 q 150 122 166 128 q 168 129 176 132 q 185 136 189 143 q 189 145 186 146 q 184 146 183 146 q 175 146 168 141 q 161 136 154 130 q 146 123 141 119 q 142 122 153 137 q 169 159 169 166 q 161 164 138 155 q 114 146 114 141 q 114 129 122 120 q 130 111 145 100 q 157 92 165 83 q 174 91 188 111 z m 429 48 l 421 36 q 422 36 424 34 q 426 33 426 32 q 437 35 449 46 q 461 56 463 56 q 473 56 504 76 q 504 93 507 106 q 509 124 509 135 q 496 135 480 132 q 465 128 465 127 l 473 127 q 468 126 468 116 q 468 112 468 110 q 469 108 469 107 q 466 101 443 87 q 440 85 432 80 q 424 75 421 71 l 418 79 q 421 81 434 90 q 447 100 453 107 q 436 104 421 95 l 418 103 q 427 105 440 110 q 452 116 461 119 q 461 119 457 123 q 420 123 397 108 q 374 94 343 60 l 350 60 q 349 53 342 46 q 334 40 328 40 q 322 40 319 44 q 330 59 346 68 l 343 71 q 368 100 386 107 q 365 107 349 98 q 333 90 315 75 q 298 62 289 57 q 280 52 268 52 q 286 73 319 103 q 308 103 284 96 q 261 88 242 76 q 223 64 220 52 q 233 47 252 42 q 271 37 283 37 l 283 32 l 291 36 l 296 35 l 338 28 l 346 29 l 346 24 q 346 22 352 19 q 358 16 363 16 q 366 16 370 18 q 373 20 376 22 l 371 16 l 382 18 q 383 20 404 34 q 425 48 429 48 z m 192 99 q 224 108 229 117 q 228 119 226 121 q 223 123 220 123 q 216 119 212 119 q 209 119 208 123 q 207 118 200 111 q 192 104 192 99 z m 212 81 l 211 86 q 214 86 216 84 q 219 83 220 83 q 233 96 244 111 q 214 98 200 90 q 186 82 185 82 q 183 82 182 84 q 180 85 177 87 q 176 86 176 83 q 176 77 183 72 q 190 68 197 68 q 212 68 212 81 z m 488 99 l 461 87 q 466 96 477 102 q 488 108 498 108 q 498 96 476 76 q 455 55 445 55 q 480 82 488 99 z m 254 107 q 252 107 246 102 q 239 98 236 97 l 247 97 q 223 84 220 71 q 230 78 266 93 l 284 102 q 269 107 254 107 z m 348 107 q 338 107 325 100 q 312 92 312 83 l 354 107 z m 399 93 q 399 84 386 76 q 386 83 390 88 q 393 93 399 93 z m 508 68 l 441 32 q 436 32 424 24 q 412 15 412 11 q 419 11 426 14 q 432 17 434 18 q 445 25 455 25 l 465 24 q 462 20 451 17 q 440 14 440 12 q 440 10 444 8 q 448 7 451 7 q 459 7 472 20 q 485 34 496 50 q 508 66 508 68 z m 516 12 l 512 28 l 512 39 q 512 45 508 52 l 485 21 q 485 15 480 8 l 512 8 q 513 8 514 10 q 516 11 516 12 z m 363 40 q 365 43 374 48 q 373 45 370 42 q 367 40 363 40 z m 398 48 q 394 44 386 40 q 379 35 374 32 q 373 31 372 31 q 371 31 371 31 l 371 36 q 371 39 381 43 q 391 47 398 48 z m 376 22 l 378 24 q 378 24 376 22 z"},"W":{"x_min":0,"x_max":918,"ha":918,"o":"m 874 590 q 874 559 869 537 q 864 515 863 510 q 850 466 849 417 q 836 335 797 188 l 783 133 q 783 129 769 90 q 746 20 743 7 q 737 -21 728 -29 q 718 -37 697 -37 q 651 -37 618 -30 q 586 -22 569 7 l 522 137 q 522 146 516 160 q 511 175 506 184 q 502 194 500 198 q 474 250 474 272 q 474 277 475 279 l 455 354 l 451 358 q 433 302 409 244 q 385 186 380 173 q 375 160 356 114 q 336 67 328 35 q 323 32 320 21 q 318 10 317 7 q 314 -9 310 -18 q 307 -26 299 -26 q 296 -26 290 -22 q 283 -17 281 -17 q 277 -14 257 -14 q 230 -14 212 -8 q 194 -3 187 19 q 183 42 174 66 q 164 89 162 93 q 148 125 143 141 q 141 148 131 192 q 121 237 107 271 l 107 276 q 107 289 89 332 q 75 366 67 392 q 59 417 59 439 q 59 446 60 449 q 39 538 13 587 q 13 591 11 597 q 9 603 9 606 q 9 627 41 627 q 52 627 72 625 q 87 622 104 622 q 109 622 116 628 q 122 635 128 635 q 134 635 138 628 q 143 622 143 614 q 143 607 139 603 q 139 591 146 570 q 152 550 159 543 q 189 477 210 406 q 214 394 220 370 q 229 335 238 309 q 248 283 262 260 l 274 286 q 289 320 293 335 q 300 358 305 382 q 315 422 324 448 q 334 475 353 504 q 361 519 372 550 q 390 595 405 617 q 420 639 447 639 q 467 639 476 628 q 484 616 499 574 q 503 565 509 548 q 515 531 526 504 q 537 477 549 438 q 574 361 594 317 q 614 273 638 269 q 648 269 654 286 q 660 304 664 322 q 667 340 668 346 q 673 373 687 407 l 696 434 q 701 449 702 467 q 706 495 711 508 q 724 533 730 550 q 736 568 740 588 q 741 592 744 604 q 746 615 751 626 q 755 628 764 628 l 773 628 q 788 628 794 634 l 865 634 l 873 623 z m 766 583 q 780 595 805 602 q 816 605 821 608 q 826 612 826 619 q 798 618 783 612 q 768 606 766 583 z m 395 536 q 398 539 404 539 l 415 538 q 423 538 423 546 l 486 546 q 484 552 480 573 q 475 594 466 606 q 458 618 445 618 l 419 611 q 439 602 450 602 l 455 603 q 456 602 462 596 q 468 590 468 583 q 468 578 450 567 q 433 556 423 556 q 420 556 418 558 q 418 563 424 567 q 431 571 441 576 q 451 580 451 583 q 451 585 450 588 q 448 590 447 591 l 419 599 q 419 599 418 598 q 416 596 416 595 q 412 588 404 574 q 397 559 395 556 l 411 564 q 412 563 412 561 q 412 559 412 558 q 412 553 409 550 q 406 547 402 545 q 399 543 395 540 z m 848 578 q 848 586 852 599 q 855 612 855 618 q 847 618 840 616 q 834 613 834 608 q 834 601 806 593 q 787 587 783 583 q 790 575 793 575 q 796 575 798 579 q 801 583 803 583 q 805 583 808 581 q 811 579 814 579 q 818 579 820 580 q 821 582 822 583 q 830 583 830 579 q 830 571 818 566 q 807 562 786 558 q 762 552 755 548 q 766 548 786 550 q 810 552 821 552 q 828 552 831 550 q 834 549 834 543 q 834 528 818 528 l 818 532 q 810 526 794 524 q 782 521 774 518 q 767 515 763 508 q 772 508 788 510 q 806 512 815 512 q 826 512 826 504 q 826 501 788 483 q 751 465 739 465 q 737 465 735 466 q 733 467 732 468 q 736 474 747 480 q 758 485 766 488 q 774 491 777 492 q 796 498 799 500 q 772 500 759 498 q 746 496 739 496 l 735 500 q 733 500 730 499 q 728 498 727 496 q 723 479 714 439 q 706 399 706 393 q 715 393 733 397 q 751 401 755 406 q 756 407 757 410 q 758 412 759 413 q 764 416 778 418 q 792 421 799 426 q 785 426 759 422 q 731 418 720 418 q 720 428 728 434 q 736 439 746 442 q 757 446 763 449 l 810 473 q 798 473 787 470 q 773 468 766 468 l 774 476 q 779 478 790 480 q 800 483 810 484 q 813 484 819 483 q 825 482 826 481 q 835 480 842 508 q 850 536 850 551 q 850 561 849 568 q 848 575 848 578 z m 76 595 q 80 598 90 600 q 99 601 104 603 l 88 608 q 86 608 82 605 q 79 602 76 602 z m 45 579 l 45 575 l 52 591 l 48 595 q 58 598 64 607 l 29 607 q 39 587 45 579 z m 80 488 q 84 490 90 496 q 95 502 101 506 q 107 511 114 511 q 114 501 102 491 q 89 481 88 480 q 88 476 95 476 q 106 476 128 482 q 149 488 155 491 q 156 492 150 506 q 145 519 143 524 q 138 524 132 520 q 126 517 123 512 q 123 524 124 528 q 126 533 132 533 q 136 533 139 532 q 134 551 125 573 q 116 595 112 595 q 110 595 95 580 q 80 566 68 551 q 72 552 90 558 q 109 564 115 564 q 118 564 120 563 q 122 562 123 559 q 122 555 105 551 q 88 547 80 547 l 80 539 q 76 539 74 540 q 72 540 71 540 q 69 540 64 536 l 72 524 q 79 527 88 534 q 96 542 102 545 q 109 548 120 548 q 117 547 107 538 q 97 530 92 524 l 106 524 q 106 519 102 516 q 97 513 86 508 q 76 504 76 499 l 76 495 q 76 489 80 488 z m 80 571 q 75 574 75 580 q 70 580 62 577 q 55 574 51 574 l 51 569 q 51 556 56 556 z m 753 565 l 755 559 q 756 559 760 562 q 765 564 771 564 q 772 564 773 562 q 774 560 774 559 q 776 560 778 562 q 779 565 779 567 q 779 572 766 572 q 753 572 753 565 z m 735 512 q 747 517 770 524 q 773 525 785 529 q 797 533 810 540 l 751 540 l 747 543 z m 486 540 q 484 532 477 526 q 470 521 457 513 q 454 511 442 504 q 430 496 423 484 l 427 484 q 438 484 470 490 q 503 496 503 502 z m 368 492 l 372 492 q 375 492 410 510 q 444 527 447 532 q 434 531 422 526 q 410 520 408 520 q 401 517 392 515 q 382 513 378 509 q 373 505 368 492 z m 333 403 q 325 385 325 374 q 345 387 386 410 l 416 426 q 419 427 422 434 q 424 442 431 442 l 435 441 l 431 434 l 506 465 q 512 468 512 485 q 494 485 467 476 q 454 460 421 440 q 388 421 376 421 q 391 430 400 441 l 395 442 q 391 442 386 438 q 382 434 376 434 q 374 434 372 436 q 371 437 371 439 q 371 444 378 447 q 385 450 394 453 q 421 461 423 471 l 402 471 q 402 472 401 475 q 400 478 400 482 q 400 488 408 493 q 416 498 416 508 q 413 501 406 496 q 399 491 395 488 q 391 484 391 478 q 391 475 392 473 q 384 471 370 470 q 357 468 351 462 q 345 455 345 439 q 345 434 348 434 l 356 437 l 361 436 q 361 430 360 428 q 358 426 354 424 q 350 422 348 421 q 341 421 341 426 q 340 420 333 403 z m 121 338 q 127 338 130 342 q 134 345 140 354 q 145 362 151 362 q 155 362 164 369 q 173 376 175 378 q 173 378 170 376 q 167 375 163 374 l 159 378 q 155 378 146 374 q 137 370 135 366 l 134 372 q 134 378 138 380 q 142 381 148 382 q 153 382 155 382 l 186 395 q 159 482 157 482 q 155 481 152 476 q 148 472 147 468 q 144 460 129 449 q 117 440 112 435 q 107 430 107 421 q 120 429 127 432 q 134 434 145 434 q 158 434 163 429 l 147 413 l 151 409 q 148 405 136 397 q 123 389 116 382 q 109 376 109 369 q 113 369 118 371 q 123 373 126 373 q 126 365 118 362 q 111 359 111 352 q 111 347 114 342 q 116 338 121 338 z m 92 429 q 107 435 122 448 q 136 462 136 477 q 125 477 107 473 l 112 468 l 84 460 q 87 455 88 444 q 90 434 92 429 z m 823 422 q 830 450 830 473 q 829 471 826 470 q 824 468 822 468 q 821 468 820 470 q 818 471 818 473 q 817 461 792 449 q 766 437 747 434 q 750 431 754 428 q 759 426 761 425 q 766 425 781 430 q 796 434 805 434 q 818 434 818 428 q 818 423 784 408 q 751 393 747 393 q 750 393 756 394 q 761 394 776 394 q 803 394 807 385 q 800 374 789 370 q 778 365 759 361 q 741 357 730 352 q 718 348 711 338 q 723 343 746 345 q 767 347 779 351 q 787 351 787 340 q 787 331 739 311 q 711 298 711 295 q 721 295 738 299 q 754 303 759 303 q 763 303 767 299 q 771 295 773 291 l 773 303 q 777 302 780 298 q 782 295 783 291 q 756 275 708 260 l 716 259 q 730 260 761 264 q 792 267 794 268 q 799 271 804 298 q 810 324 810 326 l 818 382 q 818 390 820 402 q 822 415 823 422 z m 446 414 q 475 439 494 449 l 491 450 q 484 450 474 444 q 464 437 455 437 l 427 409 q 419 409 391 396 q 363 384 356 378 l 372 377 q 391 377 406 386 q 422 395 446 414 z m 510 445 l 514 441 l 507 442 q 500 442 494 438 q 487 434 482 430 q 476 425 471 421 l 471 413 l 486 417 q 501 417 512 422 q 523 428 523 431 q 523 450 516 450 q 516 449 513 448 q 510 447 510 445 z m 124 400 q 140 412 147 421 q 147 423 146 424 q 145 426 143 426 q 141 426 136 423 q 130 420 123 420 l 123 413 l 116 413 q 96 413 96 402 q 96 398 97 391 q 98 384 100 378 q 104 383 124 400 z m 518 303 q 518 299 515 297 q 512 295 506 294 q 500 292 498 287 l 502 283 q 503 284 515 288 q 527 291 527 298 q 527 301 526 303 q 526 303 527 302 q 528 302 530 302 q 543 302 550 310 l 538 310 l 538 316 q 545 316 554 320 q 562 323 562 330 q 562 346 553 351 q 550 341 543 336 q 536 330 523 324 q 504 316 498 307 q 498 317 504 322 q 511 327 524 332 q 541 338 546 346 q 539 355 534 355 q 531 355 530 354 q 536 360 550 360 q 550 365 546 374 q 541 384 541 389 l 542 393 q 538 392 528 386 q 518 379 516 379 q 516 380 515 380 q 514 381 514 382 q 515 384 518 386 q 520 389 522 390 l 518 393 q 520 395 528 399 q 535 403 535 408 q 535 411 532 412 q 529 414 526 414 q 523 413 513 410 q 503 406 497 406 q 495 406 482 395 q 469 384 469 382 l 494 382 q 491 377 483 374 q 475 372 475 370 l 478 358 q 480 360 487 368 q 494 375 502 375 l 506 374 q 501 366 490 356 q 480 346 480 345 q 484 345 491 343 q 498 341 498 337 q 498 335 494 330 q 490 324 490 323 l 494 303 z m 463 393 l 483 406 l 475 406 q 468 406 465 404 q 462 403 462 398 z m 692 346 q 695 348 700 350 q 704 353 708 354 l 711 354 l 766 378 l 766 374 l 774 382 l 739 382 l 735 390 l 732 382 l 708 378 l 704 385 q 692 373 692 346 z m 131 287 q 137 293 153 303 q 175 316 183 326 q 178 326 174 328 q 171 330 171 332 q 171 339 174 340 q 178 342 186 342 q 195 343 198 346 q 195 364 187 382 q 178 373 167 366 q 149 352 140 342 q 131 333 131 321 q 132 321 136 324 q 141 326 145 326 q 145 314 139 314 l 133 314 q 127 314 127 303 q 127 292 131 287 z m 309 310 q 315 311 332 321 q 350 331 356 335 q 356 337 354 340 q 353 342 353 343 q 367 343 394 354 q 421 365 421 376 q 408 376 396 372 q 384 367 376 366 q 367 366 352 367 q 338 368 328 370 q 325 369 323 360 q 321 352 317 352 q 317 344 313 330 q 309 316 309 310 z m 398 276 q 409 296 416 316 q 424 336 427 362 q 404 350 395 338 l 325 307 q 335 307 348 310 q 360 314 364 315 l 372 314 l 372 310 q 372 305 344 303 q 322 301 309 298 q 296 294 296 286 q 296 284 297 283 l 273 232 q 273 218 278 204 l 302 216 l 306 215 l 305 212 q 306 211 308 208 q 311 206 313 204 q 309 204 304 206 q 300 207 298 208 q 298 207 286 200 q 275 194 265 188 q 265 190 263 192 q 261 193 260 193 q 255 193 231 175 q 205 156 198 153 q 213 153 241 165 q 271 177 286 177 q 288 177 290 175 q 293 173 293 172 q 289 169 282 166 q 275 163 270 163 q 270 151 254 142 q 239 133 222 129 l 242 149 l 245 145 q 248 148 252 151 q 257 154 260 156 q 262 159 262 165 q 254 159 242 155 q 229 151 218 149 l 222 145 q 214 143 202 138 q 189 133 178 133 q 178 125 184 106 q 191 86 196 81 q 200 81 214 90 q 227 99 234 105 q 234 106 236 108 q 237 109 237 110 l 238 105 q 238 98 226 92 q 215 85 214 78 l 237 90 q 244 90 254 96 q 264 101 274 107 q 291 118 294 118 q 302 118 305 110 q 301 103 293 99 q 285 95 277 95 q 277 96 278 96 q 278 97 278 98 q 278 100 273 102 q 268 92 254 86 q 239 80 226 78 l 226 70 q 242 70 262 82 q 256 74 234 62 q 210 51 210 42 q 221 50 252 58 q 282 66 293 66 q 300 66 301 62 q 293 55 278 46 l 273 50 q 271 47 266 40 q 261 34 254 27 q 259 27 282 36 q 304 44 305 46 q 313 62 324 93 q 335 121 342 138 q 350 155 361 169 q 352 165 341 157 l 341 170 q 355 170 364 189 q 373 208 379 228 q 385 248 388 255 q 389 258 398 276 z m 507 346 l 502 346 l 518 354 q 518 346 507 346 z m 165 177 q 171 177 178 182 q 186 187 190 193 q 188 192 179 192 q 163 192 163 196 q 163 206 188 227 q 213 248 234 263 q 220 263 205 255 q 190 247 183 244 l 183 252 q 184 255 202 261 q 227 269 230 276 q 227 277 225 282 q 223 287 219 287 q 212 287 208 283 l 208 295 q 205 294 193 290 q 181 287 175 283 l 174 287 q 174 293 178 295 q 182 297 193 299 q 211 301 211 310 q 211 315 208 324 q 204 334 203 343 q 197 326 187 318 l 187 323 l 159 295 q 155 295 149 290 q 143 284 143 279 q 157 282 167 291 q 167 281 163 278 q 159 275 150 274 q 140 274 135 271 q 140 264 143 244 l 190 279 q 194 276 194 273 q 194 269 180 260 q 167 251 163 244 q 173 244 175 240 q 172 233 166 233 q 159 233 156 230 q 154 228 154 214 q 154 203 156 190 q 159 177 165 177 z m 667 258 l 680 255 q 686 259 696 262 q 706 266 710 267 q 745 277 755 291 q 747 291 731 287 q 719 282 707 282 l 692 283 l 688 287 q 697 298 710 304 q 722 311 742 320 q 765 329 771 335 l 774 343 q 764 334 758 334 q 753 334 748 336 q 743 337 739 338 q 722 327 709 327 l 698 328 q 692 328 688 320 q 685 312 680 283 q 679 278 673 271 q 667 264 667 258 z m 400 326 l 400 310 l 353 287 q 349 287 342 282 q 335 278 333 276 q 332 276 332 279 q 332 286 339 290 q 346 295 358 300 q 373 305 376 310 q 379 315 384 317 q 388 319 394 320 q 400 320 400 326 z m 514 252 q 517 252 536 266 q 555 280 565 288 q 558 288 552 290 q 547 291 546 292 q 547 293 559 296 q 571 299 571 307 q 571 309 569 310 q 563 309 538 296 q 512 282 510 279 q 518 279 523 281 q 528 283 534 287 l 538 283 q 535 282 518 275 q 502 268 502 260 q 504 252 514 252 z m 593 271 q 593 279 586 282 q 578 285 577 291 q 568 279 548 264 q 528 249 514 244 l 520 244 q 527 244 556 255 q 585 266 593 271 z m 328 252 l 294 252 q 294 260 304 270 q 315 279 325 279 q 322 272 317 268 q 312 263 305 260 q 314 260 323 262 q 332 263 341 263 z m 309 224 q 321 225 328 230 q 335 234 346 243 q 355 252 362 256 q 369 260 380 260 l 380 255 q 380 253 354 238 q 328 223 325 212 q 322 216 318 216 l 313 216 q 309 216 309 224 z m 569 216 q 566 212 556 205 q 546 198 541 192 q 536 187 536 179 q 540 179 563 196 q 586 212 589 216 q 590 217 592 226 q 593 234 597 236 q 599 227 607 227 q 607 235 604 246 q 601 257 601 260 q 595 259 592 252 q 588 246 585 244 q 585 244 561 223 q 545 211 538 204 l 566 220 z m 526 208 l 542 220 q 548 226 560 236 q 571 247 577 252 l 581 248 l 585 255 l 576 256 q 564 256 543 244 q 522 232 522 222 l 522 215 q 522 208 526 208 z m 792 249 q 792 253 791 255 l 787 255 l 743 222 q 737 213 700 198 q 664 182 660 180 l 660 194 q 647 194 619 186 q 591 177 568 165 q 546 153 546 143 q 546 136 553 136 l 558 137 q 563 142 600 161 q 638 180 644 180 l 649 177 l 577 141 l 574 137 l 584 136 q 592 136 600 139 q 609 142 617 146 q 625 150 634 153 q 642 156 651 156 q 651 154 652 154 q 653 153 653 152 q 653 147 614 138 q 575 128 553 125 q 558 118 562 100 q 563 98 566 88 q 568 78 574 70 q 581 70 588 73 q 594 76 596 77 q 607 84 617 84 l 617 66 l 625 66 q 625 74 621 78 q 626 82 633 82 q 639 82 641 78 q 638 78 636 76 q 633 74 632 72 q 632 68 634 66 q 637 65 637 63 q 637 60 636 58 q 653 70 688 70 l 688 66 q 693 69 703 73 q 713 77 719 78 q 721 78 722 76 q 724 75 724 74 q 724 72 722 69 q 720 66 719 66 l 656 38 l 660 38 q 669 38 702 48 q 736 58 739 66 q 743 78 747 94 q 751 110 752 112 q 757 121 768 156 q 780 192 780 213 q 781 218 786 230 q 792 242 792 249 z m 649 204 q 670 204 697 212 q 724 219 724 227 l 711 227 q 716 235 731 239 q 740 242 745 245 q 750 248 751 255 q 737 252 709 250 q 679 248 664 244 q 660 239 655 224 q 650 210 649 204 z m 237 252 q 219 246 187 208 q 190 209 216 218 q 242 228 242 236 q 242 239 240 244 q 239 249 237 252 z m 369 216 q 369 211 358 204 q 346 198 338 194 q 330 191 326 189 q 304 180 301 177 l 297 180 l 356 216 l 351 217 q 347 217 342 214 q 336 211 333 211 l 333 216 q 333 220 342 222 q 350 224 358 224 q 369 224 369 216 z m 589 204 l 589 200 q 597 202 608 208 q 618 213 618 218 l 617 224 q 608 212 589 204 z m 190 157 l 222 177 q 224 178 229 188 q 234 197 239 197 q 241 197 242 196 q 244 202 245 208 q 246 214 246 216 l 242 216 q 238 216 213 198 q 188 179 179 169 q 195 172 222 188 q 219 177 193 165 q 191 164 184 160 q 178 157 174 154 q 171 150 171 147 l 171 143 q 171 138 175 137 q 179 140 183 148 q 187 155 190 157 z m 198 200 q 205 200 213 205 q 221 210 226 216 q 216 213 210 210 q 203 207 198 200 z m 569 188 q 569 187 570 186 q 572 185 574 185 q 583 190 583 199 q 569 199 569 188 z m 755 185 q 751 181 734 172 q 716 164 700 157 q 696 162 696 177 l 708 180 q 708 177 710 174 q 711 172 714 172 q 715 172 723 180 q 731 189 743 189 l 747 189 q 754 189 755 185 z m 660 141 l 656 145 q 657 146 666 152 q 676 159 679 172 l 688 172 l 692 153 q 692 151 678 150 q 663 148 660 141 z m 234 129 l 281 149 q 294 153 308 155 q 325 157 334 161 q 334 153 324 148 q 315 142 298 136 q 281 130 273 125 q 268 122 260 116 q 253 109 245 105 q 246 108 250 116 q 253 123 258 123 l 258 118 q 263 125 274 132 q 286 140 287 141 q 279 141 252 130 q 225 119 225 113 q 225 110 226 110 q 221 108 214 106 q 207 105 204 105 q 198 105 198 113 q 198 118 202 124 q 205 130 207 130 l 214 128 q 214 125 212 122 q 210 120 210 118 q 218 121 234 129 z m 700 141 q 711 150 744 150 q 744 143 718 130 q 692 116 676 110 l 680 120 q 687 120 692 130 q 697 139 700 141 z m 598 120 q 620 130 625 137 q 625 130 619 124 q 613 119 605 114 q 597 110 593 107 l 606 107 q 606 94 583 94 q 579 94 576 95 q 573 96 573 100 q 573 105 579 109 q 585 113 590 116 q 595 119 598 120 z m 662 115 l 646 107 l 642 112 l 646 120 q 646 118 648 116 q 649 115 650 115 q 652 115 656 118 q 661 121 662 121 z m 727 110 l 728 107 q 728 101 715 94 q 702 88 688 84 q 673 79 668 78 l 672 86 q 664 86 660 82 l 655 86 q 655 89 659 92 q 663 95 666 95 l 676 94 l 676 102 q 676 104 696 110 q 715 116 724 118 q 723 116 721 113 q 719 110 719 105 z m 204 54 q 209 54 213 60 q 217 65 218 70 q 215 69 206 66 q 198 62 198 61 q 198 58 200 56 q 202 54 204 54 z m 585 50 q 591 50 596 53 q 600 56 601 62 q 596 57 582 57 l 576 57 q 576 54 579 52 q 582 50 585 50 z m 599 17 q 607 17 619 25 q 631 33 640 42 q 650 52 650 54 q 642 52 633 50 q 624 47 621 46 q 622 48 626 54 q 629 59 629 62 q 612 58 612 56 q 612 55 617 50 q 599 37 588 37 q 588 29 591 23 q 594 17 599 17 z m 262 46 l 255 46 q 245 46 228 42 q 210 38 206 30 q 206 22 210 14 q 214 5 220 5 q 223 5 232 18 q 240 32 262 46 z m 732 42 q 729 42 726 40 q 722 38 719 38 q 694 35 658 22 q 651 20 621 11 l 621 5 q 627 5 636 8 q 645 12 650 12 q 663 12 678 8 q 692 3 692 -7 q 692 -8 691 -12 q 690 -15 688 -17 l 700 -16 q 716 -16 716 -21 q 722 -13 727 8 q 732 28 732 42 z m 299 29 q 288 29 273 18 q 271 17 266 14 q 260 10 254 10 q 252 10 250 12 q 247 14 245 14 q 243 13 240 11 q 238 9 237 7 l 286 7 q 299 7 299 29 z"},"A":{"x_min":0,"x_max":563,"ha":563,"o":"m 7 10 q 7 26 30 64 q 43 86 43 92 q 53 135 89 236 q 93 247 97 260 q 101 272 106 286 q 109 296 113 316 q 116 331 122 350 q 126 362 130 370 q 149 415 205 586 q 207 590 213 606 q 219 623 220 638 q 225 636 244 635 q 262 634 269 634 q 307 633 328 631 q 349 629 352 622 q 352 602 365 564 q 378 526 378 524 q 391 451 408 408 q 424 365 454 310 q 484 215 529 117 q 532 102 545 74 q 562 38 568 16 q 563 8 540 6 q 517 4 468 4 q 450 4 438 6 q 426 9 422 18 q 413 36 395 66 q 371 110 363 128 q 331 129 290 133 q 261 136 248 136 q 219 136 204 131 q 190 126 184 117 q 178 108 172 89 q 169 77 161 57 q 149 31 135 9 q 121 -13 114 -13 q 77 -2 20 -2 q 15 -2 11 2 q 7 5 7 10 z m 227 598 q 226 595 223 588 q 220 581 220 574 q 233 582 261 610 l 264 607 q 266 607 269 610 q 261 612 253 616 q 245 620 234 620 q 234 610 227 598 z m 330 233 q 330 234 326 236 l 326 247 q 318 247 308 239 q 299 231 297 230 q 295 229 286 222 q 278 215 272 215 l 303 247 q 300 247 282 235 q 278 232 267 226 q 256 219 250 219 q 245 214 230 202 q 216 189 209 187 q 207 188 205 190 q 203 191 201 192 q 201 195 220 213 q 239 231 244 231 q 245 231 246 230 q 248 228 248 227 q 249 228 257 240 q 265 251 276 259 q 273 260 259 260 q 244 260 225 244 q 206 228 200 218 q 197 222 196 222 q 193 222 190 215 q 187 208 180 205 q 178 209 176 215 q 175 221 175 223 q 175 227 182 234 q 190 242 192 244 q 207 257 210 264 l 209 267 l 233 278 l 327 278 l 303 338 q 304 341 294 366 q 284 391 280 393 q 279 391 273 380 q 267 368 261 368 q 261 350 252 329 q 244 308 233 293 q 222 278 215 278 q 213 279 209 282 q 205 284 205 286 q 205 293 219 321 q 233 345 233 353 l 213 345 l 212 348 q 212 353 219 356 q 226 360 233 361 q 239 367 246 377 q 252 387 256 393 q 259 396 268 415 q 278 435 282 437 q 283 436 286 434 q 290 431 292 428 q 293 427 297 414 q 301 401 303 401 l 310 401 q 310 399 309 396 q 308 393 308 389 q 308 384 313 384 l 316 385 q 323 397 347 412 q 357 419 362 424 q 367 428 367 433 l 363 441 q 362 431 343 420 q 324 409 313 409 q 306 409 306 414 q 306 419 316 434 q 326 449 327 452 q 341 461 363 483 q 362 484 362 486 q 362 488 363 491 q 364 494 364 497 q 357 497 347 490 q 337 483 331 483 q 335 488 344 494 q 352 501 356 506 q 360 511 360 519 q 360 524 349 558 q 338 593 331 610 q 330 609 328 609 q 325 609 312 612 q 300 615 296 615 q 280 615 280 614 l 261 594 q 254 584 238 572 q 217 553 209 543 q 214 543 253 571 l 276 586 q 285 592 296 598 q 306 605 311 607 l 319 607 q 316 601 304 594 q 292 588 288 583 l 319 599 q 320 598 320 594 q 320 589 316 588 q 312 586 308 583 q 309 584 268 546 q 239 518 225 506 q 211 495 197 492 l 201 500 l 194 496 q 192 496 190 497 q 189 498 189 499 q 186 493 186 488 q 180 482 178 472 q 176 463 175 447 q 175 426 170 413 q 172 415 180 421 q 188 427 196 427 q 200 427 208 436 q 215 446 223 454 q 231 462 241 464 l 241 455 q 236 455 233 450 q 230 445 225 444 q 225 443 226 442 q 228 441 228 441 q 236 441 242 446 q 248 450 252 452 l 253 448 q 252 446 237 437 q 222 428 217 425 q 212 421 205 418 q 198 414 195 412 q 178 405 173 401 q 165 395 157 378 q 149 361 144 345 q 138 329 137 324 q 145 324 152 331 q 158 338 162 346 q 167 354 169 357 l 165 357 q 159 357 158 361 q 160 361 166 370 q 173 378 178 378 q 180 378 181 377 l 194 393 q 195 393 198 392 q 201 390 201 386 q 200 384 195 380 q 190 375 189 373 q 184 368 176 352 q 174 349 166 336 q 159 324 153 317 q 147 310 142 310 l 134 310 l 122 286 q 133 286 151 304 q 162 314 170 320 q 179 325 189 325 l 173 310 l 202 325 l 202 321 l 210 329 q 215 324 215 323 q 215 319 198 306 q 182 292 163 278 q 146 265 132 254 q 117 242 117 239 l 121 239 q 121 233 110 226 q 100 218 98 215 q 91 206 85 184 q 79 161 79 145 l 106 164 q 114 161 126 161 l 126 152 q 102 152 82 142 q 62 131 62 109 q 69 112 84 127 q 92 135 100 142 q 109 148 116 148 q 127 148 127 140 l 126 136 l 122 140 q 118 139 110 136 q 103 132 103 129 q 103 129 104 128 q 105 128 107 128 q 113 128 118 133 l 118 128 q 99 121 77 106 q 55 92 55 79 q 56 77 58 74 q 61 71 62 70 q 68 72 68 78 l 62 78 q 65 80 70 84 q 74 89 76 89 q 81 89 83 78 l 83 73 q 80 70 66 62 q 53 53 44 42 q 35 32 35 22 q 35 15 52 12 q 69 9 89 9 l 114 10 q 138 65 159 101 l 145 93 l 142 94 q 140 93 138 89 q 135 85 133 81 q 133 91 141 102 q 149 114 159 114 l 165 112 q 176 130 185 136 q 181 137 177 140 q 173 143 173 146 q 173 149 196 162 q 200 164 212 172 q 224 179 225 183 q 228 179 242 179 q 204 159 204 157 q 204 148 209 148 l 245 148 q 245 153 241 156 l 248 157 q 253 157 262 155 q 270 153 275 153 q 279 153 284 163 q 288 173 292 180 q 296 187 303 187 q 300 178 296 176 l 300 175 q 306 175 312 180 q 317 184 319 185 q 320 186 327 191 q 334 196 343 196 l 346 195 q 341 193 318 172 q 294 152 292 148 l 308 147 q 320 147 328 154 q 337 161 347 174 q 360 193 372 199 q 372 193 366 182 q 361 170 357 165 q 365 169 389 193 q 407 211 409 211 q 410 211 414 210 q 417 210 427 210 q 439 210 446 211 q 446 210 430 200 q 415 189 411 186 q 408 186 402 195 l 403 191 q 403 181 374 166 q 346 150 343 148 q 347 148 351 147 q 355 146 360 146 q 371 146 375 156 q 376 152 383 152 q 388 152 397 158 q 406 164 410 164 q 409 161 398 150 q 386 138 386 135 q 386 129 390 127 q 395 125 395 125 q 398 125 401 126 q 404 127 406 128 q 406 109 399 105 q 400 102 402 98 q 404 95 406 93 q 409 94 414 96 q 418 99 418 101 l 422 97 l 418 93 q 422 92 424 72 q 441 85 474 101 q 475 101 476 100 q 478 98 478 97 q 478 89 454 77 q 431 65 426 63 q 428 56 430 54 q 434 54 439 56 q 444 57 449 57 l 434 45 q 433 45 432 44 q 430 43 430 42 l 435 35 q 445 41 458 47 q 471 53 475 53 q 480 53 491 50 q 502 46 509 46 q 507 42 437 32 q 441 26 445 26 q 465 30 474 30 q 479 30 492 26 q 505 23 544 22 l 549 26 q 538 32 536 55 q 534 69 530 76 q 527 83 518 83 q 512 83 512 76 q 511 70 510 66 q 508 62 502 62 q 465 62 464 63 q 473 68 484 74 q 496 80 500 83 q 505 86 505 88 q 505 92 512 96 q 518 100 518 114 q 501 103 494 102 q 497 107 501 115 q 505 123 505 134 q 505 145 482 185 q 468 209 466 215 l 456 242 q 434 297 434 310 l 430 310 l 408 286 q 397 282 394 275 l 402 275 l 402 269 q 368 241 308 202 l 269 189 q 300 209 315 220 q 330 230 330 233 z m 244 558 q 228 550 212 537 q 196 524 196 511 l 197 508 q 199 509 212 518 q 224 527 231 527 q 235 527 240 536 q 244 545 249 545 q 250 545 256 543 l 284 571 l 280 579 q 266 574 258 568 q 249 561 244 558 z m 269 518 q 308 541 308 547 l 308 551 l 299 551 q 299 557 308 563 l 311 558 q 317 561 324 564 q 331 566 335 567 l 335 563 q 334 558 319 546 q 304 533 287 521 q 282 518 261 503 l 244 488 q 202 446 188 446 q 188 449 190 454 q 192 459 192 462 q 204 475 222 488 q 240 500 269 518 z m 319 524 q 319 532 326 533 q 334 534 338 535 q 343 536 343 543 q 344 542 346 540 q 347 537 347 535 q 347 532 342 526 q 338 521 335 519 q 334 524 319 524 z m 342 511 q 329 504 300 488 q 270 473 254 466 l 282 497 l 302 510 q 302 503 309 503 q 314 503 324 508 q 334 514 336 514 q 338 514 340 513 q 341 512 342 511 z m 327 425 q 330 426 343 435 q 356 444 377 452 q 375 453 373 462 q 371 471 371 480 q 366 475 354 464 q 343 453 335 443 q 327 433 327 425 z m 261 425 q 257 422 242 412 q 228 401 216 398 q 216 402 233 418 q 250 435 271 449 q 292 463 307 465 q 299 459 284 446 q 268 432 261 425 z m 331 342 q 333 345 359 367 q 367 375 379 386 q 391 396 391 397 q 391 399 388 399 q 385 399 379 398 q 373 396 367 393 q 367 402 371 404 q 375 406 387 406 q 387 421 383 433 q 375 423 359 413 q 343 403 335 393 q 340 393 348 395 q 355 397 359 397 l 359 389 q 356 386 347 386 q 338 385 332 384 q 326 383 326 378 q 326 377 328 374 q 331 371 331 369 q 331 362 329 362 q 327 362 322 367 q 317 372 314 375 q 314 365 318 356 q 323 347 331 342 z m 349 299 l 347 291 q 360 293 392 309 q 423 325 423 334 q 423 342 417 342 q 411 342 404 335 q 397 328 396 327 q 378 307 363 302 l 361 305 q 361 309 385 330 q 409 351 415 351 q 415 357 407 358 q 399 358 399 359 q 399 360 402 363 q 405 366 408 372 q 408 377 404 384 q 399 390 396 390 q 389 390 366 366 q 342 343 339 334 q 345 336 357 340 q 369 345 375 345 l 375 341 q 370 339 356 331 q 343 323 337 321 q 337 314 343 309 q 349 304 349 299 z m 228 369 q 186 337 176 337 q 176 342 198 357 q 219 372 224 372 q 225 372 226 370 q 228 369 228 369 z m 339 251 q 367 258 386 283 l 391 283 q 394 283 406 297 q 418 311 418 314 q 413 312 390 302 q 367 293 353 280 q 339 267 339 251 z m 114 259 l 114 255 q 120 257 140 270 q 159 282 166 286 l 178 302 q 158 294 136 280 q 114 265 114 259 z m 161 259 l 165 257 q 168 257 171 263 q 174 269 178 269 q 178 262 174 258 q 170 253 161 246 q 159 244 152 239 q 146 234 145 227 q 132 214 122 208 q 132 211 146 220 q 161 228 166 236 q 166 227 156 220 q 146 213 128 203 q 126 202 116 196 q 106 190 106 186 q 103 186 100 189 q 98 192 98 194 q 99 195 112 208 q 124 222 161 259 z m 387 241 l 384 242 q 397 262 416 262 l 420 262 q 418 258 404 250 q 391 241 387 241 z m 395 232 q 397 234 410 244 q 422 253 434 255 q 433 252 412 234 q 390 215 386 215 l 378 215 l 378 219 q 383 222 395 232 z m 450 236 q 439 219 430 219 q 422 219 422 227 q 434 236 450 236 z m 426 176 q 426 183 439 196 q 452 208 456 208 q 459 207 462 206 q 464 204 466 203 q 463 201 442 184 q 422 168 418 168 q 417 168 416 169 q 414 170 414 172 l 422 180 z m 170 195 l 172 191 q 172 184 157 176 q 142 168 135 167 q 133 168 130 170 q 128 171 126 172 q 124 172 120 170 q 117 168 114 168 q 127 185 145 192 l 142 184 q 146 185 155 186 q 164 188 170 195 z m 414 152 l 410 153 q 410 153 412 154 q 413 156 414 156 q 422 161 436 168 q 449 176 458 180 q 452 172 438 162 q 423 152 414 152 z m 434 140 l 426 143 q 426 136 424 134 q 423 132 416 132 q 416 142 436 157 q 456 172 469 176 q 469 169 462 162 q 454 155 446 149 q 437 143 434 140 z m 170 160 q 170 156 154 143 q 138 130 130 125 q 133 132 145 142 q 159 154 161 164 q 164 160 170 160 z m 410 117 q 410 119 439 134 q 468 150 482 156 q 485 153 485 145 q 478 136 464 126 q 450 115 446 112 l 445 115 q 446 117 450 122 q 455 128 458 133 q 459 133 462 132 q 464 130 466 129 l 466 145 q 439 123 410 117 z m 469 108 l 469 112 q 469 113 478 118 q 487 124 492 125 q 492 119 484 114 q 476 109 469 108 z m 104 104 l 97 105 q 100 110 108 114 q 116 119 122 120 q 120 116 114 112 q 107 107 104 104 z m 128 97 q 124 78 110 71 q 96 64 95 63 q 94 63 92 65 q 90 67 89 68 q 89 77 106 91 q 123 105 135 108 q 135 108 128 97 z m 90 57 q 89 49 80 34 q 72 18 65 18 q 59 18 59 24 q 59 32 70 42 q 81 53 90 57 z"},"f":{"x_min":0,"x_max":348,"ha":348,"o":"m 299 380 q 266 379 248 376 q 229 373 229 362 q 229 358 234 342 q 238 326 238 305 q 238 234 235 154 q 234 126 233 86 q 232 46 232 -6 q 222 -16 171 -16 l 151 -16 q 134 -16 124 -14 q 113 -12 106 -6 l 107 29 q 106 155 78 325 q 77 332 76 342 q 76 352 74 359 q 72 366 66 372 l 23 372 q 21 372 18 374 q 15 376 15 378 q 15 385 19 390 q 23 395 23 400 q 23 410 32 432 q 39 448 39 455 q 39 467 60 467 q 70 467 76 470 q 82 472 82 480 q 82 490 78 495 l 90 594 q 90 600 96 612 q 102 625 106 625 l 130 661 l 208 703 l 228 711 q 229 710 274 698 q 319 687 319 664 q 319 659 316 657 q 314 655 307 653 l 311 649 q 312 647 315 628 q 318 610 319 602 q 319 585 309 585 q 298 585 295 594 q 251 594 237 573 q 223 552 223 508 q 223 484 232 474 q 240 464 258 462 q 276 459 322 459 l 331 459 q 331 458 330 455 q 330 452 330 441 l 332 384 q 332 380 299 380 z m 218 688 q 227 688 236 692 q 246 695 246 700 q 224 700 218 688 z m 189 664 q 205 664 219 668 q 233 673 238 684 q 211 681 201 676 q 191 670 189 669 z m 272 669 l 280 664 q 269 657 243 647 q 214 636 200 628 q 205 628 212 630 q 220 633 224 633 q 225 632 228 628 q 231 625 232 625 q 238 625 242 626 q 246 628 252 630 l 252 625 q 260 628 265 634 q 270 639 272 641 q 275 641 278 638 q 281 636 283 636 q 279 633 275 623 q 275 620 280 615 q 286 610 289 609 q 294 609 295 614 q 296 618 296 626 q 296 648 292 660 q 289 672 275 672 z m 247 672 q 245 669 238 664 q 231 660 228 656 q 238 656 243 658 q 248 660 248 669 z m 102 517 q 105 517 108 520 q 112 523 114 526 l 114 518 q 120 529 134 536 q 147 544 150 545 q 167 552 169 558 q 166 560 162 562 q 157 565 153 566 l 122 562 l 117 562 l 117 571 l 121 570 q 123 570 124 574 q 124 579 125 581 q 128 586 137 591 q 146 596 150 598 q 161 603 169 609 q 163 609 154 606 q 144 604 139 604 l 125 605 q 125 607 127 610 q 129 612 129 613 q 132 615 164 630 q 195 645 197 653 l 178 653 l 177 656 q 177 657 179 660 q 181 662 181 664 q 172 661 164 661 q 126 653 114 602 q 102 551 102 550 z m 185 633 q 165 623 157 617 q 182 617 185 633 z m 247 621 q 243 621 230 618 q 216 616 205 613 q 198 613 196 608 q 195 602 189 601 l 189 605 q 179 602 162 589 q 146 578 141 578 q 152 575 165 575 q 191 573 200 566 q 197 559 163 543 q 155 538 147 534 q 139 530 133 526 l 164 526 q 164 531 180 538 q 196 545 200 545 q 207 550 210 562 q 214 575 215 577 q 219 593 224 601 q 227 606 236 611 q 244 616 247 621 z m 132 516 q 115 514 106 509 q 98 504 98 489 q 98 463 117 463 q 115 461 114 456 q 113 450 113 447 l 117 447 q 120 449 142 463 q 156 471 172 483 l 135 483 q 135 490 141 492 q 147 493 163 494 q 180 495 188 498 q 197 501 197 511 q 197 515 195 517 q 193 519 190 520 q 187 521 185 522 q 167 522 148 506 q 128 491 123 479 q 117 479 117 487 q 117 494 122 498 l 125 495 q 127 504 130 508 q 134 511 144 514 q 153 516 157 522 q 150 518 132 516 z m 98 368 q 99 378 114 386 q 129 394 141 396 l 133 404 q 146 412 162 414 q 177 417 180 418 q 207 422 220 428 q 224 430 228 435 q 233 440 247 443 q 231 446 208 467 q 194 479 190 479 q 188 479 170 468 q 153 457 145 451 l 169 451 l 169 447 q 173 454 179 456 q 185 458 196 458 q 193 448 152 427 q 111 406 86 397 q 86 397 88 396 q 89 395 93 395 q 103 395 122 400 q 123 399 123 397 q 123 394 108 390 q 92 387 90 380 q 90 374 98 368 z m 82 404 l 157 439 l 145 439 q 134 436 108 426 q 82 417 82 415 l 79 416 q 79 422 82 426 q 86 429 94 434 q 103 438 106 443 q 86 451 86 451 q 64 451 53 442 q 42 432 42 408 q 58 419 62 420 l 70 418 l 70 410 q 68 410 54 401 q 40 392 40 388 q 44 388 48 388 q 51 387 55 384 q 56 385 67 392 q 78 398 82 404 z m 260 415 q 277 415 292 425 q 308 435 308 450 q 298 450 283 438 q 268 426 260 415 z m 166 387 q 203 396 226 405 q 249 414 263 431 l 259 433 q 252 430 230 420 q 209 409 185 396 l 157 396 l 153 392 q 132 382 124 378 q 117 373 117 372 q 126 376 166 387 z m 307 415 l 295 415 l 299 420 q 295 420 289 416 q 283 413 280 412 q 258 399 247 399 l 247 392 l 307 400 z m 213 356 q 207 358 206 365 q 205 372 204 376 q 202 380 197 380 q 193 380 186 372 q 178 365 177 364 q 185 361 195 361 q 195 348 189 342 q 183 336 169 329 q 153 321 145 313 l 145 309 q 152 311 178 318 q 205 326 213 326 z m 109 297 l 114 297 q 121 304 139 318 q 163 338 172 348 q 171 348 170 350 q 169 351 168 351 q 167 351 147 345 l 118 336 q 116 336 112 338 q 107 339 106 340 q 123 353 164 372 l 155 372 q 140 372 119 365 q 98 358 98 349 q 99 338 102 318 q 106 297 109 297 z m 213 313 l 177 301 l 185 297 q 182 295 172 294 q 163 293 156 291 q 149 289 149 285 l 149 281 q 160 281 180 287 q 199 294 213 294 z m 135 296 q 123 296 118 293 q 112 290 112 280 q 112 274 114 270 q 115 277 126 283 q 138 289 141 293 z m 213 281 q 201 277 181 263 q 166 251 153 246 q 153 253 158 258 q 164 262 170 266 q 177 271 181 273 l 169 274 q 144 274 128 264 q 112 255 112 233 q 121 233 132 240 q 142 248 145 250 l 146 246 q 146 241 140 236 q 133 231 130 227 q 133 230 148 232 q 164 235 178 235 q 201 235 201 228 q 201 221 195 217 q 189 213 176 209 q 160 203 157 198 l 161 195 l 197 203 l 205 198 q 198 190 171 170 q 153 158 145 151 q 146 151 150 150 q 155 150 161 150 q 181 150 197 154 q 213 159 213 171 z m 137 195 q 139 199 146 202 q 154 204 156 205 q 169 209 175 213 q 181 217 181 226 q 173 222 165 222 l 145 223 q 122 220 122 218 l 122 187 l 130 187 l 125 143 q 134 153 150 164 q 170 178 177 187 q 168 187 156 185 q 145 183 140 183 q 140 185 138 188 q 137 192 137 195 z m 160 123 q 180 132 189 143 l 185 148 q 178 146 170 145 q 162 144 159 144 q 141 143 133 137 q 125 131 125 107 q 125 101 130 99 q 135 107 144 113 q 152 119 160 123 z m 189 129 q 175 123 169 116 q 178 116 190 120 q 202 124 208 124 l 208 143 q 203 135 189 129 z m 213 92 l 208 107 l 200 109 q 196 109 190 100 q 184 90 172 84 l 189 84 l 185 80 q 190 80 197 86 q 204 91 213 92 z m 208 30 q 199 30 185 21 q 165 11 154 11 q 154 16 158 18 q 162 20 170 22 q 178 24 181 30 q 176 30 176 36 q 176 38 184 52 q 193 67 197 72 l 177 72 l 177 77 q 169 77 156 72 q 144 68 133 68 q 142 86 151 86 q 153 86 157 84 q 160 92 168 96 q 177 99 181 104 q 153 101 130 92 q 130 86 128 60 q 125 33 125 14 q 125 12 126 8 q 128 4 130 2 q 153 2 171 5 q 195 7 208 7 z m 209 47 l 208 68 l 205 41 q 205 42 207 44 q 209 46 209 47 z"},"Q":{"x_min":0,"x_max":710,"ha":710,"o":"m 50 212 q 48 221 46 228 q 44 235 43 242 q 36 269 32 286 q 29 304 29 327 l 30 375 q 30 416 64 478 q 97 539 152 584 q 206 630 267 630 q 275 630 305 634 q 311 635 349 639 q 387 643 453 643 q 494 629 519 613 q 544 597 562 578 q 581 558 614 517 q 645 478 658 410 q 671 343 671 271 q 671 230 664 196 q 656 163 641 118 q 642 109 663 96 q 678 86 686 78 q 694 70 694 59 q 694 56 669 33 l 650 15 q 646 11 635 -6 q 624 -24 618 -24 q 609 -24 600 -18 q 592 -12 577 2 q 568 10 559 17 q 550 24 543 24 q 535 24 519 12 q 504 -1 495 -1 q 497 1 511 24 q 525 47 541 47 q 544 47 552 44 q 559 40 564 39 q 564 42 566 48 q 567 53 571 53 l 571 43 q 590 55 608 78 q 627 100 627 104 q 627 110 626 110 q 622 108 600 96 q 584 85 567 79 l 567 87 l 564 79 q 563 79 541 65 q 515 47 512 47 q 515 50 530 63 q 540 70 548 79 q 545 78 534 74 q 523 69 515 67 q 454 47 413 23 l 409 24 q 406 24 402 21 q 397 18 393 18 l 393 22 q 400 22 412 32 q 423 43 429 43 l 433 39 q 443 48 470 62 q 496 75 508 75 l 559 98 q 560 97 563 97 q 571 97 571 106 q 571 105 572 104 q 574 103 575 103 q 580 103 587 108 q 594 114 598 114 q 605 114 606 110 q 618 111 622 118 q 626 124 626 137 q 610 126 578 119 q 563 116 548 110 q 541 107 528 100 q 516 93 503 93 q 503 95 508 102 q 512 108 512 110 l 457 79 q 453 79 444 67 q 435 55 425 47 q 419 47 385 31 l 413 59 q 399 59 377 47 q 353 35 338 35 q 342 41 350 44 q 358 48 362 51 l 366 47 q 367 50 407 67 q 454 88 486 104 q 518 121 528 134 l 499 134 q 499 145 551 145 q 559 145 566 149 q 572 153 581 153 q 588 153 588 143 q 588 140 580 136 q 571 132 560 129 q 541 123 530 118 q 520 113 520 106 q 551 122 591 134 q 591 142 604 148 q 616 154 626 154 l 626 145 q 641 155 641 188 q 639 188 634 186 q 630 185 626 185 q 622 187 621 190 q 620 194 616 196 q 612 197 597 197 q 589 197 578 195 q 567 193 561 193 q 554 193 550 195 q 546 197 543 197 q 537 197 511 185 q 477 169 465 169 l 465 178 l 401 165 q 424 142 435 142 q 437 142 443 146 q 449 151 453 153 q 449 153 444 152 q 440 150 437 150 q 438 154 446 160 q 453 166 456 166 q 459 166 462 164 q 466 163 468 161 l 449 142 q 460 145 478 152 q 495 159 500 161 l 501 155 q 501 145 485 145 l 468 146 l 468 137 l 492 134 q 466 130 459 126 q 452 122 441 106 l 449 100 l 417 100 q 419 98 420 96 q 421 95 421 94 q 421 92 419 88 q 417 84 417 82 l 382 62 l 378 62 l 318 35 q 319 42 324 45 q 328 48 337 50 q 345 52 349 54 q 353 57 354 62 l 358 59 q 363 59 372 66 q 380 72 382 79 q 369 75 358 75 q 368 88 378 90 q 377 91 372 91 q 367 91 362 85 q 356 79 352 79 q 351 79 350 80 q 348 82 346 82 q 345 76 336 70 q 328 64 316 58 q 305 51 299 47 l 298 50 q 298 58 305 64 q 312 69 324 74 q 337 80 337 83 q 337 87 333 87 q 329 87 320 82 q 310 78 306 78 l 303 79 l 271 59 l 299 87 q 269 74 267 62 l 263 67 q 262 66 255 62 q 248 58 248 54 l 259 54 q 251 51 240 44 q 229 36 224 31 q 227 27 230 22 q 234 17 236 15 q 238 15 240 16 q 243 18 245 18 l 244 23 q 244 26 248 27 l 251 23 l 287 39 q 281 31 266 23 q 252 15 248 12 q 265 10 292 0 q 327 -13 349 -13 q 383 -13 408 -8 q 433 -3 453 12 q 483 35 484 35 l 492 35 q 488 29 472 18 q 458 10 453 4 l 504 20 l 489 0 q 489 -11 472 -15 q 454 -19 422 -21 q 417 -21 407 -22 q 397 -23 393 -24 q 386 -24 369 -29 q 336 -36 326 -36 q 295 -36 233 -2 q 171 31 129 62 q 115 71 86 129 q 56 187 50 212 z m 362 624 q 342 624 333 618 q 324 612 311 596 q 303 584 295 576 l 295 572 z m 349 560 q 351 561 356 564 q 361 566 362 568 l 366 564 q 367 581 381 590 q 395 600 419 609 q 437 616 437 619 l 437 624 q 432 620 427 620 q 426 620 406 624 l 406 616 q 397 618 393 624 q 379 617 349 560 z m 121 513 q 154 523 165 541 q 222 567 226 567 q 232 567 248 577 q 263 587 267 590 q 270 592 282 600 q 295 608 299 608 l 299 616 q 295 614 289 611 q 283 608 279 607 q 275 607 271 610 q 267 612 261 612 q 248 612 222 604 q 196 596 185 588 q 164 570 144 546 q 125 523 121 513 z m 385 548 q 395 548 411 552 q 427 556 429 556 q 435 568 460 572 q 486 576 489 576 q 494 577 500 584 q 507 590 512 591 q 510 595 503 600 q 496 604 492 604 l 492 597 l 487 596 q 484 596 484 599 l 489 607 q 489 610 478 612 q 467 615 463 616 q 452 616 433 604 q 414 592 400 576 q 385 560 385 548 z m 53 339 l 54 311 l 66 319 l 62 323 q 69 324 78 336 q 87 347 94 347 q 94 346 96 344 q 97 343 100 343 q 106 343 135 352 q 164 360 165 363 q 165 370 167 380 q 169 389 169 395 q 166 395 158 390 q 151 386 149 386 l 149 391 q 137 391 87 352 l 69 339 q 119 393 173 414 l 168 415 q 146 415 97 386 q 97 395 109 401 q 121 407 133 410 l 133 414 l 129 414 l 129 421 l 94 394 l 90 394 q 131 444 157 446 q 157 442 146 434 q 136 427 136 425 q 136 422 138 418 q 141 414 143 414 q 152 414 172 428 q 193 441 201 450 q 205 459 223 480 q 241 502 255 513 q 273 528 323 536 q 334 547 345 569 q 356 591 362 611 q 355 596 350 592 q 345 588 337 588 q 326 588 320 584 q 313 579 305 569 q 294 554 283 549 q 267 549 248 533 l 251 528 q 245 527 228 522 q 210 516 204 508 l 204 517 q 207 517 214 522 q 220 527 224 529 q 242 543 248 544 l 295 591 l 292 592 q 287 589 278 586 q 270 582 261 577 q 171 538 165 528 l 168 525 l 152 517 l 157 525 l 125 505 l 129 500 q 117 500 112 493 q 106 486 100 471 q 97 462 94 458 q 91 453 86 453 q 86 451 88 448 q 90 445 92 445 q 97 445 102 454 q 106 464 110 466 q 154 492 180 505 l 180 497 l 176 497 q 177 497 149 481 q 121 465 121 461 q 121 459 122 456 q 124 454 125 453 q 126 458 130 462 q 134 466 137 466 q 139 463 143 463 q 149 463 158 469 q 168 475 173 481 l 176 477 q 189 493 212 493 q 217 493 219 492 q 221 490 224 485 q 222 483 214 474 q 205 466 201 466 l 196 469 q 194 462 185 453 l 180 458 q 174 449 165 446 l 165 450 l 185 469 l 178 470 q 166 470 139 455 q 112 440 92 426 l 92 438 q 53 418 53 339 z m 595 244 l 606 248 q 608 248 610 246 q 611 245 611 244 q 624 254 647 256 q 647 260 644 264 q 642 267 642 272 q 642 278 644 282 q 647 286 647 288 q 646 345 642 384 q 637 422 623 461 q 618 476 580 528 q 542 580 532 580 q 532 579 509 566 q 486 554 461 536 q 490 536 540 549 q 543 549 547 546 q 551 544 552 542 q 552 533 540 528 q 527 522 504 517 q 493 514 484 511 q 476 508 476 505 l 508 508 q 513 508 531 516 q 534 517 544 521 q 553 525 559 525 q 563 525 568 522 q 572 520 572 519 q 572 515 560 509 q 547 503 545 502 q 517 487 512 481 q 522 481 546 487 q 568 493 582 493 q 587 493 590 492 q 593 490 595 485 q 589 474 568 466 q 556 461 550 456 q 543 451 540 442 q 551 448 572 457 q 594 466 598 466 q 601 464 606 458 q 611 453 611 451 q 610 449 605 444 q 600 439 598 438 l 595 442 q 592 432 582 425 q 572 418 570 417 q 558 410 551 402 l 567 401 q 572 401 579 402 q 586 404 589 404 q 600 407 611 407 q 623 407 623 401 q 623 399 620 395 q 618 391 614 391 l 611 394 q 609 385 600 379 q 591 373 575 367 q 558 361 550 356 q 542 352 540 343 q 549 343 551 339 q 540 339 540 319 q 549 320 575 335 q 588 342 602 348 q 616 354 624 354 q 630 354 634 351 l 631 343 l 626 347 q 626 339 620 336 q 615 333 602 331 q 589 329 587 323 l 583 327 l 551 311 q 554 310 554 305 q 554 301 549 290 q 544 278 543 272 l 567 284 l 567 280 q 570 282 581 285 q 592 288 595 292 q 598 295 600 301 q 602 307 605 309 q 608 311 616 311 q 626 311 631 303 q 620 292 603 284 q 586 277 559 267 q 553 265 548 263 q 544 261 540 260 l 536 256 q 542 244 595 244 z m 450 512 q 464 512 480 518 q 497 524 500 533 l 473 532 q 455 530 445 530 l 445 538 q 449 538 466 548 q 482 558 482 565 q 467 565 434 554 q 401 542 385 533 q 388 530 415 521 q 442 512 450 512 z m 357 536 q 359 537 363 541 q 367 545 370 549 q 368 552 361 552 q 358 552 356 547 q 353 542 350 541 q 350 540 352 538 q 355 536 357 536 z m 240 145 q 244 139 290 126 q 337 113 344 113 q 367 113 386 118 q 406 123 406 134 q 402 141 390 147 q 379 153 378 158 l 366 178 q 366 186 373 191 q 380 196 390 200 q 400 205 406 209 q 414 215 422 231 q 429 244 434 250 q 440 256 450 256 q 461 256 470 249 q 478 242 491 228 q 497 221 504 215 q 510 209 515 209 l 521 209 q 521 220 518 230 q 515 248 515 250 q 515 262 518 272 q 520 286 520 294 q 520 323 515 366 q 510 410 500 426 q 481 457 468 470 q 454 482 442 488 q 429 495 425 497 q 384 521 347 521 q 337 521 323 514 q 309 508 308 508 q 292 508 276 499 q 259 490 255 485 l 243 469 q 214 429 205 414 q 196 400 196 386 q 187 358 187 309 l 188 260 q 190 255 209 209 q 228 163 240 145 z m 467 498 q 472 496 478 492 q 483 487 492 477 l 500 493 l 506 493 q 506 501 492 501 q 486 501 480 500 q 473 498 467 498 z m 519 446 q 524 446 547 462 q 577 480 579 481 l 575 481 q 563 480 534 475 q 506 470 504 466 q 504 465 508 456 q 512 446 519 446 z m 533 382 q 537 369 539 359 q 544 367 554 374 q 565 380 573 380 q 575 380 579 378 l 611 402 q 592 394 561 394 q 553 394 548 395 q 542 396 540 396 q 540 405 547 412 q 554 420 568 430 q 582 440 587 446 q 586 447 584 448 q 581 450 579 450 q 571 450 557 443 q 539 435 528 435 q 524 435 524 432 q 524 418 533 382 z m 91 171 q 105 186 128 195 q 150 204 180 212 q 180 214 178 222 q 176 231 173 244 q 166 244 161 240 q 156 237 152 232 q 140 216 121 216 l 118 217 q 120 219 136 229 q 153 239 153 245 q 153 247 152 248 q 150 246 142 245 q 135 244 133 244 l 82 220 q 80 220 78 222 q 77 224 77 226 q 81 230 94 238 q 108 247 113 248 l 134 254 q 169 263 170 265 q 170 268 169 276 q 168 284 165 295 q 157 289 143 283 q 129 277 121 272 q 116 269 106 260 q 97 250 90 248 q 97 259 106 265 q 114 271 126 278 q 128 279 138 286 q 149 292 157 303 q 142 303 128 298 q 115 293 112 292 q 101 287 89 284 q 77 280 66 280 q 71 284 105 300 q 139 315 149 316 l 149 311 q 158 314 160 320 q 163 326 165 339 q 155 339 146 334 q 136 330 127 324 q 118 318 115 316 q 101 306 90 300 l 89 303 q 89 308 97 314 q 105 320 121 328 q 143 339 145 343 q 136 343 128 339 q 119 335 111 330 q 93 319 82 319 q 80 319 78 320 q 77 322 77 323 q 77 317 74 314 q 71 311 64 307 q 57 304 53 300 q 49 296 49 288 l 66 288 q 58 285 58 275 q 58 267 69 229 q 80 191 82 189 q 89 195 99 204 q 109 212 111 212 q 120 212 121 209 q 112 205 101 198 q 90 191 86 185 q 91 184 91 171 z m 566 295 q 566 302 572 304 q 578 305 587 305 l 587 295 z m 540 201 l 548 212 q 548 214 558 218 q 568 221 572 222 q 604 231 604 236 q 561 236 540 240 q 536 228 536 220 q 536 216 538 210 q 539 204 540 201 z m 634 196 q 634 195 631 193 l 639 193 q 642 198 645 212 q 648 225 648 237 q 635 237 606 224 q 576 212 575 205 q 580 205 588 207 q 597 209 603 209 q 610 209 620 206 q 629 202 633 202 z m 390 173 q 400 173 444 185 q 487 197 492 201 q 488 207 478 216 q 468 225 463 225 q 461 225 452 217 q 444 209 443 209 q 432 209 424 204 q 416 200 407 192 q 390 180 385 178 q 385 176 387 174 q 389 173 390 173 z m 210 39 q 215 39 219 42 q 223 46 224 51 q 244 59 264 73 q 285 87 291 103 q 289 102 280 98 q 271 95 267 90 l 267 95 l 243 82 q 243 88 247 92 q 251 96 260 100 q 269 105 272 108 q 272 114 263 114 q 248 114 232 98 q 217 83 205 83 q 205 88 208 92 q 212 95 220 100 q 229 105 232 110 q 236 118 240 122 q 224 122 220 120 q 215 118 212 118 q 208 118 208 122 q 208 128 214 130 q 220 132 220 136 q 219 139 216 142 q 212 145 210 146 q 207 146 197 136 q 187 127 178 120 q 169 114 160 114 l 193 150 l 185 150 q 185 157 190 157 q 196 157 200 158 q 204 159 204 167 q 204 171 199 182 q 194 193 193 197 q 185 188 163 174 q 139 160 133 150 q 133 149 129 145 l 125 153 q 126 156 131 162 q 136 168 141 173 q 142 176 154 183 q 166 190 173 197 q 165 197 154 192 q 144 188 138 188 q 135 188 133 189 l 90 165 q 89 165 89 161 q 89 159 94 150 q 98 142 102 137 q 105 140 111 142 q 117 145 121 145 q 116 142 110 136 q 105 129 105 126 q 113 134 118 134 q 122 134 142 142 q 168 153 176 153 l 176 145 q 166 145 142 134 q 119 123 118 114 q 118 105 137 87 q 156 69 178 54 q 201 39 210 39 z m 587 185 l 591 181 q 592 184 602 187 q 613 190 619 190 l 619 181 l 508 153 q 512 162 516 165 q 521 168 532 169 l 532 165 q 545 168 562 174 q 580 180 587 185 z m 193 114 q 189 108 174 97 q 159 86 152 86 q 150 86 149 87 q 152 99 164 106 q 177 114 193 114 z m 629 64 q 648 64 658 67 q 653 71 646 81 q 639 91 634 95 l 603 62 q 611 64 629 64 z m 188 59 q 188 70 200 74 q 211 79 224 79 l 224 75 q 219 75 206 68 q 193 60 188 59 z m 613 7 q 622 18 641 35 q 660 52 666 59 q 649 59 618 52 q 586 45 579 35 q 582 30 595 18 q 608 7 613 7 z m 216 35 q 222 35 228 40 q 235 45 240 51 q 235 51 227 45 q 219 39 216 35 z m 346 7 q 351 13 360 20 q 368 27 375 27 l 350 7 z m 287 7 q 296 20 315 23 q 315 20 303 14 q 291 7 287 7 z m 385 13 l 385 9 q 382 7 376 3 q 371 -1 366 -4 l 366 0 l 358 -4 q 350 -4 350 0 q 355 7 365 10 q 375 13 385 13 z"},"w":{"x_min":0,"x_max":753,"ha":753,"o":"m 730 432 q 730 391 695 288 q 660 186 626 107 q 620 68 605 23 q 590 -22 573 -22 q 565 -22 544 -13 l 467 -13 l 459 -4 q 456 3 448 20 q 441 37 436 52 q 433 60 432 74 q 430 88 429 93 q 425 128 419 142 q 415 152 412 160 q 409 167 407 173 q 398 205 381 228 q 372 219 372 215 q 373 213 376 210 q 379 207 381 207 l 368 207 q 367 207 346 142 q 345 138 344 132 q 342 127 340 120 q 324 57 307 11 q 290 -35 269 -35 l 180 -12 l 153 -13 q 140 -5 128 30 q 116 64 108 104 q 100 143 100 159 q 100 165 101 168 l 53 353 q 52 363 48 391 q 45 419 38 444 q 30 470 18 470 l 14 469 q 15 474 19 478 q 23 483 27 483 q 29 483 62 477 q 95 471 122 469 q 124 468 129 456 q 134 443 136 438 q 140 425 145 414 q 150 402 153 401 l 191 318 q 202 200 212 177 l 226 189 l 237 214 q 243 227 260 263 q 276 299 278 310 q 271 311 271 324 q 279 324 284 334 q 290 343 290 351 q 290 360 298 382 q 310 418 316 452 q 316 463 324 470 q 331 478 358 478 q 401 478 419 469 q 423 455 435 434 q 455 398 455 379 q 455 373 454 370 l 480 306 q 479 303 479 294 q 479 281 490 230 q 500 180 510 168 q 514 175 514 185 l 513 198 q 513 212 523 219 q 539 328 587 431 q 587 436 590 454 q 592 471 593 478 l 657 478 q 693 478 712 466 q 730 454 730 432 z m 665 450 q 687 452 704 452 q 696 458 686 460 q 676 461 660 461 q 653 461 646 459 q 639 457 635 457 q 630 457 618 460 q 606 462 600 462 l 600 454 q 610 454 610 426 q 619 426 636 430 q 654 434 661 439 l 635 439 l 635 449 z m 325 457 q 326 454 328 442 q 331 430 336 430 q 348 430 368 438 q 388 447 389 457 z m 398 440 l 342 413 q 351 413 362 414 q 373 415 379 416 q 394 419 411 419 q 411 427 408 434 q 405 440 398 440 z m 75 426 q 90 419 100 416 q 109 413 122 413 q 117 428 117 434 q 117 437 118 439 q 112 436 100 432 q 88 429 75 426 z m 704 439 q 696 432 686 430 q 676 427 659 425 q 636 423 622 417 q 623 415 638 412 q 653 410 658 409 q 690 405 700 401 q 700 408 702 422 q 704 436 704 439 z m 75 395 q 89 395 96 405 q 87 409 75 409 z m 323 389 l 327 387 q 335 389 354 394 q 372 399 385 404 l 366 407 q 329 407 323 389 z m 575 326 q 584 326 604 331 q 624 336 656 345 l 657 350 q 634 350 618 352 q 601 354 596 361 l 605 370 l 674 392 q 665 396 652 398 q 638 400 635 401 l 635 405 l 600 401 q 596 390 586 364 q 575 338 575 335 z m 122 401 q 116 400 110 396 q 105 392 103 391 q 89 383 84 383 q 80 383 79 384 l 79 379 q 79 378 88 377 q 96 376 102 375 l 127 370 l 140 369 q 140 378 133 386 q 126 395 122 401 z m 382 343 q 376 342 354 338 q 333 334 321 330 q 309 327 307 323 l 441 318 q 441 341 430 369 q 419 397 413 397 q 393 397 368 389 q 342 381 320 370 l 409 370 l 424 353 q 424 350 382 343 z m 691 381 q 681 381 652 374 q 624 366 622 361 l 639 362 q 650 362 664 360 q 677 358 683 357 q 691 369 691 381 z m 83 335 q 87 342 92 345 q 97 348 105 352 q 113 355 118 358 l 109 366 l 78 366 q 77 364 77 358 q 77 343 83 335 z m 311 340 q 326 340 347 347 q 352 348 360 350 q 367 352 377 353 l 372 358 l 354 359 q 339 359 325 354 q 311 349 311 340 z m 105 340 q 108 334 128 328 q 141 324 147 321 q 153 318 153 311 q 153 307 134 300 q 114 293 109 293 l 161 280 l 165 276 l 170 280 q 170 294 164 318 q 157 341 146 353 q 142 352 128 348 q 115 344 105 340 z m 127 314 q 121 318 108 322 q 94 325 88 332 q 86 326 86 323 q 86 314 96 306 q 104 306 114 308 q 124 311 127 314 z m 678 332 q 654 332 626 328 q 599 323 579 314 l 592 310 l 674 310 z m 401 301 q 416 301 419 314 l 410 310 l 337 310 q 328 310 328 307 l 329 302 q 329 297 320 296 q 311 296 304 295 q 298 294 298 286 q 298 285 303 280 q 339 258 354 258 q 360 258 360 267 q 360 271 357 278 q 354 285 354 288 q 354 295 358 300 q 362 306 368 306 q 374 306 384 304 q 395 301 401 301 z m 628 286 q 655 291 665 293 q 604 302 566 302 l 566 271 q 589 281 628 286 z m 407 288 q 412 284 419 284 q 423 284 434 286 q 444 289 450 289 l 450 298 q 422 298 407 288 z m 109 262 q 114 264 124 266 q 134 268 139 271 q 125 274 105 280 q 103 278 103 274 q 103 265 109 262 z m 665 280 l 562 259 q 604 253 629 253 q 642 253 648 254 q 651 249 654 249 q 657 249 660 262 q 664 274 665 280 z m 418 250 q 424 250 437 258 q 450 266 454 267 l 454 271 q 454 276 428 276 q 413 276 385 271 q 388 261 397 256 q 406 250 418 250 z m 278 236 q 288 239 308 241 q 325 241 337 245 l 287 271 z m 140 259 q 122 251 113 250 q 122 246 141 241 q 160 236 170 236 l 170 268 q 162 268 152 264 q 143 260 140 259 z m 553 227 q 561 227 586 232 q 611 238 617 241 q 578 241 566 238 q 553 235 553 227 z m 116 237 q 116 218 122 211 q 125 218 134 221 q 144 224 153 224 q 148 231 138 234 q 127 237 116 237 z m 419 224 q 419 224 429 224 q 439 225 450 228 q 433 234 421 234 q 412 234 407 233 q 409 227 411 226 q 413 224 419 224 z m 348 225 q 348 231 347 233 l 325 233 l 320 224 q 313 228 307 228 q 299 228 290 224 l 342 207 q 348 212 348 225 z m 648 228 q 629 228 590 221 q 552 214 549 207 q 554 200 572 197 q 589 194 608 194 q 623 194 630 199 q 637 204 648 228 z m 122 198 q 131 194 150 192 q 169 190 178 185 l 179 197 q 179 208 177 214 q 175 219 170 219 q 165 219 160 213 q 154 207 152 207 l 137 208 q 127 208 122 198 z m 424 207 q 427 206 444 202 q 460 197 467 197 l 467 216 q 461 214 448 212 q 435 209 424 207 z m 255 195 l 256 189 l 307 202 l 307 206 q 301 207 286 210 q 270 212 260 215 q 255 205 255 195 z m 338 189 l 337 194 q 325 191 308 189 q 270 185 260 177 l 329 163 q 332 169 334 178 q 337 186 338 189 z m 445 177 q 455 177 467 181 q 457 183 448 184 q 438 186 435 186 q 435 177 445 177 z m 539 171 q 580 171 596 185 l 544 185 q 539 178 539 171 z m 161 163 q 149 163 142 160 q 134 158 134 150 l 135 146 q 136 147 139 149 q 142 151 144 151 q 148 151 160 146 q 173 141 178 141 l 182 142 q 181 135 174 131 q 166 127 165 120 q 170 119 178 118 q 186 116 191 116 q 195 116 198 118 q 200 121 200 125 q 196 129 182 181 l 170 168 q 170 175 160 177 q 151 179 136 179 l 127 178 l 127 172 z m 623 172 q 579 172 562 163 l 558 159 q 571 153 580 152 q 588 150 602 150 q 616 150 620 156 q 623 161 623 172 z m 224 136 q 231 136 240 144 q 248 153 252 155 l 251 148 q 251 144 256 142 q 261 140 269 140 q 281 140 296 144 q 310 147 316 151 q 306 152 294 156 q 283 159 278 160 q 250 168 238 168 q 231 167 228 156 q 224 145 224 136 z m 441 159 q 484 146 485 145 q 485 153 480 168 q 452 168 441 159 z m 144 138 l 135 137 l 135 128 q 154 128 161 133 q 155 138 144 138 z m 523 137 q 528 133 537 133 q 543 133 554 134 q 565 135 575 137 z m 462 107 q 467 107 478 113 q 488 119 489 122 q 489 134 449 134 q 449 107 462 107 z m 320 133 q 309 133 285 129 q 261 125 252 125 q 250 125 248 126 q 247 128 247 129 l 230 120 q 249 118 307 99 z m 605 125 q 594 125 576 121 q 559 117 553 115 l 549 116 l 553 112 l 605 112 z m 273 95 l 200 112 l 191 110 l 135 110 q 136 104 142 92 q 147 81 148 81 z m 506 102 l 506 109 q 498 109 462 90 l 500 89 q 524 89 540 95 q 541 94 542 92 q 543 90 547 90 q 565 99 579 99 q 568 104 546 104 q 532 104 522 103 q 512 102 506 102 z m 597 87 q 578 87 566 81 q 568 79 568 76 q 568 72 562 70 q 555 69 553 69 l 579 60 q 579 53 573 48 q 567 44 555 38 q 543 33 543 29 l 544 21 l 493 21 q 490 21 484 25 q 479 29 479 32 q 479 41 512 45 q 533 49 533 52 q 533 56 523 60 l 471 60 q 470 70 460 70 q 460 51 471 29 q 482 7 493 7 l 509 8 q 528 8 546 5 q 563 2 566 -4 q 597 61 597 87 z m 299 78 l 262 79 q 204 79 165 69 q 173 66 180 65 q 186 64 190 63 q 217 56 226 52 q 226 51 228 49 q 229 47 230 47 l 238 52 q 249 52 258 49 q 261 49 268 48 q 275 46 280 46 l 290 47 z m 501 73 q 510 71 520 70 q 531 69 535 69 q 540 69 544 73 z m 189 23 q 207 23 256 38 q 241 38 210 42 q 179 45 156 52 l 156 45 q 156 38 160 25 q 164 12 170 12 q 179 12 179 15 q 179 17 178 20 q 176 23 176 25 q 184 23 189 23 z m 282 26 q 265 26 233 20 q 201 14 195 8 q 207 8 231 4 q 257 0 270 0 q 274 0 278 10 q 281 21 282 26 z"},"-":{"x_min":0,"x_max":444,"ha":444,"o":"m 165 242 q 166 242 184 264 q 207 292 208 293 q 214 299 214 301 q 214 303 212 303 q 209 303 202 298 q 196 293 188 287 q 171 271 156 262 q 142 252 126 252 l 126 259 q 126 268 141 281 q 156 292 156 302 q 135 293 118 280 q 113 276 96 262 q 78 247 69 247 q 48 247 48 259 q 48 277 54 299 q 55 303 57 313 q 59 323 59 334 l 119 333 q 136 333 208 336 l 239 337 l 273 336 q 281 335 337 330 q 393 326 393 319 l 393 237 l 389 233 q 375 233 268 220 l 232 216 q 219 216 197 218 q 171 220 152 220 q 126 220 98 217 q 69 214 66 207 q 64 209 56 212 q 48 216 48 220 q 48 232 76 236 q 105 240 165 242 z m 75 280 q 78 282 94 294 q 110 306 110 312 q 110 316 100 318 q 91 319 85 319 q 78 319 74 316 q 69 313 69 307 q 69 307 75 280 z m 204 268 l 208 268 q 211 268 244 289 q 277 310 282 315 l 258 319 q 245 319 236 310 q 226 300 218 288 q 209 275 204 268 z m 104 293 q 107 293 126 301 q 146 309 156 315 l 148 315 q 133 315 123 310 q 113 305 104 293 z m 164 293 q 175 293 193 304 q 205 311 216 315 l 177 315 q 174 313 170 306 q 166 299 164 293 z m 273 250 q 324 269 363 302 l 367 302 l 367 310 l 320 315 l 316 315 q 301 280 273 250 z m 290 302 q 284 298 275 290 q 266 283 258 278 q 250 274 241 274 q 239 274 238 276 q 238 277 237 277 q 236 277 234 276 q 233 274 230 271 l 234 268 q 230 262 219 254 q 208 247 204 242 l 242 237 q 247 236 266 264 q 286 292 290 302 z m 299 245 l 333 245 q 335 249 345 261 q 354 271 358 278 q 363 285 363 293 q 353 282 329 263 q 322 261 314 255 q 305 249 299 245 z"}}}
